G75*
%MOIN*%
%OFA0B0*%
%FSLAX24Y24*%
%IPPOS*%
%LPD*%
%AMOC8*
5,1,8,0,0,1.08239X$1,22.5*
%
%ADD10C,0.0554*%
%ADD11C,0.0768*%
%ADD12C,0.0520*%
%ADD13C,0.0320*%
%ADD14C,0.0080*%
%ADD15C,0.0120*%
%ADD16C,0.0300*%
D10*
X001071Y013361D03*
X001071Y015959D03*
D11*
X013620Y004360D03*
X015180Y004360D03*
X015180Y002960D03*
X013620Y002960D03*
X016740Y002960D03*
X018300Y002960D03*
X019860Y002960D03*
X021420Y002960D03*
X022980Y002960D03*
X024540Y002960D03*
X026100Y002960D03*
X027660Y002960D03*
X029220Y002960D03*
X030780Y002960D03*
X032340Y002960D03*
X033900Y002960D03*
X035460Y002960D03*
X035460Y004360D03*
X033900Y004360D03*
X032340Y004360D03*
X030780Y004360D03*
X029220Y004360D03*
X027660Y004360D03*
X026100Y004360D03*
X024540Y004360D03*
X022980Y004360D03*
X021420Y004360D03*
X019860Y004360D03*
X018300Y004360D03*
X016740Y004360D03*
X037020Y004360D03*
X038580Y004360D03*
X040140Y004360D03*
X041700Y004360D03*
X043260Y004360D03*
X044820Y004360D03*
X046380Y004360D03*
X046380Y002960D03*
X044820Y002960D03*
X043260Y002960D03*
X041700Y002960D03*
X040140Y002960D03*
X038580Y002960D03*
X037020Y002960D03*
D12*
X030000Y007660D03*
X030000Y008660D03*
X030000Y009660D03*
X030000Y010660D03*
X030000Y011660D03*
X030000Y012660D03*
X030000Y013660D03*
X030000Y014660D03*
X030000Y015660D03*
X030000Y016660D03*
X030000Y017660D03*
X030000Y018660D03*
X030000Y019660D03*
X030000Y020660D03*
X030000Y021660D03*
X030000Y022660D03*
X030000Y023660D03*
X030000Y024660D03*
X030000Y025660D03*
X030000Y026660D03*
X033000Y026660D03*
X033000Y025660D03*
X033000Y024660D03*
X033000Y023660D03*
X033000Y022660D03*
X033000Y021660D03*
X033000Y020660D03*
X033000Y019660D03*
X033000Y018660D03*
X033000Y017660D03*
X033000Y016660D03*
X033000Y015660D03*
X033000Y014660D03*
X033000Y013660D03*
X039000Y013660D03*
X039000Y014660D03*
X039000Y015660D03*
X039000Y016660D03*
X039000Y017660D03*
X039000Y018660D03*
X039000Y019660D03*
X039000Y020660D03*
X039000Y021660D03*
X039000Y022660D03*
X039000Y023660D03*
X039000Y024660D03*
X039000Y025660D03*
X039000Y026660D03*
X042000Y026660D03*
X042000Y025660D03*
X042000Y024660D03*
X042000Y023660D03*
X042000Y022660D03*
X042000Y021660D03*
X042000Y020660D03*
X042000Y019660D03*
X042000Y018660D03*
X042000Y017660D03*
X042000Y016660D03*
X042000Y015660D03*
X042000Y014660D03*
X042000Y013660D03*
X048000Y013660D03*
X048000Y014660D03*
X048000Y015660D03*
X048000Y016660D03*
X048000Y017660D03*
X048000Y018660D03*
X048000Y019660D03*
X048000Y020660D03*
X048000Y021660D03*
X048000Y022660D03*
X048000Y023660D03*
X048000Y024660D03*
X048000Y025660D03*
X048000Y026660D03*
X024000Y026660D03*
X024000Y025660D03*
X024000Y024660D03*
X024000Y023660D03*
X024000Y022660D03*
X024000Y021660D03*
X024000Y020660D03*
X024000Y019660D03*
X024000Y018660D03*
X024000Y017660D03*
X024000Y016660D03*
X024000Y015660D03*
X024000Y014660D03*
X024000Y013660D03*
X024000Y012660D03*
X024000Y011660D03*
X024000Y010660D03*
X024000Y009660D03*
X024000Y008660D03*
X024000Y007660D03*
X021000Y007660D03*
X021000Y008660D03*
X021000Y009660D03*
X021000Y010660D03*
X021000Y011660D03*
X021000Y012660D03*
X021000Y013660D03*
X021000Y014660D03*
X021000Y015660D03*
X021000Y016660D03*
X021000Y017660D03*
X021000Y018660D03*
X021000Y019660D03*
X021000Y020660D03*
X021000Y021660D03*
X021000Y022660D03*
X021000Y023660D03*
X021000Y024660D03*
X021000Y025660D03*
X021000Y026660D03*
X015000Y026660D03*
X015000Y025660D03*
X015000Y024660D03*
X015000Y023660D03*
X015000Y022660D03*
X015000Y021660D03*
X015000Y020660D03*
X015000Y019660D03*
X015000Y018660D03*
X015000Y017660D03*
X015000Y016660D03*
X015000Y015660D03*
X015000Y014660D03*
X015000Y013660D03*
X015000Y012660D03*
X015000Y011660D03*
X015000Y010660D03*
X015000Y009660D03*
X015000Y008660D03*
X015000Y007660D03*
D13*
X009063Y009410D03*
X008000Y008910D03*
X007000Y008910D03*
X007000Y009410D03*
X007000Y009910D03*
X008000Y009910D03*
X008271Y010987D03*
X007503Y010987D03*
X004375Y009910D03*
X004375Y009410D03*
X006012Y007345D03*
X006406Y007345D03*
X007232Y007345D03*
X007783Y007345D03*
X008652Y007345D03*
X006799Y005285D03*
X006012Y005285D03*
X005224Y005285D03*
X004437Y005285D03*
X005028Y003660D03*
X003453Y003660D03*
X006000Y002035D03*
X006996Y003660D03*
X002317Y011998D03*
X002317Y012588D03*
X001750Y014148D03*
X001750Y015172D03*
X003892Y015015D03*
X003892Y014560D03*
X006875Y015535D03*
X007813Y015223D03*
X008250Y015660D03*
X008750Y016160D03*
X009063Y016473D03*
X009375Y016775D03*
X009375Y017540D03*
X009005Y017910D03*
X008563Y018348D03*
X006808Y018718D03*
X006375Y018295D03*
X005625Y017535D03*
X005875Y016535D03*
X007250Y014410D03*
X010000Y015723D03*
X010313Y016035D03*
X005943Y019478D03*
X007250Y019910D03*
X007750Y019910D03*
X007500Y022673D03*
X007000Y022798D03*
X008000Y022798D03*
X007488Y024668D03*
X003315Y023979D03*
X011661Y023979D03*
X017125Y023660D03*
X017125Y021660D03*
X017125Y019660D03*
X017125Y025660D03*
X036875Y026660D03*
X045875Y026660D03*
X026125Y007660D03*
D14*
X010938Y007035D02*
X010860Y016613D01*
X010313Y017160D01*
X006720Y017160D01*
X005968Y017913D01*
X005943Y019478D01*
X007000Y020160D02*
X007250Y019910D01*
X007000Y020160D02*
X007000Y022798D01*
X008000Y022798D02*
X008000Y020160D01*
X007750Y019910D01*
X009375Y016775D02*
X010198Y016775D01*
X010625Y016348D01*
X010625Y007035D01*
X009500Y005785D01*
X007299Y005785D01*
X006799Y005285D01*
X006500Y004785D02*
X008875Y004785D01*
X010938Y007035D01*
X010308Y007035D02*
X010313Y016035D01*
X010000Y015723D02*
X010000Y007035D01*
X009250Y006285D01*
X005687Y006285D01*
X004437Y005285D01*
X005224Y005285D02*
X006099Y006035D01*
X009375Y006035D01*
X010308Y007035D01*
X008652Y007345D02*
X008652Y013008D01*
X007250Y014410D01*
X006406Y012804D02*
X006406Y007345D01*
X006012Y007345D02*
X006012Y012804D01*
X004256Y014560D01*
X003892Y014560D01*
X003892Y015015D02*
X004256Y015015D01*
X006406Y012804D01*
X007002Y009912D02*
X007000Y009910D01*
X006012Y005285D02*
X006500Y004785D01*
D15*
X001786Y000160D02*
X049214Y000160D01*
X001786Y000160D01*
X001901Y000191D01*
X002139Y000328D01*
X002332Y000521D01*
X002469Y000759D01*
X002540Y001023D01*
X002540Y001297D01*
X002469Y001561D01*
X002332Y001799D01*
X002139Y001992D01*
X001901Y002129D01*
X001637Y002200D01*
X001363Y002200D01*
X001099Y002129D01*
X000861Y001992D01*
X000668Y001799D01*
X000531Y001561D01*
X000500Y001446D01*
X000500Y027874D01*
X000531Y027759D01*
X000668Y027521D01*
X000861Y027328D01*
X001099Y027191D01*
X001363Y027120D01*
X001637Y027120D01*
X001901Y027191D01*
X002139Y027328D01*
X002332Y027521D01*
X002469Y027759D01*
X002540Y028023D01*
X002540Y028297D01*
X002469Y028561D01*
X002332Y028799D01*
X002139Y028992D01*
X001901Y029129D01*
X001786Y029160D01*
X049214Y029160D01*
X049099Y029129D01*
X048861Y028992D01*
X048668Y028799D01*
X048531Y028561D01*
X048460Y028297D01*
X048460Y028023D01*
X048531Y027759D01*
X048668Y027521D01*
X048861Y027328D01*
X049099Y027191D01*
X049363Y027120D01*
X049637Y027120D01*
X049901Y027191D01*
X050139Y027328D01*
X050332Y027521D01*
X050469Y027759D01*
X050500Y027874D01*
X050500Y001446D01*
X050469Y001561D01*
X050332Y001799D01*
X050139Y001992D01*
X049901Y002129D01*
X049637Y002200D01*
X049363Y002200D01*
X049099Y002129D01*
X048861Y001992D01*
X048668Y001799D01*
X048531Y001561D01*
X048460Y001297D01*
X048460Y001023D01*
X048531Y000759D01*
X048668Y000521D01*
X048861Y000328D01*
X049099Y000191D01*
X049214Y000160D01*
X048947Y000279D02*
X002053Y000279D01*
X002208Y000397D02*
X048792Y000397D01*
X048674Y000516D02*
X002326Y000516D01*
X002397Y000634D02*
X048603Y000634D01*
X048534Y000753D02*
X002466Y000753D01*
X002499Y000871D02*
X048501Y000871D01*
X048469Y000990D02*
X002531Y000990D01*
X002540Y001108D02*
X048460Y001108D01*
X048460Y001227D02*
X002540Y001227D01*
X002527Y001345D02*
X048473Y001345D01*
X048505Y001464D02*
X002495Y001464D01*
X002457Y001582D02*
X048543Y001582D01*
X048611Y001701D02*
X002389Y001701D01*
X002312Y001819D02*
X048688Y001819D01*
X048807Y001938D02*
X002193Y001938D01*
X002028Y002056D02*
X048972Y002056D01*
X049268Y002175D02*
X001732Y002175D01*
X001268Y002175D02*
X000500Y002175D01*
X000500Y002293D02*
X050500Y002293D01*
X050500Y002175D02*
X049732Y002175D01*
X050028Y002056D02*
X050500Y002056D01*
X050500Y001938D02*
X050193Y001938D01*
X050312Y001819D02*
X050500Y001819D01*
X050500Y001701D02*
X050389Y001701D01*
X050457Y001582D02*
X050500Y001582D01*
X050495Y001464D02*
X050500Y001464D01*
X050500Y002412D02*
X000500Y002412D01*
X000500Y002530D02*
X013309Y002530D01*
X013323Y002516D02*
X013516Y002436D01*
X013724Y002436D01*
X013917Y002516D01*
X014064Y002663D01*
X014144Y002856D01*
X014144Y003064D01*
X014064Y003257D01*
X013917Y003404D01*
X013724Y003484D01*
X013516Y003484D01*
X013323Y003404D01*
X013176Y003257D01*
X013096Y003064D01*
X013096Y002856D01*
X013176Y002663D01*
X013323Y002516D01*
X013191Y002649D02*
X000500Y002649D01*
X000500Y002767D02*
X013133Y002767D01*
X013096Y002886D02*
X000500Y002886D01*
X000500Y003004D02*
X013096Y003004D01*
X013120Y003123D02*
X000500Y003123D01*
X000500Y003241D02*
X013169Y003241D01*
X013279Y003360D02*
X008123Y003360D01*
X008159Y003374D02*
X008254Y003469D01*
X008305Y003593D01*
X008305Y003727D01*
X008254Y003851D01*
X008159Y003946D01*
X008036Y003997D01*
X007901Y003997D01*
X007778Y003946D01*
X007683Y003851D01*
X007632Y003727D01*
X007632Y003593D01*
X007683Y003469D01*
X007778Y003374D01*
X007901Y003323D01*
X008036Y003323D01*
X008159Y003374D01*
X008258Y003478D02*
X013502Y003478D01*
X013738Y003478D02*
X015062Y003478D01*
X015076Y003484D02*
X014883Y003404D01*
X014736Y003257D01*
X014656Y003064D01*
X014656Y002856D01*
X014736Y002663D01*
X014883Y002516D01*
X015076Y002436D01*
X015284Y002436D01*
X015477Y002516D01*
X015624Y002663D01*
X015704Y002856D01*
X015704Y003064D01*
X015624Y003257D01*
X015477Y003404D01*
X015284Y003484D01*
X015076Y003484D01*
X015298Y003478D02*
X016622Y003478D01*
X016636Y003484D02*
X016443Y003404D01*
X016296Y003257D01*
X016216Y003064D01*
X016216Y002856D01*
X016296Y002663D01*
X016443Y002516D01*
X016636Y002436D01*
X016844Y002436D01*
X017037Y002516D01*
X017184Y002663D01*
X017264Y002856D01*
X017264Y003064D01*
X017184Y003257D01*
X017037Y003404D01*
X016844Y003484D01*
X016636Y003484D01*
X016858Y003478D02*
X018182Y003478D01*
X018196Y003484D02*
X018003Y003404D01*
X017856Y003257D01*
X017776Y003064D01*
X017776Y002856D01*
X017856Y002663D01*
X018003Y002516D01*
X018196Y002436D01*
X018404Y002436D01*
X018597Y002516D01*
X018744Y002663D01*
X018824Y002856D01*
X018824Y003064D01*
X018744Y003257D01*
X018597Y003404D01*
X018404Y003484D01*
X018196Y003484D01*
X018418Y003478D02*
X019742Y003478D01*
X019756Y003484D02*
X019563Y003404D01*
X019416Y003257D01*
X019336Y003064D01*
X019336Y002856D01*
X019416Y002663D01*
X019563Y002516D01*
X019756Y002436D01*
X019964Y002436D01*
X020157Y002516D01*
X020304Y002663D01*
X020384Y002856D01*
X020384Y003064D01*
X020304Y003257D01*
X020157Y003404D01*
X019964Y003484D01*
X019756Y003484D01*
X019978Y003478D02*
X021302Y003478D01*
X021316Y003484D02*
X021123Y003404D01*
X020976Y003257D01*
X020896Y003064D01*
X020896Y002856D01*
X020976Y002663D01*
X021123Y002516D01*
X021316Y002436D01*
X021524Y002436D01*
X021717Y002516D01*
X021864Y002663D01*
X021944Y002856D01*
X021944Y003064D01*
X021864Y003257D01*
X021717Y003404D01*
X021524Y003484D01*
X021316Y003484D01*
X021538Y003478D02*
X022862Y003478D01*
X022876Y003484D02*
X022683Y003404D01*
X022536Y003257D01*
X022456Y003064D01*
X022456Y002856D01*
X022536Y002663D01*
X022683Y002516D01*
X022876Y002436D01*
X023084Y002436D01*
X023277Y002516D01*
X023424Y002663D01*
X023504Y002856D01*
X023504Y003064D01*
X023424Y003257D01*
X023277Y003404D01*
X023084Y003484D01*
X022876Y003484D01*
X023098Y003478D02*
X024422Y003478D01*
X024436Y003484D02*
X024243Y003404D01*
X024096Y003257D01*
X024016Y003064D01*
X024016Y002856D01*
X024096Y002663D01*
X024243Y002516D01*
X024436Y002436D01*
X024644Y002436D01*
X024837Y002516D01*
X024984Y002663D01*
X025064Y002856D01*
X025064Y003064D01*
X024984Y003257D01*
X024837Y003404D01*
X024644Y003484D01*
X024436Y003484D01*
X024658Y003478D02*
X025982Y003478D01*
X025996Y003484D02*
X025803Y003404D01*
X025656Y003257D01*
X025576Y003064D01*
X025576Y002856D01*
X025656Y002663D01*
X025803Y002516D01*
X025996Y002436D01*
X026204Y002436D01*
X026397Y002516D01*
X026544Y002663D01*
X026624Y002856D01*
X026624Y003064D01*
X026544Y003257D01*
X026397Y003404D01*
X026204Y003484D01*
X025996Y003484D01*
X026218Y003478D02*
X027542Y003478D01*
X027556Y003484D02*
X027363Y003404D01*
X027216Y003257D01*
X027136Y003064D01*
X027136Y002856D01*
X027216Y002663D01*
X027363Y002516D01*
X027556Y002436D01*
X027764Y002436D01*
X027957Y002516D01*
X028104Y002663D01*
X028184Y002856D01*
X028184Y003064D01*
X028104Y003257D01*
X027957Y003404D01*
X027764Y003484D01*
X027556Y003484D01*
X027778Y003478D02*
X029102Y003478D01*
X029116Y003484D02*
X028923Y003404D01*
X028776Y003257D01*
X028696Y003064D01*
X028696Y002856D01*
X028776Y002663D01*
X028923Y002516D01*
X029116Y002436D01*
X029324Y002436D01*
X029517Y002516D01*
X029664Y002663D01*
X029744Y002856D01*
X029744Y003064D01*
X029664Y003257D01*
X029517Y003404D01*
X029324Y003484D01*
X029116Y003484D01*
X029338Y003478D02*
X030662Y003478D01*
X030676Y003484D02*
X030483Y003404D01*
X030336Y003257D01*
X030256Y003064D01*
X030256Y002856D01*
X030336Y002663D01*
X030483Y002516D01*
X030676Y002436D01*
X030884Y002436D01*
X031077Y002516D01*
X031224Y002663D01*
X031304Y002856D01*
X031304Y003064D01*
X031224Y003257D01*
X031077Y003404D01*
X030884Y003484D01*
X030676Y003484D01*
X030898Y003478D02*
X032222Y003478D01*
X032236Y003484D02*
X032043Y003404D01*
X031896Y003257D01*
X031816Y003064D01*
X031816Y002856D01*
X031896Y002663D01*
X032043Y002516D01*
X032236Y002436D01*
X032444Y002436D01*
X032637Y002516D01*
X032784Y002663D01*
X032864Y002856D01*
X032864Y003064D01*
X032784Y003257D01*
X032637Y003404D01*
X032444Y003484D01*
X032236Y003484D01*
X032458Y003478D02*
X033782Y003478D01*
X033796Y003484D02*
X033603Y003404D01*
X033456Y003257D01*
X033376Y003064D01*
X033376Y002856D01*
X033456Y002663D01*
X033603Y002516D01*
X033796Y002436D01*
X034004Y002436D01*
X034197Y002516D01*
X034344Y002663D01*
X034424Y002856D01*
X034424Y003064D01*
X034344Y003257D01*
X034197Y003404D01*
X034004Y003484D01*
X033796Y003484D01*
X034018Y003478D02*
X035342Y003478D01*
X035356Y003484D02*
X035163Y003404D01*
X035016Y003257D01*
X034936Y003064D01*
X034936Y002856D01*
X035016Y002663D01*
X035163Y002516D01*
X035356Y002436D01*
X035564Y002436D01*
X035757Y002516D01*
X035904Y002663D01*
X035984Y002856D01*
X035984Y003064D01*
X035904Y003257D01*
X035757Y003404D01*
X035564Y003484D01*
X035356Y003484D01*
X035578Y003478D02*
X036902Y003478D01*
X036916Y003484D02*
X036723Y003404D01*
X036576Y003257D01*
X036496Y003064D01*
X036496Y002856D01*
X036576Y002663D01*
X036723Y002516D01*
X036916Y002436D01*
X037124Y002436D01*
X037317Y002516D01*
X037464Y002663D01*
X037544Y002856D01*
X037544Y003064D01*
X037464Y003257D01*
X037317Y003404D01*
X037124Y003484D01*
X036916Y003484D01*
X037138Y003478D02*
X038462Y003478D01*
X038476Y003484D02*
X038283Y003404D01*
X038136Y003257D01*
X038056Y003064D01*
X038056Y002856D01*
X038136Y002663D01*
X038283Y002516D01*
X038476Y002436D01*
X038684Y002436D01*
X038877Y002516D01*
X039024Y002663D01*
X039104Y002856D01*
X039104Y003064D01*
X039024Y003257D01*
X038877Y003404D01*
X038684Y003484D01*
X038476Y003484D01*
X038698Y003478D02*
X040022Y003478D01*
X040036Y003484D02*
X039843Y003404D01*
X039696Y003257D01*
X039616Y003064D01*
X039616Y002856D01*
X039696Y002663D01*
X039843Y002516D01*
X040036Y002436D01*
X040244Y002436D01*
X040437Y002516D01*
X040584Y002663D01*
X040664Y002856D01*
X040664Y003064D01*
X040584Y003257D01*
X040437Y003404D01*
X040244Y003484D01*
X040036Y003484D01*
X040258Y003478D02*
X041582Y003478D01*
X041596Y003484D02*
X041403Y003404D01*
X041256Y003257D01*
X041176Y003064D01*
X041176Y002856D01*
X041256Y002663D01*
X041403Y002516D01*
X041596Y002436D01*
X041804Y002436D01*
X041997Y002516D01*
X042144Y002663D01*
X042224Y002856D01*
X042224Y003064D01*
X042144Y003257D01*
X041997Y003404D01*
X041804Y003484D01*
X041596Y003484D01*
X041818Y003478D02*
X043094Y003478D01*
X043133Y003490D02*
X043051Y003464D01*
X042975Y003425D01*
X042906Y003375D01*
X042845Y003314D01*
X042795Y003245D01*
X042756Y003169D01*
X042730Y003087D01*
X042719Y003020D01*
X043200Y003020D01*
X043200Y003501D01*
X043133Y003490D01*
X043200Y003478D02*
X043320Y003478D01*
X043320Y003501D02*
X043320Y003020D01*
X043200Y003020D01*
X043200Y002900D01*
X042719Y002900D01*
X042730Y002833D01*
X042756Y002751D01*
X042795Y002675D01*
X042845Y002606D01*
X042906Y002545D01*
X042975Y002495D01*
X043051Y002456D01*
X043133Y002430D01*
X043200Y002419D01*
X043200Y002900D01*
X043320Y002900D01*
X043320Y003020D01*
X043801Y003020D01*
X043790Y003087D01*
X043764Y003169D01*
X043725Y003245D01*
X043675Y003314D01*
X043614Y003375D01*
X043545Y003425D01*
X043469Y003464D01*
X043387Y003490D01*
X043320Y003501D01*
X043426Y003478D02*
X044702Y003478D01*
X044716Y003484D02*
X044523Y003404D01*
X044376Y003257D01*
X044296Y003064D01*
X044296Y002856D01*
X044376Y002663D01*
X044523Y002516D01*
X044716Y002436D01*
X044924Y002436D01*
X045117Y002516D01*
X045264Y002663D01*
X045344Y002856D01*
X045344Y003064D01*
X045264Y003257D01*
X045117Y003404D01*
X044924Y003484D01*
X044716Y003484D01*
X044938Y003478D02*
X046262Y003478D01*
X046276Y003484D02*
X046083Y003404D01*
X045936Y003257D01*
X045856Y003064D01*
X045856Y002856D01*
X045936Y002663D01*
X046083Y002516D01*
X046276Y002436D01*
X046484Y002436D01*
X046677Y002516D01*
X046824Y002663D01*
X046904Y002856D01*
X046904Y003064D01*
X046824Y003257D01*
X046677Y003404D01*
X046484Y003484D01*
X046276Y003484D01*
X046498Y003478D02*
X050500Y003478D01*
X050500Y003360D02*
X046721Y003360D01*
X046831Y003241D02*
X050500Y003241D01*
X050500Y003123D02*
X046880Y003123D01*
X046904Y003004D02*
X050500Y003004D01*
X050500Y002886D02*
X046904Y002886D01*
X046867Y002767D02*
X050500Y002767D01*
X050500Y002649D02*
X046809Y002649D01*
X046691Y002530D02*
X050500Y002530D01*
X050500Y003597D02*
X008305Y003597D01*
X008305Y003715D02*
X050500Y003715D01*
X050500Y003834D02*
X043400Y003834D01*
X043387Y003830D02*
X043469Y003856D01*
X043545Y003895D01*
X043614Y003945D01*
X043675Y004006D01*
X043725Y004075D01*
X043764Y004151D01*
X043790Y004233D01*
X043801Y004300D01*
X043320Y004300D01*
X043320Y004420D01*
X043200Y004420D01*
X043200Y004901D01*
X043133Y004890D01*
X043051Y004864D01*
X042975Y004825D01*
X042906Y004775D01*
X042845Y004714D01*
X042795Y004645D01*
X042756Y004569D01*
X042730Y004487D01*
X042719Y004420D01*
X043200Y004420D01*
X043200Y004300D01*
X042719Y004300D01*
X042730Y004233D01*
X042756Y004151D01*
X042795Y004075D01*
X042845Y004006D01*
X042906Y003945D01*
X042975Y003895D01*
X043051Y003856D01*
X043133Y003830D01*
X043200Y003819D01*
X043200Y004300D01*
X043320Y004300D01*
X043320Y003819D01*
X043387Y003830D01*
X043320Y003834D02*
X043200Y003834D01*
X043120Y003834D02*
X008261Y003834D01*
X008144Y003952D02*
X013287Y003952D01*
X013323Y003916D02*
X013516Y003836D01*
X013724Y003836D01*
X013917Y003916D01*
X014064Y004063D01*
X014144Y004256D01*
X014144Y004464D01*
X014064Y004657D01*
X013917Y004804D01*
X013724Y004884D01*
X013516Y004884D01*
X013323Y004804D01*
X013176Y004657D01*
X013096Y004464D01*
X013096Y004256D01*
X013176Y004063D01*
X013323Y003916D01*
X013173Y004071D02*
X000500Y004071D01*
X000500Y004189D02*
X013124Y004189D01*
X013096Y004308D02*
X000500Y004308D01*
X000500Y004426D02*
X013096Y004426D01*
X013129Y004545D02*
X000500Y004545D01*
X000500Y004663D02*
X006367Y004663D01*
X006372Y004658D02*
X006423Y004606D01*
X006425Y004606D01*
X006425Y004605D01*
X006499Y004605D01*
X006572Y004604D01*
X006573Y004605D01*
X008805Y004605D01*
X008808Y004602D01*
X008879Y004605D01*
X008950Y004605D01*
X008953Y004608D01*
X008957Y004608D01*
X009005Y004660D01*
X009055Y004710D01*
X009055Y004715D01*
X011068Y006911D01*
X011118Y006962D01*
X011118Y006966D01*
X011121Y006968D01*
X011117Y007040D01*
X011040Y016613D01*
X011040Y016687D01*
X011039Y016688D01*
X011039Y016689D01*
X010987Y016740D01*
X010387Y017340D01*
X006795Y017340D01*
X006146Y017988D01*
X006145Y018101D01*
X006205Y018041D01*
X006315Y017995D01*
X006435Y017995D01*
X006545Y018041D01*
X006629Y018125D01*
X006675Y018235D01*
X006675Y018355D01*
X006629Y018465D01*
X006545Y018549D01*
X006435Y018595D01*
X006315Y018595D01*
X006205Y018549D01*
X006138Y018483D01*
X006126Y019237D01*
X006197Y019308D01*
X006242Y019418D01*
X006242Y019537D01*
X006197Y019647D01*
X006112Y019732D01*
X006002Y019777D01*
X005883Y019777D01*
X005773Y019732D01*
X005688Y019647D01*
X005643Y019537D01*
X005643Y019418D01*
X005688Y019308D01*
X005766Y019229D01*
X005788Y017911D01*
X005788Y017838D01*
X005789Y017837D01*
X005789Y017835D01*
X005841Y017784D01*
X006645Y016980D01*
X009156Y016980D01*
X009121Y016945D01*
X009075Y016835D01*
X009075Y016715D01*
X009121Y016605D01*
X009205Y016521D01*
X009315Y016475D01*
X009435Y016475D01*
X009545Y016521D01*
X009619Y016595D01*
X010123Y016595D01*
X010391Y016327D01*
X010372Y016335D01*
X010253Y016335D01*
X010143Y016289D01*
X010058Y016205D01*
X010013Y016095D01*
X010013Y016022D01*
X009940Y016022D01*
X009830Y015977D01*
X009746Y015892D01*
X009700Y015782D01*
X009700Y015663D01*
X009746Y015553D01*
X009820Y015478D01*
X009820Y007110D01*
X009175Y006465D01*
X005697Y006465D01*
X005633Y006472D01*
X005624Y006465D01*
X005612Y006465D01*
X005567Y006419D01*
X004515Y005578D01*
X004497Y005585D01*
X004377Y005585D01*
X004267Y005539D01*
X004183Y005455D01*
X004137Y005345D01*
X004137Y005225D01*
X004183Y005115D01*
X004267Y005031D01*
X004377Y004985D01*
X004497Y004985D01*
X004607Y005031D01*
X004691Y005115D01*
X004737Y005225D01*
X004737Y005294D01*
X005750Y006105D01*
X005904Y006105D01*
X005293Y005581D01*
X005284Y005585D01*
X005165Y005585D01*
X005054Y005539D01*
X004970Y005455D01*
X004924Y005345D01*
X004924Y005225D01*
X004970Y005115D01*
X005054Y005031D01*
X005165Y004985D01*
X005284Y004985D01*
X005394Y005031D01*
X005479Y005115D01*
X005524Y005225D01*
X005524Y005305D01*
X006166Y005855D01*
X007115Y005855D01*
X006845Y005585D01*
X006740Y005585D01*
X006629Y005539D01*
X006545Y005455D01*
X006499Y005345D01*
X006499Y005225D01*
X006545Y005115D01*
X006629Y005031D01*
X006740Y004985D01*
X006859Y004985D01*
X006969Y005031D01*
X007054Y005115D01*
X007099Y005225D01*
X007099Y005330D01*
X007374Y005605D01*
X009382Y005605D01*
X008796Y004965D01*
X006576Y004965D01*
X006312Y005235D01*
X006312Y005345D01*
X006266Y005455D01*
X006182Y005539D01*
X006071Y005585D01*
X005952Y005585D01*
X005842Y005539D01*
X005757Y005455D01*
X005712Y005345D01*
X005712Y005225D01*
X005757Y005115D01*
X005842Y005031D01*
X005952Y004985D01*
X006053Y004985D01*
X006320Y004712D01*
X006320Y004710D01*
X006372Y004658D01*
X006252Y004782D02*
X000500Y004782D01*
X000500Y004900D02*
X006136Y004900D01*
X005871Y005019D02*
X005365Y005019D01*
X005488Y005137D02*
X005748Y005137D01*
X005712Y005256D02*
X005524Y005256D01*
X005605Y005374D02*
X005724Y005374D01*
X005743Y005493D02*
X005795Y005493D01*
X005881Y005611D02*
X006871Y005611D01*
X006989Y005730D02*
X006020Y005730D01*
X006158Y005848D02*
X007108Y005848D01*
X007261Y005493D02*
X009279Y005493D01*
X009171Y005374D02*
X007143Y005374D01*
X007099Y005256D02*
X009062Y005256D01*
X008953Y005137D02*
X007063Y005137D01*
X006940Y005019D02*
X008845Y005019D01*
X009116Y004782D02*
X013301Y004782D01*
X013182Y004663D02*
X009008Y004663D01*
X009225Y004900D02*
X043193Y004900D01*
X043200Y004900D02*
X043320Y004900D01*
X043320Y004901D02*
X043320Y004420D01*
X043801Y004420D01*
X043790Y004487D01*
X043764Y004569D01*
X043725Y004645D01*
X043675Y004714D01*
X043614Y004775D01*
X043545Y004825D01*
X043469Y004864D01*
X043387Y004890D01*
X043320Y004901D01*
X043327Y004900D02*
X050500Y004900D01*
X050500Y004782D02*
X046699Y004782D01*
X046677Y004804D02*
X046484Y004884D01*
X046276Y004884D01*
X046083Y004804D01*
X045936Y004657D01*
X045856Y004464D01*
X045856Y004256D01*
X045936Y004063D01*
X046083Y003916D01*
X046276Y003836D01*
X046484Y003836D01*
X046677Y003916D01*
X046824Y004063D01*
X046904Y004256D01*
X046904Y004464D01*
X046824Y004657D01*
X046677Y004804D01*
X046818Y004663D02*
X050500Y004663D01*
X050500Y004545D02*
X046871Y004545D01*
X046904Y004426D02*
X050500Y004426D01*
X050500Y004308D02*
X046904Y004308D01*
X046876Y004189D02*
X050500Y004189D01*
X050500Y004071D02*
X046827Y004071D01*
X046713Y003952D02*
X050500Y003952D01*
X050500Y005019D02*
X009333Y005019D01*
X009442Y005137D02*
X050500Y005137D01*
X050500Y005256D02*
X009550Y005256D01*
X009659Y005374D02*
X050500Y005374D01*
X050500Y005493D02*
X009768Y005493D01*
X009876Y005611D02*
X050500Y005611D01*
X050500Y005730D02*
X009985Y005730D01*
X010094Y005848D02*
X050500Y005848D01*
X050500Y005967D02*
X010202Y005967D01*
X010311Y006085D02*
X050500Y006085D01*
X050500Y006204D02*
X010419Y006204D01*
X010528Y006322D02*
X050500Y006322D01*
X050500Y006441D02*
X010637Y006441D01*
X010745Y006559D02*
X050500Y006559D01*
X050500Y006678D02*
X010854Y006678D01*
X010963Y006796D02*
X050500Y006796D01*
X050500Y006915D02*
X011071Y006915D01*
X011118Y007033D02*
X050500Y007033D01*
X050500Y007152D02*
X011117Y007152D01*
X011116Y007270D02*
X014896Y007270D01*
X014920Y007260D02*
X015080Y007260D01*
X015227Y007321D01*
X015339Y007433D01*
X015400Y007580D01*
X015400Y007740D01*
X015339Y007887D01*
X015227Y007999D01*
X015080Y008060D01*
X014920Y008060D01*
X014773Y007999D01*
X014661Y007887D01*
X014600Y007740D01*
X014600Y007580D01*
X014661Y007433D01*
X014773Y007321D01*
X014920Y007260D01*
X015104Y007270D02*
X020841Y007270D01*
X020839Y007271D02*
X020902Y007250D01*
X020967Y007240D01*
X020980Y007240D01*
X020980Y007640D01*
X020580Y007640D01*
X020580Y007627D01*
X020590Y007562D01*
X020611Y007499D01*
X020641Y007440D01*
X020680Y007386D01*
X020726Y007340D01*
X020780Y007301D01*
X020839Y007271D01*
X020980Y007270D02*
X021020Y007270D01*
X021020Y007240D02*
X021033Y007240D01*
X021098Y007250D01*
X021161Y007271D01*
X021220Y007301D01*
X021274Y007340D01*
X021320Y007386D01*
X021359Y007440D01*
X021389Y007499D01*
X021410Y007562D01*
X021420Y007627D01*
X021420Y007640D01*
X021020Y007640D01*
X021020Y007680D01*
X020980Y007680D01*
X020980Y008080D01*
X020967Y008080D01*
X020902Y008070D01*
X020839Y008049D01*
X020780Y008019D01*
X020726Y007980D01*
X020680Y007934D01*
X020641Y007880D01*
X020611Y007821D01*
X020590Y007758D01*
X020580Y007693D01*
X020580Y007680D01*
X020980Y007680D01*
X020980Y007640D01*
X021020Y007640D01*
X021020Y007240D01*
X021159Y007270D02*
X023896Y007270D01*
X023920Y007260D02*
X024080Y007260D01*
X024227Y007321D01*
X024339Y007433D01*
X024400Y007580D01*
X024400Y007740D01*
X024339Y007887D01*
X024227Y007999D01*
X024080Y008060D01*
X023920Y008060D01*
X023773Y007999D01*
X023661Y007887D01*
X023600Y007740D01*
X023600Y007580D01*
X023661Y007433D01*
X023773Y007321D01*
X023920Y007260D01*
X024104Y007270D02*
X029896Y007270D01*
X029920Y007260D02*
X030080Y007260D01*
X030227Y007321D01*
X030339Y007433D01*
X030400Y007580D01*
X030400Y007740D01*
X030339Y007887D01*
X030227Y007999D01*
X030080Y008060D01*
X029920Y008060D01*
X029773Y007999D01*
X029661Y007887D01*
X029600Y007740D01*
X029600Y007580D01*
X029661Y007433D01*
X029773Y007321D01*
X029920Y007260D01*
X030104Y007270D02*
X050500Y007270D01*
X050500Y007389D02*
X030294Y007389D01*
X030370Y007507D02*
X050500Y007507D01*
X050500Y007626D02*
X030400Y007626D01*
X030398Y007744D02*
X050500Y007744D01*
X050500Y007863D02*
X030349Y007863D01*
X030245Y007981D02*
X050500Y007981D01*
X050500Y008100D02*
X011109Y008100D01*
X011108Y008218D02*
X050500Y008218D01*
X050500Y008337D02*
X030242Y008337D01*
X030227Y008321D02*
X030339Y008433D01*
X030400Y008580D01*
X030400Y008740D01*
X030339Y008887D01*
X030227Y008999D01*
X030080Y009060D01*
X029920Y009060D01*
X029773Y008999D01*
X029661Y008887D01*
X029600Y008740D01*
X029600Y008580D01*
X029661Y008433D01*
X029773Y008321D01*
X029920Y008260D01*
X030080Y008260D01*
X030227Y008321D01*
X030348Y008455D02*
X050500Y008455D01*
X050500Y008574D02*
X030397Y008574D01*
X030400Y008692D02*
X050500Y008692D01*
X050500Y008811D02*
X030371Y008811D01*
X030297Y008929D02*
X050500Y008929D01*
X050500Y009048D02*
X030110Y009048D01*
X030080Y009260D02*
X030227Y009321D01*
X030339Y009433D01*
X030400Y009580D01*
X030400Y009740D01*
X030339Y009887D01*
X030227Y009999D01*
X030080Y010060D01*
X029920Y010060D01*
X029773Y009999D01*
X029661Y009887D01*
X029600Y009740D01*
X029600Y009580D01*
X029661Y009433D01*
X029773Y009321D01*
X029920Y009260D01*
X030080Y009260D01*
X030139Y009285D02*
X050500Y009285D01*
X050500Y009403D02*
X030309Y009403D01*
X030376Y009522D02*
X050500Y009522D01*
X050500Y009640D02*
X030400Y009640D01*
X030392Y009759D02*
X050500Y009759D01*
X050500Y009877D02*
X030343Y009877D01*
X030230Y009996D02*
X050500Y009996D01*
X050500Y010114D02*
X011093Y010114D01*
X011094Y009996D02*
X014770Y009996D01*
X014773Y009999D02*
X014661Y009887D01*
X014600Y009740D01*
X014600Y009580D01*
X014661Y009433D01*
X014773Y009321D01*
X014920Y009260D01*
X015080Y009260D01*
X015227Y009321D01*
X015339Y009433D01*
X015400Y009580D01*
X015400Y009740D01*
X015339Y009887D01*
X015227Y009999D01*
X015080Y010060D01*
X014920Y010060D01*
X014773Y009999D01*
X014657Y009877D02*
X011095Y009877D01*
X011095Y009759D02*
X014608Y009759D01*
X014600Y009640D02*
X011096Y009640D01*
X011097Y009522D02*
X014624Y009522D01*
X014691Y009403D02*
X011098Y009403D01*
X011099Y009285D02*
X014861Y009285D01*
X014920Y009060D02*
X014773Y008999D01*
X014661Y008887D01*
X014600Y008740D01*
X014600Y008580D01*
X014661Y008433D01*
X014773Y008321D01*
X014920Y008260D01*
X015080Y008260D01*
X015227Y008321D01*
X015339Y008433D01*
X015400Y008580D01*
X015400Y008740D01*
X015339Y008887D01*
X015227Y008999D01*
X015080Y009060D01*
X014920Y009060D01*
X014890Y009048D02*
X011101Y009048D01*
X011100Y009166D02*
X050500Y009166D01*
X050500Y010233D02*
X011092Y010233D01*
X011091Y010351D02*
X014743Y010351D01*
X014773Y010321D02*
X014920Y010260D01*
X015080Y010260D01*
X015227Y010321D01*
X015339Y010433D01*
X015400Y010580D01*
X015400Y010740D01*
X015339Y010887D01*
X015227Y010999D01*
X015080Y011060D01*
X014920Y011060D01*
X014773Y010999D01*
X014661Y010887D01*
X014600Y010740D01*
X014600Y010580D01*
X014661Y010433D01*
X014773Y010321D01*
X014646Y010470D02*
X011090Y010470D01*
X011089Y010588D02*
X014600Y010588D01*
X014600Y010707D02*
X011088Y010707D01*
X011087Y010825D02*
X014635Y010825D01*
X014718Y010944D02*
X011086Y010944D01*
X011085Y011062D02*
X050500Y011062D01*
X050500Y010944D02*
X030282Y010944D01*
X030227Y010999D02*
X030080Y011060D01*
X029920Y011060D01*
X029773Y010999D01*
X029661Y010887D01*
X029600Y010740D01*
X029600Y010580D01*
X029661Y010433D01*
X029773Y010321D01*
X029920Y010260D01*
X030080Y010260D01*
X030227Y010321D01*
X030339Y010433D01*
X030400Y010580D01*
X030400Y010740D01*
X030339Y010887D01*
X030227Y010999D01*
X030365Y010825D02*
X050500Y010825D01*
X050500Y010707D02*
X030400Y010707D01*
X030400Y010588D02*
X050500Y010588D01*
X050500Y010470D02*
X030354Y010470D01*
X030257Y010351D02*
X050500Y010351D01*
X050500Y011181D02*
X011084Y011181D01*
X011083Y011299D02*
X014826Y011299D01*
X014773Y011321D02*
X014920Y011260D01*
X015080Y011260D01*
X015227Y011321D01*
X015339Y011433D01*
X015400Y011580D01*
X015400Y011740D01*
X015339Y011887D01*
X015227Y011999D01*
X015080Y012060D01*
X014920Y012060D01*
X014773Y011999D01*
X014661Y011887D01*
X014600Y011740D01*
X014600Y011580D01*
X014661Y011433D01*
X014773Y011321D01*
X014677Y011418D02*
X011082Y011418D01*
X011081Y011536D02*
X014618Y011536D01*
X014600Y011655D02*
X011080Y011655D01*
X011079Y011773D02*
X014614Y011773D01*
X014666Y011892D02*
X011078Y011892D01*
X011077Y012010D02*
X014800Y012010D01*
X014920Y012260D02*
X015080Y012260D01*
X015227Y012321D01*
X015339Y012433D01*
X015400Y012580D01*
X015400Y012740D01*
X015339Y012887D01*
X015227Y012999D01*
X015080Y013060D01*
X014920Y013060D01*
X014773Y012999D01*
X014661Y012887D01*
X014600Y012740D01*
X014600Y012580D01*
X014661Y012433D01*
X014773Y012321D01*
X014920Y012260D01*
X014729Y012366D02*
X011074Y012366D01*
X011073Y012484D02*
X014640Y012484D01*
X014600Y012603D02*
X011072Y012603D01*
X011071Y012721D02*
X014600Y012721D01*
X014641Y012840D02*
X011071Y012840D01*
X011070Y012958D02*
X014732Y012958D01*
X014920Y013260D02*
X015080Y013260D01*
X015227Y013321D01*
X015339Y013433D01*
X015400Y013580D01*
X015400Y013740D01*
X015339Y013887D01*
X015227Y013999D01*
X015080Y014060D01*
X014920Y014060D01*
X014773Y013999D01*
X014661Y013887D01*
X014600Y013740D01*
X014600Y013580D01*
X014661Y013433D01*
X014773Y013321D01*
X014920Y013260D01*
X014791Y013314D02*
X011067Y013314D01*
X011066Y013432D02*
X014662Y013432D01*
X014612Y013551D02*
X011065Y013551D01*
X011064Y013669D02*
X014600Y013669D01*
X014620Y013788D02*
X011063Y013788D01*
X011062Y013906D02*
X014680Y013906D01*
X014835Y014025D02*
X011061Y014025D01*
X011060Y014143D02*
X050500Y014143D01*
X050500Y014025D02*
X048165Y014025D01*
X048227Y013999D02*
X048080Y014060D01*
X047920Y014060D01*
X047773Y013999D01*
X047661Y013887D01*
X047600Y013740D01*
X047600Y013580D01*
X047661Y013433D01*
X047773Y013321D01*
X047920Y013260D01*
X048080Y013260D01*
X048227Y013321D01*
X048339Y013433D01*
X048400Y013580D01*
X048400Y013740D01*
X048339Y013887D01*
X048227Y013999D01*
X048320Y013906D02*
X050500Y013906D01*
X050500Y013788D02*
X048380Y013788D01*
X048400Y013669D02*
X050500Y013669D01*
X050500Y013551D02*
X048388Y013551D01*
X048338Y013432D02*
X050500Y013432D01*
X050500Y013314D02*
X048209Y013314D01*
X047791Y013314D02*
X042238Y013314D01*
X042220Y013301D02*
X042274Y013340D01*
X042320Y013386D01*
X042359Y013440D01*
X042389Y013499D01*
X042410Y013562D01*
X042420Y013627D01*
X042420Y013640D01*
X042020Y013640D01*
X042020Y013680D01*
X041980Y013680D01*
X041980Y014080D01*
X041967Y014080D01*
X041902Y014070D01*
X041839Y014049D01*
X041780Y014019D01*
X041726Y013980D01*
X041680Y013934D01*
X041641Y013880D01*
X041611Y013821D01*
X041590Y013758D01*
X041580Y013693D01*
X041580Y013680D01*
X041980Y013680D01*
X041980Y013640D01*
X041580Y013640D01*
X041580Y013627D01*
X041590Y013562D01*
X041611Y013499D01*
X041641Y013440D01*
X041680Y013386D01*
X041726Y013340D01*
X041780Y013301D01*
X041839Y013271D01*
X041902Y013250D01*
X041967Y013240D01*
X041980Y013240D01*
X041980Y013640D01*
X042020Y013640D01*
X042020Y013240D01*
X042033Y013240D01*
X042098Y013250D01*
X042161Y013271D01*
X042220Y013301D01*
X042354Y013432D02*
X047662Y013432D01*
X047612Y013551D02*
X042406Y013551D01*
X042420Y013680D02*
X042420Y013693D01*
X042410Y013758D01*
X042389Y013821D01*
X042359Y013880D01*
X042320Y013934D01*
X042274Y013980D01*
X042220Y014019D01*
X042161Y014049D01*
X042098Y014070D01*
X042033Y014080D01*
X042020Y014080D01*
X042020Y013680D01*
X042420Y013680D01*
X042400Y013788D02*
X047620Y013788D01*
X047600Y013669D02*
X042020Y013669D01*
X041980Y013669D02*
X039400Y013669D01*
X039400Y013740D02*
X039339Y013887D01*
X039227Y013999D01*
X039080Y014060D01*
X038920Y014060D01*
X038773Y013999D01*
X038661Y013887D01*
X038600Y013740D01*
X038600Y013580D01*
X038661Y013433D01*
X038773Y013321D01*
X038920Y013260D01*
X039080Y013260D01*
X039227Y013321D01*
X039339Y013433D01*
X039400Y013580D01*
X039400Y013740D01*
X039380Y013788D02*
X041600Y013788D01*
X041660Y013906D02*
X039320Y013906D01*
X039165Y014025D02*
X041790Y014025D01*
X041980Y014025D02*
X042020Y014025D01*
X042020Y013906D02*
X041980Y013906D01*
X041980Y013788D02*
X042020Y013788D01*
X042020Y013551D02*
X041980Y013551D01*
X041980Y013432D02*
X042020Y013432D01*
X042020Y013314D02*
X041980Y013314D01*
X041762Y013314D02*
X039209Y013314D01*
X039338Y013432D02*
X041646Y013432D01*
X041594Y013551D02*
X039388Y013551D01*
X038791Y013314D02*
X033238Y013314D01*
X033220Y013301D02*
X033274Y013340D01*
X033320Y013386D01*
X033359Y013440D01*
X033389Y013499D01*
X033410Y013562D01*
X033420Y013627D01*
X033420Y013640D01*
X033020Y013640D01*
X033020Y013680D01*
X032980Y013680D01*
X032980Y014080D01*
X032967Y014080D01*
X032902Y014070D01*
X032839Y014049D01*
X032780Y014019D01*
X032726Y013980D01*
X032680Y013934D01*
X032641Y013880D01*
X032611Y013821D01*
X032590Y013758D01*
X032580Y013693D01*
X032580Y013680D01*
X032980Y013680D01*
X032980Y013640D01*
X032580Y013640D01*
X032580Y013627D01*
X032590Y013562D01*
X032611Y013499D01*
X032641Y013440D01*
X032680Y013386D01*
X032726Y013340D01*
X032780Y013301D01*
X032839Y013271D01*
X032902Y013250D01*
X032967Y013240D01*
X032980Y013240D01*
X032980Y013640D01*
X033020Y013640D01*
X033020Y013240D01*
X033033Y013240D01*
X033098Y013250D01*
X033161Y013271D01*
X033220Y013301D01*
X033354Y013432D02*
X038662Y013432D01*
X038612Y013551D02*
X033406Y013551D01*
X033420Y013680D02*
X033420Y013693D01*
X033410Y013758D01*
X033389Y013821D01*
X033359Y013880D01*
X033320Y013934D01*
X033274Y013980D01*
X033220Y014019D01*
X033161Y014049D01*
X033098Y014070D01*
X033033Y014080D01*
X033020Y014080D01*
X033020Y013680D01*
X033420Y013680D01*
X033400Y013788D02*
X038620Y013788D01*
X038600Y013669D02*
X033020Y013669D01*
X032980Y013669D02*
X030400Y013669D01*
X030400Y013740D02*
X030339Y013887D01*
X030227Y013999D01*
X030080Y014060D01*
X029920Y014060D01*
X029773Y013999D01*
X029661Y013887D01*
X029600Y013740D01*
X029600Y013580D01*
X029661Y013433D01*
X029773Y013321D01*
X029920Y013260D01*
X030080Y013260D01*
X030227Y013321D01*
X030339Y013433D01*
X030400Y013580D01*
X030400Y013740D01*
X030380Y013788D02*
X032600Y013788D01*
X032660Y013906D02*
X030320Y013906D01*
X030165Y014025D02*
X032790Y014025D01*
X032980Y014025D02*
X033020Y014025D01*
X033020Y013906D02*
X032980Y013906D01*
X032980Y013788D02*
X033020Y013788D01*
X033020Y013551D02*
X032980Y013551D01*
X032980Y013432D02*
X033020Y013432D01*
X033020Y013314D02*
X032980Y013314D01*
X032762Y013314D02*
X030209Y013314D01*
X030338Y013432D02*
X032646Y013432D01*
X032594Y013551D02*
X030388Y013551D01*
X029791Y013314D02*
X024209Y013314D01*
X024227Y013321D02*
X024339Y013433D01*
X024400Y013580D01*
X024400Y013740D01*
X024339Y013887D01*
X024227Y013999D01*
X024080Y014060D01*
X023920Y014060D01*
X023773Y013999D01*
X023661Y013887D01*
X023600Y013740D01*
X023600Y013580D01*
X023661Y013433D01*
X023773Y013321D01*
X023920Y013260D01*
X024080Y013260D01*
X024227Y013321D01*
X024338Y013432D02*
X029662Y013432D01*
X029612Y013551D02*
X024388Y013551D01*
X024400Y013669D02*
X029600Y013669D01*
X029620Y013788D02*
X024380Y013788D01*
X024320Y013906D02*
X029680Y013906D01*
X029835Y014025D02*
X024165Y014025D01*
X024080Y014260D02*
X024227Y014321D01*
X024339Y014433D01*
X024400Y014580D01*
X024400Y014740D01*
X024339Y014887D01*
X024227Y014999D01*
X024080Y015060D01*
X023920Y015060D01*
X023773Y014999D01*
X023661Y014887D01*
X023600Y014740D01*
X023600Y014580D01*
X023661Y014433D01*
X023773Y014321D01*
X023920Y014260D01*
X024080Y014260D01*
X024083Y014262D02*
X029917Y014262D01*
X029920Y014260D02*
X030080Y014260D01*
X030227Y014321D01*
X030339Y014433D01*
X030400Y014580D01*
X030400Y014740D01*
X030339Y014887D01*
X030227Y014999D01*
X030080Y015060D01*
X029920Y015060D01*
X029773Y014999D01*
X029661Y014887D01*
X029600Y014740D01*
X029600Y014580D01*
X029661Y014433D01*
X029773Y014321D01*
X029920Y014260D01*
X030083Y014262D02*
X032917Y014262D01*
X032920Y014260D02*
X033080Y014260D01*
X033227Y014321D01*
X033339Y014433D01*
X033400Y014580D01*
X033400Y014740D01*
X033339Y014887D01*
X033227Y014999D01*
X033080Y015060D01*
X032920Y015060D01*
X032773Y014999D01*
X032661Y014887D01*
X032600Y014740D01*
X032600Y014580D01*
X032661Y014433D01*
X032773Y014321D01*
X032920Y014260D01*
X033083Y014262D02*
X038917Y014262D01*
X038920Y014260D02*
X039080Y014260D01*
X039227Y014321D01*
X039339Y014433D01*
X039400Y014580D01*
X039400Y014740D01*
X039339Y014887D01*
X039227Y014999D01*
X039080Y015060D01*
X038920Y015060D01*
X038773Y014999D01*
X038661Y014887D01*
X038600Y014740D01*
X038600Y014580D01*
X038661Y014433D01*
X038773Y014321D01*
X038920Y014260D01*
X039083Y014262D02*
X041917Y014262D01*
X041920Y014260D02*
X042080Y014260D01*
X042227Y014321D01*
X042339Y014433D01*
X042400Y014580D01*
X042400Y014740D01*
X042339Y014887D01*
X042227Y014999D01*
X042080Y015060D01*
X041920Y015060D01*
X041773Y014999D01*
X041661Y014887D01*
X041600Y014740D01*
X041600Y014580D01*
X041661Y014433D01*
X041773Y014321D01*
X041920Y014260D01*
X042083Y014262D02*
X047917Y014262D01*
X047920Y014260D02*
X048080Y014260D01*
X048227Y014321D01*
X048339Y014433D01*
X048400Y014580D01*
X048400Y014740D01*
X048339Y014887D01*
X048227Y014999D01*
X048080Y015060D01*
X047920Y015060D01*
X047773Y014999D01*
X047661Y014887D01*
X047600Y014740D01*
X047600Y014580D01*
X047661Y014433D01*
X047773Y014321D01*
X047920Y014260D01*
X048083Y014262D02*
X050500Y014262D01*
X050500Y014380D02*
X048286Y014380D01*
X048366Y014499D02*
X050500Y014499D01*
X050500Y014617D02*
X048400Y014617D01*
X048400Y014736D02*
X050500Y014736D01*
X050500Y014854D02*
X048353Y014854D01*
X048253Y014973D02*
X050500Y014973D01*
X050500Y015091D02*
X011052Y015091D01*
X011053Y014973D02*
X014747Y014973D01*
X014773Y014999D02*
X014661Y014887D01*
X014600Y014740D01*
X014600Y014580D01*
X014661Y014433D01*
X014773Y014321D01*
X014920Y014260D01*
X015080Y014260D01*
X015227Y014321D01*
X015339Y014433D01*
X015400Y014580D01*
X015400Y014740D01*
X015339Y014887D01*
X015227Y014999D01*
X015080Y015060D01*
X014920Y015060D01*
X014773Y014999D01*
X014647Y014854D02*
X011054Y014854D01*
X011055Y014736D02*
X014600Y014736D01*
X014600Y014617D02*
X011056Y014617D01*
X011057Y014499D02*
X014634Y014499D01*
X014714Y014380D02*
X011058Y014380D01*
X011059Y014262D02*
X014917Y014262D01*
X015083Y014262D02*
X020917Y014262D01*
X020920Y014260D02*
X021080Y014260D01*
X021227Y014321D01*
X021339Y014433D01*
X021400Y014580D01*
X021400Y014740D01*
X021339Y014887D01*
X021227Y014999D01*
X021080Y015060D01*
X020920Y015060D01*
X020773Y014999D01*
X020661Y014887D01*
X020600Y014740D01*
X020600Y014580D01*
X020661Y014433D01*
X020773Y014321D01*
X020920Y014260D01*
X021083Y014262D02*
X023917Y014262D01*
X023714Y014380D02*
X021286Y014380D01*
X021366Y014499D02*
X023634Y014499D01*
X023600Y014617D02*
X021400Y014617D01*
X021400Y014736D02*
X023600Y014736D01*
X023647Y014854D02*
X021353Y014854D01*
X021253Y014973D02*
X023747Y014973D01*
X023920Y015260D02*
X023773Y015321D01*
X023661Y015433D01*
X023600Y015580D01*
X023600Y015740D01*
X023661Y015887D01*
X023773Y015999D01*
X023920Y016060D01*
X024080Y016060D01*
X024227Y015999D01*
X024339Y015887D01*
X024400Y015740D01*
X024400Y015580D01*
X024339Y015433D01*
X024227Y015321D01*
X024080Y015260D01*
X023920Y015260D01*
X023766Y015328D02*
X021234Y015328D01*
X021227Y015321D02*
X021339Y015433D01*
X021400Y015580D01*
X021400Y015740D01*
X021339Y015887D01*
X021227Y015999D01*
X021080Y016060D01*
X020920Y016060D01*
X020773Y015999D01*
X020661Y015887D01*
X020600Y015740D01*
X020600Y015580D01*
X020661Y015433D01*
X020773Y015321D01*
X020920Y015260D01*
X021080Y015260D01*
X021227Y015321D01*
X021345Y015447D02*
X023655Y015447D01*
X023606Y015565D02*
X021394Y015565D01*
X021400Y015684D02*
X023600Y015684D01*
X023626Y015802D02*
X021374Y015802D01*
X021305Y015921D02*
X023695Y015921D01*
X023870Y016039D02*
X021130Y016039D01*
X021080Y016260D02*
X021227Y016321D01*
X021339Y016433D01*
X021400Y016580D01*
X021400Y016740D01*
X021339Y016887D01*
X021227Y016999D01*
X021080Y017060D01*
X020920Y017060D01*
X020773Y016999D01*
X020661Y016887D01*
X020600Y016740D01*
X020600Y016580D01*
X020661Y016433D01*
X020773Y016321D01*
X020920Y016260D01*
X021080Y016260D01*
X021118Y016276D02*
X023882Y016276D01*
X023920Y016260D02*
X024080Y016260D01*
X024227Y016321D01*
X024339Y016433D01*
X024400Y016580D01*
X024400Y016740D01*
X024339Y016887D01*
X024227Y016999D01*
X024080Y017060D01*
X023920Y017060D01*
X023773Y016999D01*
X023661Y016887D01*
X023600Y016740D01*
X023600Y016580D01*
X023661Y016433D01*
X023773Y016321D01*
X023920Y016260D01*
X024118Y016276D02*
X029882Y016276D01*
X029920Y016260D02*
X029773Y016321D01*
X029661Y016433D01*
X029600Y016580D01*
X029600Y016740D01*
X029661Y016887D01*
X029773Y016999D01*
X029920Y017060D01*
X030080Y017060D01*
X030227Y016999D01*
X030339Y016887D01*
X030400Y016740D01*
X030400Y016580D01*
X030339Y016433D01*
X030227Y016321D01*
X030080Y016260D01*
X029920Y016260D01*
X030118Y016276D02*
X032882Y016276D01*
X032920Y016260D02*
X033080Y016260D01*
X033227Y016321D01*
X033339Y016433D01*
X033400Y016580D01*
X033400Y016740D01*
X033339Y016887D01*
X033227Y016999D01*
X033080Y017060D01*
X032920Y017060D01*
X032773Y016999D01*
X032661Y016887D01*
X032600Y016740D01*
X032600Y016580D01*
X032661Y016433D01*
X032773Y016321D01*
X032920Y016260D01*
X033118Y016276D02*
X038882Y016276D01*
X038920Y016260D02*
X039080Y016260D01*
X039227Y016321D01*
X039339Y016433D01*
X039400Y016580D01*
X039400Y016740D01*
X039339Y016887D01*
X039227Y016999D01*
X039080Y017060D01*
X038920Y017060D01*
X038773Y016999D01*
X038661Y016887D01*
X038600Y016740D01*
X038600Y016580D01*
X038661Y016433D01*
X038773Y016321D01*
X038920Y016260D01*
X039118Y016276D02*
X041882Y016276D01*
X041920Y016260D02*
X042080Y016260D01*
X042227Y016321D01*
X042339Y016433D01*
X042400Y016580D01*
X042400Y016740D01*
X042339Y016887D01*
X042227Y016999D01*
X042080Y017060D01*
X041920Y017060D01*
X041773Y016999D01*
X041661Y016887D01*
X041600Y016740D01*
X041600Y016580D01*
X041661Y016433D01*
X041773Y016321D01*
X041920Y016260D01*
X042118Y016276D02*
X047882Y016276D01*
X047920Y016260D02*
X048080Y016260D01*
X048227Y016321D01*
X048339Y016433D01*
X048400Y016580D01*
X048400Y016740D01*
X048339Y016887D01*
X048227Y016999D01*
X048080Y017060D01*
X047920Y017060D01*
X047773Y016999D01*
X047661Y016887D01*
X047600Y016740D01*
X047600Y016580D01*
X047661Y016433D01*
X047773Y016321D01*
X047920Y016260D01*
X048118Y016276D02*
X050500Y016276D01*
X050500Y016158D02*
X011044Y016158D01*
X011043Y016276D02*
X014882Y016276D01*
X014920Y016260D02*
X015080Y016260D01*
X015227Y016321D01*
X015339Y016433D01*
X015400Y016580D01*
X015400Y016740D01*
X015339Y016887D01*
X015227Y016999D01*
X015080Y017060D01*
X014920Y017060D01*
X014773Y016999D01*
X014661Y016887D01*
X014600Y016740D01*
X014600Y016580D01*
X014661Y016433D01*
X014773Y016321D01*
X014920Y016260D01*
X015118Y016276D02*
X020882Y016276D01*
X020700Y016395D02*
X015300Y016395D01*
X015372Y016513D02*
X020628Y016513D01*
X020600Y016632D02*
X015400Y016632D01*
X015396Y016750D02*
X020604Y016750D01*
X020653Y016869D02*
X015347Y016869D01*
X015239Y016987D02*
X020761Y016987D01*
X020920Y017260D02*
X021080Y017260D01*
X021227Y017321D01*
X021339Y017433D01*
X021400Y017580D01*
X021400Y017740D01*
X021339Y017887D01*
X021227Y017999D01*
X021080Y018060D01*
X020920Y018060D01*
X020773Y017999D01*
X020661Y017887D01*
X020600Y017740D01*
X020600Y017580D01*
X020661Y017433D01*
X020773Y017321D01*
X020920Y017260D01*
X020752Y017343D02*
X015248Y017343D01*
X015227Y017321D02*
X015339Y017433D01*
X015400Y017580D01*
X015400Y017740D01*
X015339Y017887D01*
X015227Y017999D01*
X015080Y018060D01*
X014920Y018060D01*
X014773Y017999D01*
X014661Y017887D01*
X014600Y017740D01*
X014600Y017580D01*
X014661Y017433D01*
X014773Y017321D01*
X014920Y017260D01*
X015080Y017260D01*
X015227Y017321D01*
X015351Y017461D02*
X020649Y017461D01*
X020600Y017580D02*
X015400Y017580D01*
X015400Y017698D02*
X020600Y017698D01*
X020632Y017817D02*
X015368Y017817D01*
X015291Y017935D02*
X020709Y017935D01*
X020905Y018054D02*
X015095Y018054D01*
X014905Y018054D02*
X009270Y018054D01*
X009259Y018080D02*
X009175Y018164D01*
X009065Y018210D01*
X008945Y018210D01*
X008835Y018164D01*
X008751Y018080D01*
X008705Y017970D01*
X008705Y017850D01*
X008751Y017740D01*
X008835Y017656D01*
X008945Y017610D01*
X009065Y017610D01*
X009175Y017656D01*
X009259Y017740D01*
X009305Y017850D01*
X009305Y017970D01*
X009259Y018080D01*
X009156Y018172D02*
X050500Y018172D01*
X050500Y018054D02*
X048095Y018054D01*
X048080Y018060D02*
X047920Y018060D01*
X047773Y017999D01*
X047661Y017887D01*
X047600Y017740D01*
X047600Y017580D01*
X047661Y017433D01*
X047773Y017321D01*
X047920Y017260D01*
X048080Y017260D01*
X048227Y017321D01*
X048339Y017433D01*
X048400Y017580D01*
X048400Y017740D01*
X048339Y017887D01*
X048227Y017999D01*
X048080Y018060D01*
X047905Y018054D02*
X042095Y018054D01*
X042080Y018060D02*
X041920Y018060D01*
X041773Y017999D01*
X041661Y017887D01*
X041600Y017740D01*
X041600Y017580D01*
X041661Y017433D01*
X041773Y017321D01*
X041920Y017260D01*
X042080Y017260D01*
X042227Y017321D01*
X042339Y017433D01*
X042400Y017580D01*
X042400Y017740D01*
X042339Y017887D01*
X042227Y017999D01*
X042080Y018060D01*
X041905Y018054D02*
X039095Y018054D01*
X039080Y018060D02*
X038920Y018060D01*
X038773Y017999D01*
X038661Y017887D01*
X038600Y017740D01*
X038600Y017580D01*
X038661Y017433D01*
X038773Y017321D01*
X038920Y017260D01*
X039080Y017260D01*
X039227Y017321D01*
X039339Y017433D01*
X039400Y017580D01*
X039400Y017740D01*
X039339Y017887D01*
X039227Y017999D01*
X039080Y018060D01*
X038905Y018054D02*
X033095Y018054D01*
X033080Y018060D02*
X032920Y018060D01*
X032773Y017999D01*
X032661Y017887D01*
X032600Y017740D01*
X032600Y017580D01*
X032661Y017433D01*
X032773Y017321D01*
X032920Y017260D01*
X033080Y017260D01*
X033227Y017321D01*
X033339Y017433D01*
X033400Y017580D01*
X033400Y017740D01*
X033339Y017887D01*
X033227Y017999D01*
X033080Y018060D01*
X032905Y018054D02*
X030095Y018054D01*
X030080Y018060D02*
X029920Y018060D01*
X029773Y017999D01*
X029661Y017887D01*
X029600Y017740D01*
X029600Y017580D01*
X029661Y017433D01*
X029773Y017321D01*
X029920Y017260D01*
X030080Y017260D01*
X030227Y017321D01*
X030339Y017433D01*
X030400Y017580D01*
X030400Y017740D01*
X030339Y017887D01*
X030227Y017999D01*
X030080Y018060D01*
X029905Y018054D02*
X024095Y018054D01*
X024080Y018060D02*
X023920Y018060D01*
X023773Y017999D01*
X023661Y017887D01*
X023600Y017740D01*
X023600Y017580D01*
X023661Y017433D01*
X023773Y017321D01*
X023920Y017260D01*
X024080Y017260D01*
X024227Y017321D01*
X024339Y017433D01*
X024400Y017580D01*
X024400Y017740D01*
X024339Y017887D01*
X024227Y017999D01*
X024080Y018060D01*
X023905Y018054D02*
X021095Y018054D01*
X021080Y018260D02*
X021227Y018321D01*
X021339Y018433D01*
X021400Y018580D01*
X021400Y018740D01*
X021339Y018887D01*
X021227Y018999D01*
X021080Y019060D01*
X020920Y019060D01*
X020773Y018999D01*
X020661Y018887D01*
X020600Y018740D01*
X020600Y018580D01*
X020661Y018433D01*
X020773Y018321D01*
X020920Y018260D01*
X021080Y018260D01*
X021153Y018291D02*
X023847Y018291D01*
X023773Y018321D02*
X023920Y018260D01*
X024080Y018260D01*
X024227Y018321D01*
X024339Y018433D01*
X024400Y018580D01*
X024400Y018740D01*
X024339Y018887D01*
X024227Y018999D01*
X024080Y019060D01*
X023920Y019060D01*
X023773Y018999D01*
X023661Y018887D01*
X023600Y018740D01*
X023600Y018580D01*
X023661Y018433D01*
X023773Y018321D01*
X023685Y018409D02*
X021315Y018409D01*
X021378Y018528D02*
X023622Y018528D01*
X023600Y018646D02*
X021400Y018646D01*
X021390Y018765D02*
X023610Y018765D01*
X023659Y018883D02*
X021341Y018883D01*
X021221Y019002D02*
X023779Y019002D01*
X023920Y019260D02*
X023773Y019321D01*
X023661Y019433D01*
X023600Y019580D01*
X023600Y019740D01*
X023661Y019887D01*
X023773Y019999D01*
X023920Y020060D01*
X024080Y020060D01*
X024227Y019999D01*
X024339Y019887D01*
X024400Y019740D01*
X024400Y019580D01*
X024339Y019433D01*
X024227Y019321D01*
X024080Y019260D01*
X023920Y019260D01*
X023737Y019357D02*
X021263Y019357D01*
X021227Y019321D02*
X021339Y019433D01*
X021400Y019580D01*
X021400Y019740D01*
X021339Y019887D01*
X021227Y019999D01*
X021080Y020060D01*
X020920Y020060D01*
X020773Y019999D01*
X020661Y019887D01*
X020600Y019740D01*
X020600Y019580D01*
X020661Y019433D01*
X020773Y019321D01*
X020920Y019260D01*
X021080Y019260D01*
X021227Y019321D01*
X021357Y019476D02*
X023643Y019476D01*
X023600Y019594D02*
X021400Y019594D01*
X021400Y019713D02*
X023600Y019713D01*
X023638Y019831D02*
X021362Y019831D01*
X021276Y019950D02*
X023724Y019950D01*
X023812Y020305D02*
X021188Y020305D01*
X021227Y020321D02*
X021339Y020433D01*
X021400Y020580D01*
X021400Y020740D01*
X021339Y020887D01*
X021227Y020999D01*
X021080Y021060D01*
X020920Y021060D01*
X020773Y020999D01*
X020661Y020887D01*
X020600Y020740D01*
X020600Y020580D01*
X020661Y020433D01*
X020773Y020321D01*
X020920Y020260D01*
X021080Y020260D01*
X021227Y020321D01*
X021329Y020424D02*
X023671Y020424D01*
X023661Y020433D02*
X023773Y020321D01*
X023920Y020260D01*
X024080Y020260D01*
X024227Y020321D01*
X024339Y020433D01*
X024400Y020580D01*
X024400Y020740D01*
X024339Y020887D01*
X024227Y020999D01*
X024080Y021060D01*
X023920Y021060D01*
X023773Y020999D01*
X023661Y020887D01*
X023600Y020740D01*
X023600Y020580D01*
X023661Y020433D01*
X023616Y020542D02*
X021384Y020542D01*
X021400Y020661D02*
X023600Y020661D01*
X023616Y020779D02*
X021384Y020779D01*
X021328Y020898D02*
X023672Y020898D01*
X023814Y021016D02*
X021186Y021016D01*
X021080Y021260D02*
X021227Y021321D01*
X021339Y021433D01*
X021400Y021580D01*
X021400Y021740D01*
X021339Y021887D01*
X021227Y021999D01*
X021080Y022060D01*
X020920Y022060D01*
X020773Y021999D01*
X020661Y021887D01*
X020600Y021740D01*
X020600Y021580D01*
X020661Y021433D01*
X020773Y021321D01*
X020920Y021260D01*
X021080Y021260D01*
X021277Y021372D02*
X023723Y021372D01*
X023773Y021321D02*
X023920Y021260D01*
X024080Y021260D01*
X024227Y021321D01*
X024339Y021433D01*
X024400Y021580D01*
X024400Y021740D01*
X024339Y021887D01*
X024227Y021999D01*
X024080Y022060D01*
X023920Y022060D01*
X023773Y021999D01*
X023661Y021887D01*
X023600Y021740D01*
X023600Y021580D01*
X023661Y021433D01*
X023773Y021321D01*
X023637Y021490D02*
X021363Y021490D01*
X021400Y021609D02*
X023600Y021609D01*
X023600Y021727D02*
X021400Y021727D01*
X021356Y021846D02*
X023644Y021846D01*
X023738Y021964D02*
X021262Y021964D01*
X021080Y022260D02*
X021227Y022321D01*
X021339Y022433D01*
X021400Y022580D01*
X021400Y022740D01*
X021339Y022887D01*
X021227Y022999D01*
X021080Y023060D01*
X020920Y023060D01*
X020773Y022999D01*
X020661Y022887D01*
X020600Y022740D01*
X020600Y022580D01*
X020661Y022433D01*
X020773Y022321D01*
X020920Y022260D01*
X021080Y022260D01*
X021223Y022320D02*
X023777Y022320D01*
X023773Y022321D02*
X023920Y022260D01*
X024080Y022260D01*
X024227Y022321D01*
X024339Y022433D01*
X024400Y022580D01*
X024400Y022740D01*
X024339Y022887D01*
X024227Y022999D01*
X024080Y023060D01*
X023920Y023060D01*
X023773Y022999D01*
X023661Y022887D01*
X023600Y022740D01*
X023600Y022580D01*
X023661Y022433D01*
X023773Y022321D01*
X023659Y022438D02*
X021341Y022438D01*
X021390Y022557D02*
X023610Y022557D01*
X023600Y022675D02*
X021400Y022675D01*
X021378Y022794D02*
X023622Y022794D01*
X023686Y022912D02*
X021314Y022912D01*
X021151Y023031D02*
X023849Y023031D01*
X023920Y023260D02*
X023773Y023321D01*
X023661Y023433D01*
X023600Y023580D01*
X023600Y023740D01*
X023661Y023887D01*
X023773Y023999D01*
X023920Y024060D01*
X024080Y024060D01*
X024227Y023999D01*
X024339Y023887D01*
X024400Y023740D01*
X024400Y023580D01*
X024339Y023433D01*
X024227Y023321D01*
X024080Y023260D01*
X023920Y023260D01*
X023902Y023268D02*
X021098Y023268D01*
X021080Y023260D02*
X021227Y023321D01*
X021339Y023433D01*
X021400Y023580D01*
X021400Y023740D01*
X021339Y023887D01*
X021227Y023999D01*
X021080Y024060D01*
X020920Y024060D01*
X020773Y023999D01*
X020661Y023887D01*
X020600Y023740D01*
X020600Y023580D01*
X020661Y023433D01*
X020773Y023321D01*
X020920Y023260D01*
X021080Y023260D01*
X020902Y023268D02*
X015098Y023268D01*
X015080Y023260D02*
X015227Y023321D01*
X015339Y023433D01*
X015400Y023580D01*
X015400Y023740D01*
X015339Y023887D01*
X015227Y023999D01*
X015080Y024060D01*
X014920Y024060D01*
X014773Y023999D01*
X014661Y023887D01*
X014600Y023740D01*
X014600Y023580D01*
X014661Y023433D01*
X014773Y023321D01*
X014920Y023260D01*
X015080Y023260D01*
X014902Y023268D02*
X000500Y023268D01*
X000500Y023386D02*
X014708Y023386D01*
X014631Y023505D02*
X000500Y023505D01*
X000500Y023623D02*
X014600Y023623D01*
X014601Y023742D02*
X011848Y023742D01*
X011831Y023725D02*
X011916Y023809D01*
X011961Y023919D01*
X011961Y024039D01*
X011916Y024149D01*
X011831Y024233D01*
X011721Y024279D01*
X011602Y024279D01*
X011491Y024233D01*
X011407Y024149D01*
X011361Y024039D01*
X011361Y023919D01*
X011407Y023809D01*
X011491Y023725D01*
X011602Y023679D01*
X011721Y023679D01*
X011831Y023725D01*
X011937Y023860D02*
X014650Y023860D01*
X014753Y023979D02*
X011961Y023979D01*
X011937Y024097D02*
X050500Y024097D01*
X050500Y023979D02*
X048247Y023979D01*
X048227Y023999D02*
X048080Y024060D01*
X047920Y024060D01*
X047773Y023999D01*
X047661Y023887D01*
X047600Y023740D01*
X047600Y023580D01*
X047661Y023433D01*
X047773Y023321D01*
X047920Y023260D01*
X048080Y023260D01*
X048227Y023321D01*
X048339Y023433D01*
X048400Y023580D01*
X048400Y023740D01*
X048339Y023887D01*
X048227Y023999D01*
X048350Y023860D02*
X050500Y023860D01*
X050500Y023742D02*
X048399Y023742D01*
X048400Y023623D02*
X050500Y023623D01*
X050500Y023505D02*
X048369Y023505D01*
X048292Y023386D02*
X050500Y023386D01*
X050500Y023268D02*
X048098Y023268D01*
X047902Y023268D02*
X042098Y023268D01*
X042080Y023260D02*
X042227Y023321D01*
X042339Y023433D01*
X042400Y023580D01*
X042400Y023740D01*
X042339Y023887D01*
X042227Y023999D01*
X042080Y024060D01*
X041920Y024060D01*
X041773Y023999D01*
X041661Y023887D01*
X041600Y023740D01*
X041600Y023580D01*
X041661Y023433D01*
X041773Y023321D01*
X041920Y023260D01*
X042080Y023260D01*
X041902Y023268D02*
X039098Y023268D01*
X039080Y023260D02*
X039227Y023321D01*
X039339Y023433D01*
X039400Y023580D01*
X039400Y023740D01*
X039339Y023887D01*
X039227Y023999D01*
X039080Y024060D01*
X038920Y024060D01*
X038773Y023999D01*
X038661Y023887D01*
X038600Y023740D01*
X038600Y023580D01*
X038661Y023433D01*
X038773Y023321D01*
X038920Y023260D01*
X039080Y023260D01*
X038902Y023268D02*
X033098Y023268D01*
X033080Y023260D02*
X033227Y023321D01*
X033339Y023433D01*
X033400Y023580D01*
X033400Y023740D01*
X033339Y023887D01*
X033227Y023999D01*
X033080Y024060D01*
X032920Y024060D01*
X032773Y023999D01*
X032661Y023887D01*
X032600Y023740D01*
X032600Y023580D01*
X032661Y023433D01*
X032773Y023321D01*
X032920Y023260D01*
X033080Y023260D01*
X032902Y023268D02*
X030098Y023268D01*
X030080Y023260D02*
X030227Y023321D01*
X030339Y023433D01*
X030400Y023580D01*
X030400Y023740D01*
X030339Y023887D01*
X030227Y023999D01*
X030080Y024060D01*
X029920Y024060D01*
X029773Y023999D01*
X029661Y023887D01*
X029600Y023740D01*
X029600Y023580D01*
X029661Y023433D01*
X029773Y023321D01*
X029920Y023260D01*
X030080Y023260D01*
X029902Y023268D02*
X024098Y023268D01*
X024292Y023386D02*
X029708Y023386D01*
X029631Y023505D02*
X024369Y023505D01*
X024400Y023623D02*
X029600Y023623D01*
X029601Y023742D02*
X024399Y023742D01*
X024350Y023860D02*
X029650Y023860D01*
X029753Y023979D02*
X024247Y023979D01*
X024080Y024260D02*
X024227Y024321D01*
X024339Y024433D01*
X024400Y024580D01*
X024400Y024740D01*
X024339Y024887D01*
X024227Y024999D01*
X024080Y025060D01*
X023920Y025060D01*
X023773Y024999D01*
X023661Y024887D01*
X023600Y024740D01*
X023600Y024580D01*
X023661Y024433D01*
X023773Y024321D01*
X023920Y024260D01*
X024080Y024260D01*
X024240Y024334D02*
X029760Y024334D01*
X029773Y024321D02*
X029920Y024260D01*
X030080Y024260D01*
X030227Y024321D01*
X030339Y024433D01*
X030400Y024580D01*
X030400Y024740D01*
X030339Y024887D01*
X030227Y024999D01*
X030080Y025060D01*
X029920Y025060D01*
X029773Y024999D01*
X029661Y024887D01*
X029600Y024740D01*
X029600Y024580D01*
X029661Y024433D01*
X029773Y024321D01*
X029653Y024453D02*
X024347Y024453D01*
X024396Y024571D02*
X029604Y024571D01*
X029600Y024690D02*
X024400Y024690D01*
X024372Y024808D02*
X029628Y024808D01*
X029701Y024927D02*
X024299Y024927D01*
X024116Y025045D02*
X029884Y025045D01*
X029920Y025260D02*
X029773Y025321D01*
X029661Y025433D01*
X029600Y025580D01*
X029600Y025740D01*
X029661Y025887D01*
X029773Y025999D01*
X029920Y026060D01*
X030080Y026060D01*
X030227Y025999D01*
X030339Y025887D01*
X030400Y025740D01*
X030400Y025580D01*
X030339Y025433D01*
X030227Y025321D01*
X030080Y025260D01*
X029920Y025260D01*
X029867Y025282D02*
X024133Y025282D01*
X024080Y025260D02*
X024227Y025321D01*
X024339Y025433D01*
X024400Y025580D01*
X024400Y025740D01*
X024339Y025887D01*
X024227Y025999D01*
X024080Y026060D01*
X023920Y026060D01*
X023773Y025999D01*
X023661Y025887D01*
X023600Y025740D01*
X023600Y025580D01*
X023661Y025433D01*
X023773Y025321D01*
X023920Y025260D01*
X024080Y025260D01*
X023867Y025282D02*
X021133Y025282D01*
X021080Y025260D02*
X021227Y025321D01*
X021339Y025433D01*
X021400Y025580D01*
X021400Y025740D01*
X021339Y025887D01*
X021227Y025999D01*
X021080Y026060D01*
X020920Y026060D01*
X020773Y025999D01*
X020661Y025887D01*
X020600Y025740D01*
X020600Y025580D01*
X020661Y025433D01*
X020773Y025321D01*
X020920Y025260D01*
X021080Y025260D01*
X021033Y025080D02*
X021020Y025080D01*
X021020Y024680D01*
X020980Y024680D01*
X020980Y025080D01*
X020967Y025080D01*
X020902Y025070D01*
X020839Y025049D01*
X020780Y025019D01*
X020726Y024980D01*
X020680Y024934D01*
X020641Y024880D01*
X020611Y024821D01*
X020590Y024758D01*
X020580Y024693D01*
X020580Y024680D01*
X020980Y024680D01*
X020980Y024640D01*
X020580Y024640D01*
X020580Y024627D01*
X020590Y024562D01*
X020611Y024499D01*
X020641Y024440D01*
X020680Y024386D01*
X020726Y024340D01*
X020780Y024301D01*
X020839Y024271D01*
X020902Y024250D01*
X020967Y024240D01*
X020980Y024240D01*
X020980Y024640D01*
X021020Y024640D01*
X021020Y024680D01*
X021420Y024680D01*
X021420Y024693D01*
X021410Y024758D01*
X021389Y024821D01*
X021359Y024880D01*
X021320Y024934D01*
X021274Y024980D01*
X021220Y025019D01*
X021161Y025049D01*
X021098Y025070D01*
X021033Y025080D01*
X021020Y025045D02*
X020980Y025045D01*
X020980Y024927D02*
X021020Y024927D01*
X021020Y024808D02*
X020980Y024808D01*
X020980Y024690D02*
X021020Y024690D01*
X021020Y024640D02*
X021420Y024640D01*
X021420Y024627D01*
X021410Y024562D01*
X021389Y024499D01*
X021359Y024440D01*
X021320Y024386D01*
X021274Y024340D01*
X021220Y024301D01*
X021161Y024271D01*
X021098Y024250D01*
X021033Y024240D01*
X021020Y024240D01*
X021020Y024640D01*
X021020Y024571D02*
X020980Y024571D01*
X020980Y024453D02*
X021020Y024453D01*
X021020Y024334D02*
X020980Y024334D01*
X020734Y024334D02*
X015240Y024334D01*
X015227Y024321D02*
X015339Y024433D01*
X015400Y024580D01*
X015400Y024740D01*
X015339Y024887D01*
X015227Y024999D01*
X015080Y025060D01*
X014920Y025060D01*
X014773Y024999D01*
X014661Y024887D01*
X014600Y024740D01*
X014600Y024580D01*
X014661Y024433D01*
X014773Y024321D01*
X014920Y024260D01*
X015080Y024260D01*
X015227Y024321D01*
X015347Y024453D02*
X020634Y024453D01*
X020589Y024571D02*
X015396Y024571D01*
X015400Y024690D02*
X020580Y024690D01*
X020606Y024808D02*
X015372Y024808D01*
X015299Y024927D02*
X020675Y024927D01*
X020831Y025045D02*
X015116Y025045D01*
X015080Y025260D02*
X015227Y025321D01*
X015339Y025433D01*
X015400Y025580D01*
X015400Y025740D01*
X015339Y025887D01*
X015227Y025999D01*
X015080Y026060D01*
X014920Y026060D01*
X014773Y025999D01*
X014661Y025887D01*
X014600Y025740D01*
X014600Y025580D01*
X014661Y025433D01*
X014773Y025321D01*
X014920Y025260D01*
X015080Y025260D01*
X015133Y025282D02*
X020867Y025282D01*
X020694Y025401D02*
X017283Y025401D01*
X017295Y025406D02*
X017379Y025490D01*
X017425Y025600D01*
X017425Y025720D01*
X017379Y025830D01*
X017295Y025914D01*
X017185Y025960D01*
X017065Y025960D01*
X016955Y025914D01*
X016871Y025830D01*
X016825Y025720D01*
X016825Y025600D01*
X016871Y025490D01*
X016955Y025406D01*
X017065Y025360D01*
X017185Y025360D01*
X017295Y025406D01*
X017391Y025519D02*
X020625Y025519D01*
X020600Y025638D02*
X017425Y025638D01*
X017410Y025756D02*
X020607Y025756D01*
X020656Y025875D02*
X017335Y025875D01*
X016915Y025875D02*
X015344Y025875D01*
X015393Y025756D02*
X016840Y025756D01*
X016825Y025638D02*
X015400Y025638D01*
X015375Y025519D02*
X016859Y025519D01*
X016967Y025401D02*
X015306Y025401D01*
X014867Y025282D02*
X000500Y025282D01*
X000500Y025164D02*
X050500Y025164D01*
X050500Y025282D02*
X048133Y025282D01*
X048080Y025260D02*
X048227Y025321D01*
X048339Y025433D01*
X048400Y025580D01*
X048400Y025740D01*
X048339Y025887D01*
X048227Y025999D01*
X048080Y026060D01*
X047920Y026060D01*
X047773Y025999D01*
X047661Y025887D01*
X047600Y025740D01*
X047600Y025580D01*
X047661Y025433D01*
X047773Y025321D01*
X047920Y025260D01*
X048080Y025260D01*
X048080Y025060D02*
X047920Y025060D01*
X047773Y024999D01*
X047661Y024887D01*
X047600Y024740D01*
X047600Y024580D01*
X047661Y024433D01*
X047773Y024321D01*
X047920Y024260D01*
X048080Y024260D01*
X048227Y024321D01*
X048339Y024433D01*
X048400Y024580D01*
X048400Y024740D01*
X048339Y024887D01*
X048227Y024999D01*
X048080Y025060D01*
X048116Y025045D02*
X050500Y025045D01*
X050500Y024927D02*
X048299Y024927D01*
X048372Y024808D02*
X050500Y024808D01*
X050500Y024690D02*
X048400Y024690D01*
X048396Y024571D02*
X050500Y024571D01*
X050500Y024453D02*
X048347Y024453D01*
X048240Y024334D02*
X050500Y024334D01*
X050500Y024216D02*
X011849Y024216D01*
X011474Y024216D02*
X003503Y024216D01*
X003485Y024233D02*
X003375Y024279D01*
X003255Y024279D01*
X003145Y024233D01*
X003061Y024149D01*
X003015Y024039D01*
X003015Y023919D01*
X003061Y023809D01*
X003145Y023725D01*
X003255Y023679D01*
X003375Y023679D01*
X003485Y023725D01*
X003569Y023809D01*
X003615Y023919D01*
X003615Y024039D01*
X003569Y024149D01*
X003485Y024233D01*
X003591Y024097D02*
X011386Y024097D01*
X011361Y023979D02*
X003615Y023979D01*
X003590Y023860D02*
X011386Y023860D01*
X011475Y023742D02*
X003502Y023742D01*
X003128Y023742D02*
X000500Y023742D01*
X000500Y023860D02*
X003039Y023860D01*
X003015Y023979D02*
X000500Y023979D01*
X000500Y024097D02*
X003039Y024097D01*
X003127Y024216D02*
X000500Y024216D01*
X000500Y024334D02*
X014760Y024334D01*
X014653Y024453D02*
X000500Y024453D01*
X000500Y024571D02*
X014604Y024571D01*
X014600Y024690D02*
X000500Y024690D01*
X000500Y024808D02*
X014628Y024808D01*
X014701Y024927D02*
X000500Y024927D01*
X000500Y025045D02*
X014884Y025045D01*
X014694Y025401D02*
X000500Y025401D01*
X000500Y025519D02*
X014625Y025519D01*
X014600Y025638D02*
X000500Y025638D01*
X000500Y025756D02*
X014607Y025756D01*
X014656Y025875D02*
X000500Y025875D01*
X000500Y025993D02*
X014767Y025993D01*
X014839Y026271D02*
X014902Y026250D01*
X014967Y026240D01*
X014980Y026240D01*
X014980Y026640D01*
X014580Y026640D01*
X014580Y026627D01*
X014590Y026562D01*
X014611Y026499D01*
X014641Y026440D01*
X014680Y026386D01*
X014726Y026340D01*
X014780Y026301D01*
X014839Y026271D01*
X014717Y026349D02*
X000500Y026349D01*
X000500Y026467D02*
X014627Y026467D01*
X014587Y026586D02*
X000500Y026586D01*
X000500Y026704D02*
X014582Y026704D01*
X014580Y026693D02*
X014580Y026680D01*
X014980Y026680D01*
X014980Y027080D01*
X014967Y027080D01*
X014902Y027070D01*
X014839Y027049D01*
X014780Y027019D01*
X014726Y026980D01*
X014680Y026934D01*
X014641Y026880D01*
X014611Y026821D01*
X014590Y026758D01*
X014580Y026693D01*
X014611Y026823D02*
X000500Y026823D01*
X000500Y026941D02*
X014687Y026941D01*
X014871Y027060D02*
X000500Y027060D01*
X000500Y027178D02*
X001146Y027178D01*
X000916Y027297D02*
X000500Y027297D01*
X000500Y027415D02*
X000774Y027415D01*
X000661Y027534D02*
X000500Y027534D01*
X000500Y027652D02*
X000592Y027652D01*
X000528Y027771D02*
X000500Y027771D01*
X001854Y027178D02*
X049146Y027178D01*
X048916Y027297D02*
X002084Y027297D01*
X002226Y027415D02*
X048774Y027415D01*
X048661Y027534D02*
X002339Y027534D01*
X002408Y027652D02*
X048592Y027652D01*
X048528Y027771D02*
X002472Y027771D01*
X002504Y027889D02*
X048496Y027889D01*
X048464Y028008D02*
X002536Y028008D01*
X002540Y028126D02*
X048460Y028126D01*
X048460Y028245D02*
X002540Y028245D01*
X002522Y028363D02*
X048478Y028363D01*
X048509Y028482D02*
X002491Y028482D01*
X002447Y028600D02*
X048553Y028600D01*
X048622Y028719D02*
X002378Y028719D01*
X002294Y028837D02*
X048706Y028837D01*
X048825Y028956D02*
X002175Y028956D01*
X001997Y029074D02*
X049003Y029074D01*
X050472Y027771D02*
X050500Y027771D01*
X050500Y027652D02*
X050408Y027652D01*
X050339Y027534D02*
X050500Y027534D01*
X050500Y027415D02*
X050226Y027415D01*
X050084Y027297D02*
X050500Y027297D01*
X050500Y027178D02*
X049854Y027178D01*
X050500Y027060D02*
X048081Y027060D01*
X048080Y027060D02*
X047920Y027060D01*
X047773Y026999D01*
X047661Y026887D01*
X047600Y026740D01*
X047600Y026580D01*
X047661Y026433D01*
X047773Y026321D01*
X047920Y026260D01*
X048080Y026260D01*
X048227Y026321D01*
X048339Y026433D01*
X048400Y026580D01*
X048400Y026740D01*
X048339Y026887D01*
X048227Y026999D01*
X048080Y027060D01*
X047919Y027060D02*
X042081Y027060D01*
X042080Y027060D02*
X041920Y027060D01*
X041773Y026999D01*
X041661Y026887D01*
X041600Y026740D01*
X041600Y026580D01*
X041661Y026433D01*
X041773Y026321D01*
X041920Y026260D01*
X042080Y026260D01*
X042227Y026321D01*
X042339Y026433D01*
X042400Y026580D01*
X042400Y026740D01*
X042339Y026887D01*
X042227Y026999D01*
X042080Y027060D01*
X041919Y027060D02*
X039081Y027060D01*
X039080Y027060D02*
X038920Y027060D01*
X038773Y026999D01*
X038661Y026887D01*
X038600Y026740D01*
X038600Y026580D01*
X038661Y026433D01*
X038773Y026321D01*
X038920Y026260D01*
X039080Y026260D01*
X039227Y026321D01*
X039339Y026433D01*
X039400Y026580D01*
X039400Y026740D01*
X039339Y026887D01*
X039227Y026999D01*
X039080Y027060D01*
X038919Y027060D02*
X033081Y027060D01*
X033080Y027060D02*
X032920Y027060D01*
X032773Y026999D01*
X032661Y026887D01*
X032600Y026740D01*
X032600Y026580D01*
X032661Y026433D01*
X032773Y026321D01*
X032920Y026260D01*
X033080Y026260D01*
X033227Y026321D01*
X033339Y026433D01*
X033400Y026580D01*
X033400Y026740D01*
X033339Y026887D01*
X033227Y026999D01*
X033080Y027060D01*
X032919Y027060D02*
X030081Y027060D01*
X030080Y027060D02*
X029920Y027060D01*
X029773Y026999D01*
X029661Y026887D01*
X029600Y026740D01*
X029600Y026580D01*
X029661Y026433D01*
X029773Y026321D01*
X029920Y026260D01*
X030080Y026260D01*
X030227Y026321D01*
X030339Y026433D01*
X030400Y026580D01*
X030400Y026740D01*
X030339Y026887D01*
X030227Y026999D01*
X030080Y027060D01*
X029919Y027060D02*
X024129Y027060D01*
X024098Y027070D02*
X024033Y027080D01*
X024020Y027080D01*
X024020Y026680D01*
X023980Y026680D01*
X023980Y027080D01*
X023967Y027080D01*
X023902Y027070D01*
X023839Y027049D01*
X023780Y027019D01*
X023726Y026980D01*
X023680Y026934D01*
X023641Y026880D01*
X023611Y026821D01*
X023590Y026758D01*
X023580Y026693D01*
X023580Y026680D01*
X023980Y026680D01*
X023980Y026640D01*
X023580Y026640D01*
X023580Y026627D01*
X023590Y026562D01*
X023611Y026499D01*
X023641Y026440D01*
X023680Y026386D01*
X023726Y026340D01*
X023780Y026301D01*
X023839Y026271D01*
X023902Y026250D01*
X023967Y026240D01*
X023980Y026240D01*
X023980Y026640D01*
X024020Y026640D01*
X024020Y026680D01*
X024420Y026680D01*
X024420Y026693D01*
X024410Y026758D01*
X024389Y026821D01*
X024359Y026880D01*
X024320Y026934D01*
X024274Y026980D01*
X024220Y027019D01*
X024161Y027049D01*
X024098Y027070D01*
X024020Y027060D02*
X023980Y027060D01*
X023871Y027060D02*
X021081Y027060D01*
X021080Y027060D02*
X020920Y027060D01*
X020773Y026999D01*
X020661Y026887D01*
X020600Y026740D01*
X020600Y026580D01*
X020661Y026433D01*
X020773Y026321D01*
X020920Y026260D01*
X021080Y026260D01*
X021227Y026321D01*
X021339Y026433D01*
X021400Y026580D01*
X021400Y026740D01*
X021339Y026887D01*
X021227Y026999D01*
X021080Y027060D01*
X020919Y027060D02*
X015129Y027060D01*
X015098Y027070D02*
X015033Y027080D01*
X015020Y027080D01*
X015020Y026680D01*
X014980Y026680D01*
X014980Y026640D01*
X015020Y026640D01*
X015020Y026680D01*
X015420Y026680D01*
X015420Y026693D01*
X015410Y026758D01*
X015389Y026821D01*
X015359Y026880D01*
X015320Y026934D01*
X015274Y026980D01*
X015220Y027019D01*
X015161Y027049D01*
X015098Y027070D01*
X015020Y027060D02*
X014980Y027060D01*
X014980Y026941D02*
X015020Y026941D01*
X015020Y026823D02*
X014980Y026823D01*
X014980Y026704D02*
X015020Y026704D01*
X015020Y026640D02*
X015420Y026640D01*
X015420Y026627D01*
X015410Y026562D01*
X015389Y026499D01*
X015359Y026440D01*
X015320Y026386D01*
X015274Y026340D01*
X015220Y026301D01*
X015161Y026271D01*
X015098Y026250D01*
X015033Y026240D01*
X015020Y026240D01*
X015020Y026640D01*
X015020Y026586D02*
X014980Y026586D01*
X014980Y026467D02*
X015020Y026467D01*
X015020Y026349D02*
X014980Y026349D01*
X015283Y026349D02*
X020746Y026349D01*
X020647Y026467D02*
X015373Y026467D01*
X015413Y026586D02*
X020600Y026586D01*
X020600Y026704D02*
X015418Y026704D01*
X015389Y026823D02*
X020634Y026823D01*
X020715Y026941D02*
X015313Y026941D01*
X015233Y025993D02*
X020767Y025993D01*
X021233Y025993D02*
X023767Y025993D01*
X023656Y025875D02*
X021344Y025875D01*
X021393Y025756D02*
X023607Y025756D01*
X023600Y025638D02*
X021400Y025638D01*
X021375Y025519D02*
X023625Y025519D01*
X023694Y025401D02*
X021306Y025401D01*
X021169Y025045D02*
X023884Y025045D01*
X023701Y024927D02*
X021325Y024927D01*
X021394Y024808D02*
X023628Y024808D01*
X023600Y024690D02*
X021420Y024690D01*
X021411Y024571D02*
X023604Y024571D01*
X023653Y024453D02*
X021366Y024453D01*
X021266Y024334D02*
X023760Y024334D01*
X023753Y023979D02*
X021247Y023979D01*
X021350Y023860D02*
X023650Y023860D01*
X023601Y023742D02*
X021399Y023742D01*
X021400Y023623D02*
X023600Y023623D01*
X023631Y023505D02*
X021369Y023505D01*
X021292Y023386D02*
X023708Y023386D01*
X024151Y023031D02*
X029849Y023031D01*
X029920Y023060D02*
X029773Y022999D01*
X029661Y022887D01*
X029600Y022740D01*
X029600Y022580D01*
X029661Y022433D01*
X029773Y022321D01*
X029920Y022260D01*
X030080Y022260D01*
X030227Y022321D01*
X030339Y022433D01*
X030400Y022580D01*
X030400Y022740D01*
X030339Y022887D01*
X030227Y022999D01*
X030080Y023060D01*
X029920Y023060D01*
X030151Y023031D02*
X032849Y023031D01*
X032920Y023060D02*
X032773Y022999D01*
X032661Y022887D01*
X032600Y022740D01*
X032600Y022580D01*
X032661Y022433D01*
X032773Y022321D01*
X032920Y022260D01*
X033080Y022260D01*
X033227Y022321D01*
X033339Y022433D01*
X033400Y022580D01*
X033400Y022740D01*
X033339Y022887D01*
X033227Y022999D01*
X033080Y023060D01*
X032920Y023060D01*
X033151Y023031D02*
X038849Y023031D01*
X038920Y023060D02*
X038773Y022999D01*
X038661Y022887D01*
X038600Y022740D01*
X038600Y022580D01*
X038661Y022433D01*
X038773Y022321D01*
X038920Y022260D01*
X039080Y022260D01*
X039227Y022321D01*
X039339Y022433D01*
X039400Y022580D01*
X039400Y022740D01*
X039339Y022887D01*
X039227Y022999D01*
X039080Y023060D01*
X038920Y023060D01*
X039151Y023031D02*
X041849Y023031D01*
X041920Y023060D02*
X041773Y022999D01*
X041661Y022887D01*
X041600Y022740D01*
X041600Y022580D01*
X041661Y022433D01*
X041773Y022321D01*
X041920Y022260D01*
X042080Y022260D01*
X042227Y022321D01*
X042339Y022433D01*
X042400Y022580D01*
X042400Y022740D01*
X042339Y022887D01*
X042227Y022999D01*
X042080Y023060D01*
X041920Y023060D01*
X042151Y023031D02*
X047849Y023031D01*
X047920Y023060D02*
X047773Y022999D01*
X047661Y022887D01*
X047600Y022740D01*
X047600Y022580D01*
X047661Y022433D01*
X047773Y022321D01*
X047920Y022260D01*
X048080Y022260D01*
X048227Y022321D01*
X048339Y022433D01*
X048400Y022580D01*
X048400Y022740D01*
X048339Y022887D01*
X048227Y022999D01*
X048080Y023060D01*
X047920Y023060D01*
X048151Y023031D02*
X050500Y023031D01*
X050500Y023149D02*
X000500Y023149D01*
X000500Y023031D02*
X006808Y023031D01*
X006830Y023052D02*
X006746Y022968D01*
X006700Y022857D01*
X006700Y022738D01*
X006746Y022628D01*
X006820Y022554D01*
X006820Y020085D01*
X006950Y019955D01*
X006950Y019850D01*
X006996Y019740D01*
X007080Y019656D01*
X007190Y019610D01*
X007310Y019610D01*
X007420Y019656D01*
X007500Y019736D01*
X007580Y019656D01*
X007690Y019610D01*
X007810Y019610D01*
X007920Y019656D01*
X008004Y019740D01*
X008050Y019850D01*
X008050Y019955D01*
X008180Y020085D01*
X008180Y022554D01*
X008254Y022628D01*
X008300Y022738D01*
X008300Y022857D01*
X008254Y022968D01*
X008170Y023052D01*
X008060Y023098D01*
X007940Y023098D01*
X007830Y023052D01*
X007746Y022968D01*
X007712Y022885D01*
X007670Y022927D01*
X007560Y022973D01*
X007440Y022973D01*
X007330Y022927D01*
X007288Y022885D01*
X007254Y022968D01*
X007170Y023052D01*
X007060Y023098D01*
X006940Y023098D01*
X006830Y023052D01*
X006723Y022912D02*
X000500Y022912D01*
X000500Y022794D02*
X006700Y022794D01*
X006726Y022675D02*
X000500Y022675D01*
X000500Y022557D02*
X006817Y022557D01*
X006820Y022438D02*
X000500Y022438D01*
X000500Y022320D02*
X006820Y022320D01*
X006820Y022201D02*
X000500Y022201D01*
X000500Y022083D02*
X006820Y022083D01*
X006820Y021964D02*
X000500Y021964D01*
X000500Y021846D02*
X006820Y021846D01*
X006820Y021727D02*
X000500Y021727D01*
X000500Y021609D02*
X006820Y021609D01*
X006820Y021490D02*
X000500Y021490D01*
X000500Y021372D02*
X006820Y021372D01*
X006820Y021253D02*
X000500Y021253D01*
X000500Y021135D02*
X006820Y021135D01*
X006820Y021016D02*
X000500Y021016D01*
X000500Y020898D02*
X006820Y020898D01*
X006820Y020779D02*
X000500Y020779D01*
X000500Y020661D02*
X006820Y020661D01*
X006820Y020542D02*
X000500Y020542D01*
X000500Y020424D02*
X006820Y020424D01*
X006820Y020305D02*
X000500Y020305D01*
X000500Y020187D02*
X006820Y020187D01*
X006837Y020068D02*
X000500Y020068D01*
X000500Y019950D02*
X006950Y019950D01*
X006958Y019831D02*
X000500Y019831D01*
X000500Y019713D02*
X005753Y019713D01*
X005666Y019594D02*
X000500Y019594D01*
X000500Y019476D02*
X005643Y019476D01*
X005668Y019357D02*
X000500Y019357D01*
X000500Y019239D02*
X005757Y019239D01*
X005768Y019120D02*
X000500Y019120D01*
X000500Y019002D02*
X005770Y019002D01*
X005772Y018883D02*
X000500Y018883D01*
X000500Y018765D02*
X005774Y018765D01*
X005776Y018646D02*
X000500Y018646D01*
X000500Y018528D02*
X005778Y018528D01*
X005780Y018409D02*
X000500Y018409D01*
X000500Y018291D02*
X005781Y018291D01*
X005783Y018172D02*
X000500Y018172D01*
X000500Y018054D02*
X005785Y018054D01*
X005787Y017935D02*
X000500Y017935D01*
X000500Y017817D02*
X005808Y017817D01*
X005927Y017698D02*
X000500Y017698D01*
X000500Y017580D02*
X006046Y017580D01*
X006164Y017461D02*
X000500Y017461D01*
X000500Y017343D02*
X006283Y017343D01*
X006401Y017224D02*
X000500Y017224D01*
X000500Y017106D02*
X006520Y017106D01*
X006638Y016987D02*
X000500Y016987D01*
X000500Y016869D02*
X009089Y016869D01*
X009075Y016750D02*
X006084Y016750D01*
X006045Y016789D02*
X006129Y016705D01*
X006175Y016595D01*
X006175Y016475D01*
X006129Y016365D01*
X006045Y016281D01*
X005935Y016235D01*
X005815Y016235D01*
X005705Y016281D01*
X005621Y016365D01*
X005575Y016475D01*
X005575Y016595D01*
X005621Y016705D01*
X005705Y016789D01*
X005815Y016835D01*
X005935Y016835D01*
X006045Y016789D01*
X006160Y016632D02*
X009110Y016632D01*
X009224Y016513D02*
X006175Y016513D01*
X006142Y016395D02*
X008560Y016395D01*
X008580Y016414D02*
X008496Y016330D01*
X008450Y016220D01*
X008450Y016100D01*
X008496Y015990D01*
X008580Y015906D01*
X008690Y015860D01*
X008810Y015860D01*
X008920Y015906D01*
X009004Y015990D01*
X009050Y016100D01*
X009050Y016220D01*
X009004Y016330D01*
X008920Y016414D01*
X008810Y016460D01*
X008690Y016460D01*
X008580Y016414D01*
X008473Y016276D02*
X006034Y016276D01*
X005716Y016276D02*
X001372Y016276D01*
X001356Y016293D02*
X001300Y016333D01*
X001239Y016364D01*
X001173Y016386D01*
X001105Y016396D01*
X001099Y016396D01*
X001099Y015988D01*
X001042Y015988D01*
X001042Y015931D01*
X000634Y015931D01*
X000634Y015925D01*
X000644Y015857D01*
X000666Y015791D01*
X000697Y015730D01*
X000737Y015674D01*
X000786Y015626D01*
X000842Y015585D01*
X000903Y015554D01*
X000968Y015533D01*
X001036Y015522D01*
X001042Y015522D01*
X001042Y015931D01*
X001099Y015931D01*
X001099Y015522D01*
X001105Y015522D01*
X001173Y015533D01*
X001239Y015554D01*
X001300Y015585D01*
X001356Y015626D01*
X001404Y015674D01*
X001445Y015730D01*
X001476Y015791D01*
X001497Y015857D01*
X001508Y015925D01*
X001508Y015931D01*
X001099Y015931D01*
X001099Y015988D01*
X001508Y015988D01*
X001508Y015994D01*
X001497Y016062D01*
X001476Y016127D01*
X001445Y016188D01*
X001404Y016244D01*
X001356Y016293D01*
X001460Y016158D02*
X008450Y016158D01*
X008475Y016039D02*
X001501Y016039D01*
X001507Y015921D02*
X008565Y015921D01*
X008935Y015921D02*
X009774Y015921D01*
X009708Y015802D02*
X001479Y015802D01*
X001411Y015684D02*
X009700Y015684D01*
X009741Y015565D02*
X001260Y015565D01*
X001099Y015565D02*
X001042Y015565D01*
X001042Y015684D02*
X001099Y015684D01*
X001099Y015802D02*
X001042Y015802D01*
X001042Y015921D02*
X001099Y015921D01*
X001042Y015988D02*
X000634Y015988D01*
X000634Y015994D01*
X000644Y016062D01*
X000666Y016127D01*
X000697Y016188D01*
X000737Y016244D01*
X000786Y016293D01*
X000842Y016333D01*
X000903Y016364D01*
X000968Y016386D01*
X001036Y016396D01*
X001042Y016396D01*
X001042Y015988D01*
X001042Y016039D02*
X001099Y016039D01*
X001099Y016158D02*
X001042Y016158D01*
X001042Y016276D02*
X001099Y016276D01*
X001099Y016395D02*
X001042Y016395D01*
X001025Y016395D02*
X000500Y016395D01*
X000500Y016513D02*
X005575Y016513D01*
X005590Y016632D02*
X000500Y016632D01*
X000500Y016750D02*
X005666Y016750D01*
X005608Y016395D02*
X001117Y016395D01*
X000769Y016276D02*
X000500Y016276D01*
X000500Y016158D02*
X000681Y016158D01*
X000641Y016039D02*
X000500Y016039D01*
X000500Y015921D02*
X000634Y015921D01*
X000662Y015802D02*
X000500Y015802D01*
X000500Y015684D02*
X000731Y015684D01*
X000882Y015565D02*
X000500Y015565D01*
X000500Y015447D02*
X001629Y015447D01*
X001580Y015426D02*
X001496Y015342D01*
X001450Y015231D01*
X001450Y015112D01*
X001496Y015002D01*
X001580Y014917D01*
X001690Y014872D01*
X001810Y014872D01*
X001920Y014917D01*
X002004Y015002D01*
X002050Y015112D01*
X002050Y015231D01*
X002004Y015342D01*
X001920Y015426D01*
X001810Y015472D01*
X001690Y015472D01*
X001580Y015426D01*
X001490Y015328D02*
X000500Y015328D01*
X000500Y015210D02*
X001450Y015210D01*
X001459Y015091D02*
X000500Y015091D01*
X000500Y014973D02*
X001525Y014973D01*
X001975Y014973D02*
X003592Y014973D01*
X003592Y014955D02*
X003637Y014845D01*
X003695Y014788D01*
X003637Y014730D01*
X003592Y014620D01*
X003592Y014500D01*
X003637Y014390D01*
X003722Y014306D01*
X003832Y014260D01*
X003951Y014260D01*
X004062Y014306D01*
X004136Y014380D01*
X004181Y014380D01*
X005832Y012729D01*
X005832Y007589D01*
X005757Y007515D01*
X005712Y007405D01*
X005712Y007285D01*
X005757Y007175D01*
X005842Y007091D01*
X005952Y007045D01*
X006071Y007045D01*
X006182Y007091D01*
X006209Y007118D01*
X006236Y007091D01*
X006346Y007045D01*
X006465Y007045D01*
X006575Y007091D01*
X006660Y007175D01*
X006706Y007285D01*
X006706Y007405D01*
X006660Y007515D01*
X006586Y007589D01*
X006586Y012802D01*
X006587Y012876D01*
X006586Y012877D01*
X006586Y012878D01*
X006534Y012930D01*
X004436Y015088D01*
X004436Y015090D01*
X004384Y015141D01*
X004333Y015194D01*
X004331Y015194D01*
X004330Y015195D01*
X004257Y015195D01*
X004183Y015196D01*
X004182Y015195D01*
X004136Y015195D01*
X004062Y015269D01*
X003951Y015315D01*
X003832Y015315D01*
X003722Y015269D01*
X003637Y015185D01*
X003592Y015075D01*
X003592Y014955D01*
X003634Y014854D02*
X000500Y014854D01*
X000500Y014736D02*
X003643Y014736D01*
X003592Y014617D02*
X000500Y014617D01*
X000500Y014499D02*
X003592Y014499D01*
X003647Y014380D02*
X000500Y014380D01*
X000500Y014262D02*
X003828Y014262D01*
X003955Y014262D02*
X004299Y014262D01*
X004418Y014143D02*
X000500Y014143D01*
X000500Y014025D02*
X004536Y014025D01*
X004655Y013906D02*
X000500Y013906D01*
X000500Y013788D02*
X000971Y013788D01*
X000968Y013787D02*
X000903Y013766D01*
X000842Y013735D01*
X000786Y013694D01*
X000737Y013646D01*
X000697Y013590D01*
X000666Y013529D01*
X000644Y013463D01*
X000634Y013395D01*
X000634Y013389D01*
X001042Y013389D01*
X001042Y013332D01*
X000634Y013332D01*
X000634Y013326D01*
X000644Y013258D01*
X000666Y013193D01*
X000697Y013132D01*
X000737Y013076D01*
X000786Y013027D01*
X000842Y012987D01*
X000903Y012956D01*
X000968Y012934D01*
X001036Y012924D01*
X001042Y012924D01*
X001042Y013332D01*
X001099Y013332D01*
X001099Y012924D01*
X001105Y012924D01*
X001173Y012934D01*
X001239Y012956D01*
X001300Y012987D01*
X001356Y013027D01*
X001404Y013076D01*
X001445Y013132D01*
X001476Y013193D01*
X001497Y013258D01*
X001508Y013326D01*
X001508Y013332D01*
X001099Y013332D01*
X001099Y013389D01*
X001042Y013389D01*
X001042Y013798D01*
X001036Y013798D01*
X000968Y013787D01*
X001042Y013788D02*
X001099Y013788D01*
X001099Y013798D02*
X001105Y013798D01*
X001173Y013787D01*
X001239Y013766D01*
X001300Y013735D01*
X001356Y013694D01*
X001404Y013646D01*
X001445Y013590D01*
X001476Y013529D01*
X001497Y013463D01*
X001508Y013395D01*
X001508Y013389D01*
X001099Y013389D01*
X001099Y013798D01*
X001171Y013788D02*
X004773Y013788D01*
X004892Y013669D02*
X001381Y013669D01*
X001465Y013551D02*
X005010Y013551D01*
X005129Y013432D02*
X001502Y013432D01*
X001506Y013314D02*
X005247Y013314D01*
X005366Y013195D02*
X001477Y013195D01*
X001405Y013077D02*
X005484Y013077D01*
X005603Y012958D02*
X001243Y012958D01*
X001099Y012958D02*
X001042Y012958D01*
X001042Y013077D02*
X001099Y013077D01*
X001099Y013195D02*
X001042Y013195D01*
X001042Y013314D02*
X001099Y013314D01*
X001099Y013432D02*
X001042Y013432D01*
X001042Y013551D02*
X001099Y013551D01*
X001099Y013669D02*
X001042Y013669D01*
X000761Y013669D02*
X000500Y013669D01*
X000500Y013551D02*
X000677Y013551D01*
X000640Y013432D02*
X000500Y013432D01*
X000500Y013314D02*
X000636Y013314D01*
X000665Y013195D02*
X000500Y013195D01*
X000500Y013077D02*
X000737Y013077D01*
X000898Y012958D02*
X000500Y012958D01*
X000500Y012840D02*
X005721Y012840D01*
X005832Y012721D02*
X000500Y012721D01*
X000500Y012603D02*
X005832Y012603D01*
X005832Y012484D02*
X000500Y012484D01*
X000500Y012366D02*
X005832Y012366D01*
X005832Y012247D02*
X002492Y012247D01*
X002487Y012252D02*
X002377Y012298D01*
X002257Y012298D01*
X002147Y012252D01*
X002063Y012168D01*
X002017Y012057D01*
X002017Y011938D01*
X002063Y011828D01*
X002147Y011743D01*
X002257Y011698D01*
X002377Y011698D01*
X002487Y011743D01*
X002571Y011828D01*
X002617Y011938D01*
X002617Y012057D01*
X002571Y012168D01*
X002487Y012252D01*
X002587Y012129D02*
X005832Y012129D01*
X005832Y012010D02*
X002617Y012010D01*
X002598Y011892D02*
X005832Y011892D01*
X005832Y011773D02*
X002517Y011773D01*
X002117Y011773D02*
X000500Y011773D01*
X000500Y011655D02*
X005832Y011655D01*
X005832Y011536D02*
X000500Y011536D01*
X000500Y011418D02*
X005832Y011418D01*
X005832Y011299D02*
X000500Y011299D01*
X000500Y011181D02*
X005832Y011181D01*
X005832Y011062D02*
X000500Y011062D01*
X000500Y010944D02*
X005832Y010944D01*
X005832Y010825D02*
X000500Y010825D01*
X000500Y010707D02*
X005832Y010707D01*
X005832Y010588D02*
X000500Y010588D01*
X000500Y010470D02*
X005832Y010470D01*
X005832Y010351D02*
X000500Y010351D01*
X000500Y010233D02*
X005832Y010233D01*
X005832Y010114D02*
X004595Y010114D01*
X004629Y010080D02*
X004545Y010164D01*
X004435Y010210D01*
X004315Y010210D01*
X004205Y010164D01*
X004121Y010080D01*
X004075Y009970D01*
X004075Y009850D01*
X004121Y009740D01*
X004205Y009656D01*
X004315Y009610D01*
X004435Y009610D01*
X004545Y009656D01*
X004629Y009740D01*
X004675Y009850D01*
X004675Y009970D01*
X004629Y010080D01*
X004664Y009996D02*
X005832Y009996D01*
X005832Y009877D02*
X004675Y009877D01*
X004637Y009759D02*
X005832Y009759D01*
X005832Y009640D02*
X004507Y009640D01*
X004243Y009640D02*
X000500Y009640D01*
X000500Y009522D02*
X005832Y009522D01*
X005832Y009403D02*
X000500Y009403D01*
X000500Y009285D02*
X005832Y009285D01*
X005832Y009166D02*
X000500Y009166D01*
X000500Y009048D02*
X005832Y009048D01*
X005832Y008929D02*
X000500Y008929D01*
X000500Y008811D02*
X005832Y008811D01*
X005832Y008692D02*
X000500Y008692D01*
X000500Y008574D02*
X005832Y008574D01*
X005832Y008455D02*
X000500Y008455D01*
X000500Y008337D02*
X005832Y008337D01*
X005832Y008218D02*
X000500Y008218D01*
X000500Y008100D02*
X005832Y008100D01*
X005832Y007981D02*
X000500Y007981D01*
X000500Y007863D02*
X005832Y007863D01*
X005832Y007744D02*
X000500Y007744D01*
X000500Y007626D02*
X005832Y007626D01*
X005754Y007507D02*
X000500Y007507D01*
X000500Y007389D02*
X005712Y007389D01*
X005718Y007270D02*
X000500Y007270D01*
X000500Y007152D02*
X005781Y007152D01*
X006636Y007152D02*
X007002Y007152D01*
X006978Y007175D02*
X007062Y007091D01*
X007173Y007045D01*
X007292Y007045D01*
X007402Y007091D01*
X007487Y007175D01*
X007532Y007285D01*
X007532Y007405D01*
X007487Y007515D01*
X007402Y007599D01*
X007292Y007645D01*
X007173Y007645D01*
X007062Y007599D01*
X006978Y007515D01*
X006932Y007405D01*
X006932Y007285D01*
X006978Y007175D01*
X006939Y007270D02*
X006699Y007270D01*
X006706Y007389D02*
X006932Y007389D01*
X006975Y007507D02*
X006663Y007507D01*
X006586Y007626D02*
X007125Y007626D01*
X007339Y007626D02*
X008472Y007626D01*
X008472Y007589D02*
X008397Y007515D01*
X008352Y007405D01*
X008352Y007285D01*
X008397Y007175D01*
X008482Y007091D01*
X008592Y007045D01*
X008711Y007045D01*
X008822Y007091D01*
X008906Y007175D01*
X008952Y007285D01*
X008952Y007405D01*
X008906Y007515D01*
X008832Y007589D01*
X008832Y009217D01*
X008893Y009156D01*
X009003Y009110D01*
X009122Y009110D01*
X009232Y009156D01*
X009317Y009240D01*
X009362Y009350D01*
X009362Y009470D01*
X009317Y009580D01*
X009232Y009664D01*
X009122Y009710D01*
X009003Y009710D01*
X008893Y009664D01*
X008832Y009603D01*
X008832Y013083D01*
X007550Y014365D01*
X007550Y014470D01*
X007504Y014580D01*
X007420Y014664D01*
X007310Y014710D01*
X007190Y014710D01*
X007080Y014664D01*
X006996Y014580D01*
X006950Y014470D01*
X006950Y014350D01*
X006996Y014240D01*
X007080Y014156D01*
X007190Y014110D01*
X007295Y014110D01*
X008472Y012934D01*
X008472Y011210D01*
X008441Y011241D01*
X008330Y011287D01*
X008211Y011287D01*
X008101Y011241D01*
X008016Y011157D01*
X007971Y011046D01*
X007971Y010927D01*
X008016Y010817D01*
X008101Y010732D01*
X008211Y010687D01*
X008330Y010687D01*
X008441Y010732D01*
X008472Y010763D01*
X008472Y007589D01*
X008394Y007507D02*
X007490Y007507D01*
X007532Y007389D02*
X008352Y007389D01*
X008358Y007270D02*
X007526Y007270D01*
X007463Y007152D02*
X008421Y007152D01*
X008882Y007152D02*
X009820Y007152D01*
X009820Y007270D02*
X008945Y007270D01*
X008952Y007389D02*
X009820Y007389D01*
X009820Y007507D02*
X008909Y007507D01*
X008832Y007626D02*
X009820Y007626D01*
X009820Y007744D02*
X008832Y007744D01*
X008832Y007863D02*
X009820Y007863D01*
X009820Y007981D02*
X008832Y007981D01*
X008832Y008100D02*
X009820Y008100D01*
X009820Y008218D02*
X008832Y008218D01*
X008832Y008337D02*
X009820Y008337D01*
X009820Y008455D02*
X008832Y008455D01*
X008832Y008574D02*
X009820Y008574D01*
X009820Y008692D02*
X008832Y008692D01*
X008832Y008811D02*
X009820Y008811D01*
X009820Y008929D02*
X008832Y008929D01*
X008832Y009048D02*
X009820Y009048D01*
X009820Y009166D02*
X009243Y009166D01*
X009335Y009285D02*
X009820Y009285D01*
X009820Y009403D02*
X009362Y009403D01*
X009341Y009522D02*
X009820Y009522D01*
X009820Y009640D02*
X009257Y009640D01*
X008868Y009640D02*
X008832Y009640D01*
X008832Y009759D02*
X009820Y009759D01*
X009820Y009877D02*
X008832Y009877D01*
X008832Y009996D02*
X009820Y009996D01*
X009820Y010114D02*
X008832Y010114D01*
X008832Y010233D02*
X009820Y010233D01*
X009820Y010351D02*
X008832Y010351D01*
X008832Y010470D02*
X009820Y010470D01*
X009820Y010588D02*
X008832Y010588D01*
X008832Y010707D02*
X009820Y010707D01*
X009820Y010825D02*
X008832Y010825D01*
X008832Y010944D02*
X009820Y010944D01*
X009820Y011062D02*
X008832Y011062D01*
X008832Y011181D02*
X009820Y011181D01*
X009820Y011299D02*
X008832Y011299D01*
X008832Y011418D02*
X009820Y011418D01*
X009820Y011536D02*
X008832Y011536D01*
X008832Y011655D02*
X009820Y011655D01*
X009820Y011773D02*
X008832Y011773D01*
X008832Y011892D02*
X009820Y011892D01*
X009820Y012010D02*
X008832Y012010D01*
X008832Y012129D02*
X009820Y012129D01*
X009820Y012247D02*
X008832Y012247D01*
X008832Y012366D02*
X009820Y012366D01*
X009820Y012484D02*
X008832Y012484D01*
X008832Y012603D02*
X009820Y012603D01*
X009820Y012721D02*
X008832Y012721D01*
X008832Y012840D02*
X009820Y012840D01*
X009820Y012958D02*
X008832Y012958D01*
X008832Y013077D02*
X009820Y013077D01*
X009820Y013195D02*
X008720Y013195D01*
X008601Y013314D02*
X009820Y013314D01*
X009820Y013432D02*
X008483Y013432D01*
X008364Y013551D02*
X009820Y013551D01*
X009820Y013669D02*
X008246Y013669D01*
X008127Y013788D02*
X009820Y013788D01*
X009820Y013906D02*
X008009Y013906D01*
X007890Y014025D02*
X009820Y014025D01*
X009820Y014143D02*
X007772Y014143D01*
X007653Y014262D02*
X009820Y014262D01*
X009820Y014380D02*
X007550Y014380D01*
X007538Y014499D02*
X009820Y014499D01*
X009820Y014617D02*
X007467Y014617D01*
X007033Y014617D02*
X004894Y014617D01*
X005009Y014499D02*
X006962Y014499D01*
X006950Y014380D02*
X005124Y014380D01*
X005239Y014262D02*
X006987Y014262D01*
X007111Y014143D02*
X005354Y014143D01*
X005470Y014025D02*
X007381Y014025D01*
X007499Y013906D02*
X005585Y013906D01*
X005700Y013788D02*
X007618Y013788D01*
X007736Y013669D02*
X005815Y013669D01*
X005930Y013551D02*
X007855Y013551D01*
X007973Y013432D02*
X006046Y013432D01*
X006161Y013314D02*
X008092Y013314D01*
X008210Y013195D02*
X006276Y013195D01*
X006391Y013077D02*
X008329Y013077D01*
X008447Y012958D02*
X006507Y012958D01*
X006586Y012840D02*
X008472Y012840D01*
X008472Y012721D02*
X006586Y012721D01*
X006586Y012603D02*
X008472Y012603D01*
X008472Y012484D02*
X006586Y012484D01*
X006586Y012366D02*
X008472Y012366D01*
X008472Y012247D02*
X006586Y012247D01*
X006586Y012129D02*
X008472Y012129D01*
X008472Y012010D02*
X006586Y012010D01*
X006586Y011892D02*
X008472Y011892D01*
X008472Y011773D02*
X006586Y011773D01*
X006586Y011655D02*
X008472Y011655D01*
X008472Y011536D02*
X006586Y011536D01*
X006586Y011418D02*
X008472Y011418D01*
X008472Y011299D02*
X006586Y011299D01*
X006586Y011181D02*
X008040Y011181D01*
X007977Y011062D02*
X006586Y011062D01*
X006586Y010944D02*
X007971Y010944D01*
X008013Y010825D02*
X006586Y010825D01*
X006586Y010707D02*
X008163Y010707D01*
X008378Y010707D02*
X008472Y010707D01*
X008472Y010588D02*
X006586Y010588D01*
X006586Y010470D02*
X008472Y010470D01*
X008472Y010351D02*
X006586Y010351D01*
X006586Y010233D02*
X008472Y010233D01*
X008472Y010114D02*
X008220Y010114D01*
X008254Y010080D02*
X008170Y010164D01*
X008060Y010210D01*
X007940Y010210D01*
X007830Y010164D01*
X007746Y010080D01*
X007700Y009970D01*
X007700Y009850D01*
X007746Y009740D01*
X007830Y009656D01*
X007940Y009610D01*
X008060Y009610D01*
X008170Y009656D01*
X008254Y009740D01*
X008300Y009850D01*
X008300Y009970D01*
X008254Y010080D01*
X008289Y009996D02*
X008472Y009996D01*
X008472Y009877D02*
X008300Y009877D01*
X008262Y009759D02*
X008472Y009759D01*
X008472Y009640D02*
X008132Y009640D01*
X007868Y009640D02*
X007194Y009640D01*
X007174Y009660D02*
X007254Y009740D01*
X007300Y009850D01*
X007300Y009970D01*
X007254Y010080D01*
X007170Y010164D01*
X007060Y010210D01*
X006940Y010210D01*
X006830Y010164D01*
X006746Y010080D01*
X006700Y009970D01*
X006700Y009850D01*
X006746Y009740D01*
X006826Y009660D01*
X006746Y009580D01*
X006700Y009470D01*
X006700Y009350D01*
X006746Y009240D01*
X006826Y009160D01*
X006746Y009080D01*
X006700Y008970D01*
X006700Y008850D01*
X006746Y008740D01*
X006830Y008656D01*
X006940Y008610D01*
X007060Y008610D01*
X007170Y008656D01*
X007254Y008740D01*
X007300Y008850D01*
X007300Y008970D01*
X007254Y009080D01*
X007174Y009160D01*
X007254Y009240D01*
X007300Y009350D01*
X007300Y009470D01*
X007254Y009580D01*
X007174Y009660D01*
X007262Y009759D02*
X007738Y009759D01*
X007700Y009877D02*
X007300Y009877D01*
X007289Y009996D02*
X007711Y009996D01*
X007780Y010114D02*
X007220Y010114D01*
X006780Y010114D02*
X006586Y010114D01*
X006586Y009996D02*
X006711Y009996D01*
X006700Y009877D02*
X006586Y009877D01*
X006586Y009759D02*
X006738Y009759D01*
X006806Y009640D02*
X006586Y009640D01*
X006586Y009522D02*
X006721Y009522D01*
X006700Y009403D02*
X006586Y009403D01*
X006586Y009285D02*
X006727Y009285D01*
X006820Y009166D02*
X006586Y009166D01*
X006586Y009048D02*
X006732Y009048D01*
X006700Y008929D02*
X006586Y008929D01*
X006586Y008811D02*
X006716Y008811D01*
X006794Y008692D02*
X006586Y008692D01*
X006586Y008574D02*
X008472Y008574D01*
X008472Y008692D02*
X008206Y008692D01*
X008170Y008656D02*
X008254Y008740D01*
X008300Y008850D01*
X008300Y008970D01*
X008254Y009080D01*
X008170Y009164D01*
X008060Y009210D01*
X007940Y009210D01*
X007830Y009164D01*
X007746Y009080D01*
X007700Y008970D01*
X007700Y008850D01*
X007746Y008740D01*
X007830Y008656D01*
X007940Y008610D01*
X008060Y008610D01*
X008170Y008656D01*
X008284Y008811D02*
X008472Y008811D01*
X008472Y008929D02*
X008300Y008929D01*
X008268Y009048D02*
X008472Y009048D01*
X008472Y009166D02*
X008166Y009166D01*
X008472Y009285D02*
X007273Y009285D01*
X007300Y009403D02*
X008472Y009403D01*
X008472Y009522D02*
X007279Y009522D01*
X007180Y009166D02*
X007834Y009166D01*
X007732Y009048D02*
X007268Y009048D01*
X007300Y008929D02*
X007700Y008929D01*
X007716Y008811D02*
X007284Y008811D01*
X007206Y008692D02*
X007794Y008692D01*
X008472Y008455D02*
X006586Y008455D01*
X006586Y008337D02*
X008472Y008337D01*
X008472Y008218D02*
X006586Y008218D01*
X006586Y008100D02*
X008472Y008100D01*
X008472Y007981D02*
X006586Y007981D01*
X006586Y007863D02*
X008472Y007863D01*
X008472Y007744D02*
X006586Y007744D01*
X005588Y006441D02*
X000500Y006441D01*
X000500Y006559D02*
X009269Y006559D01*
X009388Y006678D02*
X000500Y006678D01*
X000500Y006796D02*
X009506Y006796D01*
X009625Y006915D02*
X000500Y006915D01*
X000500Y007033D02*
X009743Y007033D01*
X011115Y007389D02*
X014706Y007389D01*
X014630Y007507D02*
X011114Y007507D01*
X011113Y007626D02*
X014600Y007626D01*
X014602Y007744D02*
X011112Y007744D01*
X011111Y007863D02*
X014651Y007863D01*
X014755Y007981D02*
X011110Y007981D01*
X011107Y008337D02*
X014758Y008337D01*
X014652Y008455D02*
X011106Y008455D01*
X011105Y008574D02*
X014603Y008574D01*
X014600Y008692D02*
X011104Y008692D01*
X011103Y008811D02*
X014629Y008811D01*
X014703Y008929D02*
X011102Y008929D01*
X008882Y009166D02*
X008832Y009166D01*
X004113Y009759D02*
X000500Y009759D01*
X000500Y009877D02*
X004075Y009877D01*
X004086Y009996D02*
X000500Y009996D01*
X000500Y010114D02*
X004155Y010114D01*
X002036Y011892D02*
X000500Y011892D01*
X000500Y012010D02*
X002017Y012010D01*
X002046Y012129D02*
X000500Y012129D01*
X000500Y012247D02*
X002142Y012247D01*
X004778Y014736D02*
X009820Y014736D01*
X009820Y014854D02*
X004663Y014854D01*
X004548Y014973D02*
X009820Y014973D01*
X009820Y015091D02*
X004434Y015091D01*
X004121Y015210D02*
X009820Y015210D01*
X009820Y015328D02*
X002010Y015328D01*
X002050Y015210D02*
X003662Y015210D01*
X003599Y015091D02*
X002041Y015091D01*
X001871Y015447D02*
X009820Y015447D01*
X010013Y016039D02*
X009025Y016039D01*
X009050Y016158D02*
X010039Y016158D01*
X010129Y016276D02*
X009027Y016276D01*
X008940Y016395D02*
X010323Y016395D01*
X010205Y016513D02*
X009526Y016513D01*
X010503Y017224D02*
X050500Y017224D01*
X050500Y017106D02*
X010622Y017106D01*
X010740Y016987D02*
X014761Y016987D01*
X014653Y016869D02*
X010859Y016869D01*
X010977Y016750D02*
X014604Y016750D01*
X014600Y016632D02*
X011040Y016632D01*
X011041Y016513D02*
X014628Y016513D01*
X014700Y016395D02*
X011042Y016395D01*
X011045Y016039D02*
X014870Y016039D01*
X014920Y016060D02*
X014773Y015999D01*
X014661Y015887D01*
X014600Y015740D01*
X014600Y015580D01*
X014661Y015433D01*
X014773Y015321D01*
X014920Y015260D01*
X015080Y015260D01*
X015227Y015321D01*
X015339Y015433D01*
X015400Y015580D01*
X015400Y015740D01*
X015339Y015887D01*
X015227Y015999D01*
X015080Y016060D01*
X014920Y016060D01*
X015130Y016039D02*
X020870Y016039D01*
X020695Y015921D02*
X015305Y015921D01*
X015374Y015802D02*
X020626Y015802D01*
X020600Y015684D02*
X015400Y015684D01*
X015394Y015565D02*
X020606Y015565D01*
X020655Y015447D02*
X015345Y015447D01*
X015234Y015328D02*
X020766Y015328D01*
X020747Y014973D02*
X015253Y014973D01*
X015353Y014854D02*
X020647Y014854D01*
X020600Y014736D02*
X015400Y014736D01*
X015400Y014617D02*
X020600Y014617D01*
X020634Y014499D02*
X015366Y014499D01*
X015286Y014380D02*
X020714Y014380D01*
X020835Y014025D02*
X015165Y014025D01*
X015320Y013906D02*
X020680Y013906D01*
X020661Y013887D02*
X020600Y013740D01*
X020600Y013580D01*
X020661Y013433D01*
X020773Y013321D01*
X020920Y013260D01*
X021080Y013260D01*
X021227Y013321D01*
X021339Y013433D01*
X021400Y013580D01*
X021400Y013740D01*
X021339Y013887D01*
X021227Y013999D01*
X021080Y014060D01*
X020920Y014060D01*
X020773Y013999D01*
X020661Y013887D01*
X020620Y013788D02*
X015380Y013788D01*
X015400Y013669D02*
X020600Y013669D01*
X020612Y013551D02*
X015388Y013551D01*
X015338Y013432D02*
X020662Y013432D01*
X020791Y013314D02*
X015209Y013314D01*
X015268Y012958D02*
X020732Y012958D01*
X020773Y012999D02*
X020661Y012887D01*
X020600Y012740D01*
X020600Y012580D01*
X020661Y012433D01*
X020773Y012321D01*
X020920Y012260D01*
X021080Y012260D01*
X021227Y012321D01*
X021339Y012433D01*
X021400Y012580D01*
X021400Y012740D01*
X021339Y012887D01*
X021227Y012999D01*
X021080Y013060D01*
X020920Y013060D01*
X020773Y012999D01*
X020641Y012840D02*
X015359Y012840D01*
X015400Y012721D02*
X020600Y012721D01*
X020600Y012603D02*
X015400Y012603D01*
X015360Y012484D02*
X020640Y012484D01*
X020729Y012366D02*
X015271Y012366D01*
X015200Y012010D02*
X020800Y012010D01*
X020773Y011999D02*
X020661Y011887D01*
X020600Y011740D01*
X020600Y011580D01*
X020661Y011433D01*
X020773Y011321D01*
X020920Y011260D01*
X021080Y011260D01*
X021227Y011321D01*
X021339Y011433D01*
X021400Y011580D01*
X021400Y011740D01*
X021339Y011887D01*
X021227Y011999D01*
X021080Y012060D01*
X020920Y012060D01*
X020773Y011999D01*
X020666Y011892D02*
X015334Y011892D01*
X015386Y011773D02*
X020614Y011773D01*
X020600Y011655D02*
X015400Y011655D01*
X015382Y011536D02*
X020618Y011536D01*
X020677Y011418D02*
X015323Y011418D01*
X015174Y011299D02*
X020826Y011299D01*
X020920Y011060D02*
X020773Y010999D01*
X020661Y010887D01*
X020600Y010740D01*
X020600Y010580D01*
X020661Y010433D01*
X020773Y010321D01*
X020920Y010260D01*
X021080Y010260D01*
X021227Y010321D01*
X021339Y010433D01*
X021400Y010580D01*
X021400Y010740D01*
X021339Y010887D01*
X021227Y010999D01*
X021080Y011060D01*
X020920Y011060D01*
X020718Y010944D02*
X015282Y010944D01*
X015365Y010825D02*
X020635Y010825D01*
X020600Y010707D02*
X015400Y010707D01*
X015400Y010588D02*
X020600Y010588D01*
X020646Y010470D02*
X015354Y010470D01*
X015257Y010351D02*
X020743Y010351D01*
X020920Y010060D02*
X020773Y009999D01*
X020661Y009887D01*
X020600Y009740D01*
X020600Y009580D01*
X020661Y009433D01*
X020773Y009321D01*
X020920Y009260D01*
X021080Y009260D01*
X021227Y009321D01*
X021339Y009433D01*
X021400Y009580D01*
X021400Y009740D01*
X021339Y009887D01*
X021227Y009999D01*
X021080Y010060D01*
X020920Y010060D01*
X020770Y009996D02*
X015230Y009996D01*
X015343Y009877D02*
X020657Y009877D01*
X020608Y009759D02*
X015392Y009759D01*
X015400Y009640D02*
X020600Y009640D01*
X020624Y009522D02*
X015376Y009522D01*
X015309Y009403D02*
X020691Y009403D01*
X020861Y009285D02*
X015139Y009285D01*
X015110Y009048D02*
X020890Y009048D01*
X020920Y009060D02*
X020773Y008999D01*
X020661Y008887D01*
X020600Y008740D01*
X020600Y008580D01*
X020661Y008433D01*
X020773Y008321D01*
X020920Y008260D01*
X021080Y008260D01*
X021227Y008321D01*
X021339Y008433D01*
X021400Y008580D01*
X021400Y008740D01*
X021339Y008887D01*
X021227Y008999D01*
X021080Y009060D01*
X020920Y009060D01*
X021110Y009048D02*
X023890Y009048D01*
X023920Y009060D02*
X023773Y008999D01*
X023661Y008887D01*
X023600Y008740D01*
X023600Y008580D01*
X023661Y008433D01*
X023773Y008321D01*
X023920Y008260D01*
X024080Y008260D01*
X024227Y008321D01*
X024339Y008433D01*
X024400Y008580D01*
X024400Y008740D01*
X024339Y008887D01*
X024227Y008999D01*
X024080Y009060D01*
X023920Y009060D01*
X024110Y009048D02*
X029890Y009048D01*
X029703Y008929D02*
X024297Y008929D01*
X024371Y008811D02*
X029629Y008811D01*
X029600Y008692D02*
X024400Y008692D01*
X024397Y008574D02*
X029603Y008574D01*
X029652Y008455D02*
X024348Y008455D01*
X024242Y008337D02*
X029758Y008337D01*
X029755Y007981D02*
X024245Y007981D01*
X024349Y007863D02*
X029651Y007863D01*
X029602Y007744D02*
X024398Y007744D01*
X024400Y007626D02*
X029600Y007626D01*
X029630Y007507D02*
X024370Y007507D01*
X024294Y007389D02*
X029706Y007389D01*
X029861Y009285D02*
X024139Y009285D01*
X024080Y009260D02*
X024227Y009321D01*
X024339Y009433D01*
X024400Y009580D01*
X024400Y009740D01*
X024339Y009887D01*
X024227Y009999D01*
X024080Y010060D01*
X023920Y010060D01*
X023773Y009999D01*
X023661Y009887D01*
X023600Y009740D01*
X023600Y009580D01*
X023661Y009433D01*
X023773Y009321D01*
X023920Y009260D01*
X024080Y009260D01*
X023861Y009285D02*
X021139Y009285D01*
X021309Y009403D02*
X023691Y009403D01*
X023624Y009522D02*
X021376Y009522D01*
X021400Y009640D02*
X023600Y009640D01*
X023608Y009759D02*
X021392Y009759D01*
X021343Y009877D02*
X023657Y009877D01*
X023770Y009996D02*
X021230Y009996D01*
X021257Y010351D02*
X023743Y010351D01*
X023773Y010321D02*
X023920Y010260D01*
X024080Y010260D01*
X024227Y010321D01*
X024339Y010433D01*
X024400Y010580D01*
X024400Y010740D01*
X024339Y010887D01*
X024227Y010999D01*
X024080Y011060D01*
X023920Y011060D01*
X023773Y010999D01*
X023661Y010887D01*
X023600Y010740D01*
X023600Y010580D01*
X023661Y010433D01*
X023773Y010321D01*
X023646Y010470D02*
X021354Y010470D01*
X021400Y010588D02*
X023600Y010588D01*
X023600Y010707D02*
X021400Y010707D01*
X021365Y010825D02*
X023635Y010825D01*
X023718Y010944D02*
X021282Y010944D01*
X021174Y011299D02*
X023826Y011299D01*
X023773Y011321D02*
X023920Y011260D01*
X024080Y011260D01*
X024227Y011321D01*
X024339Y011433D01*
X024400Y011580D01*
X024400Y011740D01*
X024339Y011887D01*
X024227Y011999D01*
X024080Y012060D01*
X023920Y012060D01*
X023773Y011999D01*
X023661Y011887D01*
X023600Y011740D01*
X023600Y011580D01*
X023661Y011433D01*
X023773Y011321D01*
X023677Y011418D02*
X021323Y011418D01*
X021382Y011536D02*
X023618Y011536D01*
X023600Y011655D02*
X021400Y011655D01*
X021386Y011773D02*
X023614Y011773D01*
X023666Y011892D02*
X021334Y011892D01*
X021200Y012010D02*
X023800Y012010D01*
X023920Y012260D02*
X024080Y012260D01*
X024227Y012321D01*
X024339Y012433D01*
X024400Y012580D01*
X024400Y012740D01*
X024339Y012887D01*
X024227Y012999D01*
X024080Y013060D01*
X023920Y013060D01*
X023773Y012999D01*
X023661Y012887D01*
X023600Y012740D01*
X023600Y012580D01*
X023661Y012433D01*
X023773Y012321D01*
X023920Y012260D01*
X023729Y012366D02*
X021271Y012366D01*
X021360Y012484D02*
X023640Y012484D01*
X023600Y012603D02*
X021400Y012603D01*
X021400Y012721D02*
X023600Y012721D01*
X023641Y012840D02*
X021359Y012840D01*
X021268Y012958D02*
X023732Y012958D01*
X023791Y013314D02*
X021209Y013314D01*
X021338Y013432D02*
X023662Y013432D01*
X023612Y013551D02*
X021388Y013551D01*
X021400Y013669D02*
X023600Y013669D01*
X023620Y013788D02*
X021380Y013788D01*
X021320Y013906D02*
X023680Y013906D01*
X023835Y014025D02*
X021165Y014025D01*
X024286Y014380D02*
X029714Y014380D01*
X029634Y014499D02*
X024366Y014499D01*
X024400Y014617D02*
X029600Y014617D01*
X029600Y014736D02*
X024400Y014736D01*
X024353Y014854D02*
X029647Y014854D01*
X029747Y014973D02*
X024253Y014973D01*
X024234Y015328D02*
X029766Y015328D01*
X029773Y015321D02*
X029920Y015260D01*
X030080Y015260D01*
X030227Y015321D01*
X030339Y015433D01*
X030400Y015580D01*
X030400Y015740D01*
X030339Y015887D01*
X030227Y015999D01*
X030080Y016060D01*
X029920Y016060D01*
X029773Y015999D01*
X029661Y015887D01*
X029600Y015740D01*
X029600Y015580D01*
X029661Y015433D01*
X029773Y015321D01*
X029655Y015447D02*
X024345Y015447D01*
X024394Y015565D02*
X029606Y015565D01*
X029600Y015684D02*
X024400Y015684D01*
X024374Y015802D02*
X029626Y015802D01*
X029695Y015921D02*
X024305Y015921D01*
X024130Y016039D02*
X029870Y016039D01*
X030130Y016039D02*
X032870Y016039D01*
X032920Y016060D02*
X032773Y015999D01*
X032661Y015887D01*
X032600Y015740D01*
X032600Y015580D01*
X032661Y015433D01*
X032773Y015321D01*
X032920Y015260D01*
X033080Y015260D01*
X033227Y015321D01*
X033339Y015433D01*
X033400Y015580D01*
X033400Y015740D01*
X033339Y015887D01*
X033227Y015999D01*
X033080Y016060D01*
X032920Y016060D01*
X033130Y016039D02*
X038870Y016039D01*
X038920Y016060D02*
X038773Y015999D01*
X038661Y015887D01*
X038600Y015740D01*
X038600Y015580D01*
X038661Y015433D01*
X038773Y015321D01*
X038920Y015260D01*
X039080Y015260D01*
X039227Y015321D01*
X039339Y015433D01*
X039400Y015580D01*
X039400Y015740D01*
X039339Y015887D01*
X039227Y015999D01*
X039080Y016060D01*
X038920Y016060D01*
X039130Y016039D02*
X041870Y016039D01*
X041920Y016060D02*
X041773Y015999D01*
X041661Y015887D01*
X041600Y015740D01*
X041600Y015580D01*
X041661Y015433D01*
X041773Y015321D01*
X041920Y015260D01*
X042080Y015260D01*
X042227Y015321D01*
X042339Y015433D01*
X042400Y015580D01*
X042400Y015740D01*
X042339Y015887D01*
X042227Y015999D01*
X042080Y016060D01*
X041920Y016060D01*
X042130Y016039D02*
X047870Y016039D01*
X047920Y016060D02*
X047773Y015999D01*
X047661Y015887D01*
X047600Y015740D01*
X047600Y015580D01*
X047661Y015433D01*
X047773Y015321D01*
X047920Y015260D01*
X048080Y015260D01*
X048227Y015321D01*
X048339Y015433D01*
X048400Y015580D01*
X048400Y015740D01*
X048339Y015887D01*
X048227Y015999D01*
X048080Y016060D01*
X047920Y016060D01*
X048130Y016039D02*
X050500Y016039D01*
X050500Y015921D02*
X048305Y015921D01*
X048374Y015802D02*
X050500Y015802D01*
X050500Y015684D02*
X048400Y015684D01*
X048394Y015565D02*
X050500Y015565D01*
X050500Y015447D02*
X048345Y015447D01*
X048234Y015328D02*
X050500Y015328D01*
X050500Y015210D02*
X011051Y015210D01*
X011050Y015328D02*
X014766Y015328D01*
X014655Y015447D02*
X011049Y015447D01*
X011048Y015565D02*
X014606Y015565D01*
X014600Y015684D02*
X011048Y015684D01*
X011047Y015802D02*
X014626Y015802D01*
X014695Y015921D02*
X011046Y015921D01*
X009217Y017698D02*
X014600Y017698D01*
X014600Y017580D02*
X006555Y017580D01*
X006437Y017698D02*
X008793Y017698D01*
X008719Y017817D02*
X006318Y017817D01*
X006200Y017935D02*
X008705Y017935D01*
X008740Y018054D02*
X006558Y018054D01*
X006649Y018172D02*
X008854Y018172D01*
X009305Y017935D02*
X014709Y017935D01*
X014632Y017817D02*
X009291Y017817D01*
X006792Y017343D02*
X014752Y017343D01*
X014649Y017461D02*
X006674Y017461D01*
X006192Y018054D02*
X006145Y018054D01*
X006675Y018291D02*
X014847Y018291D01*
X014773Y018321D02*
X014920Y018260D01*
X015080Y018260D01*
X015227Y018321D01*
X015339Y018433D01*
X015400Y018580D01*
X015400Y018740D01*
X015339Y018887D01*
X015227Y018999D01*
X015080Y019060D01*
X014920Y019060D01*
X014773Y018999D01*
X014661Y018887D01*
X014600Y018740D01*
X014600Y018580D01*
X014661Y018433D01*
X014773Y018321D01*
X014685Y018409D02*
X006652Y018409D01*
X006567Y018528D02*
X014622Y018528D01*
X014600Y018646D02*
X006136Y018646D01*
X006138Y018528D02*
X006183Y018528D01*
X006134Y018765D02*
X014610Y018765D01*
X014659Y018883D02*
X006132Y018883D01*
X006130Y019002D02*
X014779Y019002D01*
X014920Y019260D02*
X015080Y019260D01*
X015227Y019321D01*
X015339Y019433D01*
X015400Y019580D01*
X015400Y019740D01*
X015339Y019887D01*
X015227Y019999D01*
X015080Y020060D01*
X014920Y020060D01*
X014773Y019999D01*
X014661Y019887D01*
X014600Y019740D01*
X014600Y019580D01*
X014661Y019433D01*
X014773Y019321D01*
X014920Y019260D01*
X014737Y019357D02*
X006217Y019357D01*
X006242Y019476D02*
X014643Y019476D01*
X014600Y019594D02*
X006219Y019594D01*
X006132Y019713D02*
X007023Y019713D01*
X007477Y019713D02*
X007523Y019713D01*
X007977Y019713D02*
X014600Y019713D01*
X014638Y019831D02*
X008042Y019831D01*
X008050Y019950D02*
X014724Y019950D01*
X014812Y020305D02*
X008180Y020305D01*
X008180Y020187D02*
X050500Y020187D01*
X050500Y020305D02*
X048188Y020305D01*
X048227Y020321D02*
X048339Y020433D01*
X048400Y020580D01*
X048400Y020740D01*
X048339Y020887D01*
X048227Y020999D01*
X048080Y021060D01*
X047920Y021060D01*
X047773Y020999D01*
X047661Y020887D01*
X047600Y020740D01*
X047600Y020580D01*
X047661Y020433D01*
X047773Y020321D01*
X047920Y020260D01*
X048080Y020260D01*
X048227Y020321D01*
X048329Y020424D02*
X050500Y020424D01*
X050500Y020542D02*
X048384Y020542D01*
X048400Y020661D02*
X050500Y020661D01*
X050500Y020779D02*
X048384Y020779D01*
X048328Y020898D02*
X050500Y020898D01*
X050500Y021016D02*
X048186Y021016D01*
X048080Y021260D02*
X048227Y021321D01*
X048339Y021433D01*
X048400Y021580D01*
X048400Y021740D01*
X048339Y021887D01*
X048227Y021999D01*
X048080Y022060D01*
X047920Y022060D01*
X047773Y021999D01*
X047661Y021887D01*
X047600Y021740D01*
X047600Y021580D01*
X047661Y021433D01*
X047773Y021321D01*
X047920Y021260D01*
X048080Y021260D01*
X048277Y021372D02*
X050500Y021372D01*
X050500Y021490D02*
X048363Y021490D01*
X048400Y021609D02*
X050500Y021609D01*
X050500Y021727D02*
X048400Y021727D01*
X048356Y021846D02*
X050500Y021846D01*
X050500Y021964D02*
X048262Y021964D01*
X047738Y021964D02*
X042262Y021964D01*
X042227Y021999D02*
X042339Y021887D01*
X042400Y021740D01*
X042400Y021580D01*
X042339Y021433D01*
X042227Y021321D01*
X042080Y021260D01*
X041920Y021260D01*
X041773Y021321D01*
X041661Y021433D01*
X041600Y021580D01*
X041600Y021740D01*
X041661Y021887D01*
X041773Y021999D01*
X041920Y022060D01*
X042080Y022060D01*
X042227Y021999D01*
X042356Y021846D02*
X047644Y021846D01*
X047600Y021727D02*
X042400Y021727D01*
X042400Y021609D02*
X047600Y021609D01*
X047637Y021490D02*
X042363Y021490D01*
X042277Y021372D02*
X047723Y021372D01*
X047814Y021016D02*
X042186Y021016D01*
X042227Y020999D02*
X042080Y021060D01*
X041920Y021060D01*
X041773Y020999D01*
X041661Y020887D01*
X041600Y020740D01*
X041600Y020580D01*
X041661Y020433D01*
X041773Y020321D01*
X041920Y020260D01*
X042080Y020260D01*
X042227Y020321D01*
X042339Y020433D01*
X042400Y020580D01*
X042400Y020740D01*
X042339Y020887D01*
X042227Y020999D01*
X042328Y020898D02*
X047672Y020898D01*
X047616Y020779D02*
X042384Y020779D01*
X042400Y020661D02*
X047600Y020661D01*
X047616Y020542D02*
X042384Y020542D01*
X042329Y020424D02*
X047671Y020424D01*
X047812Y020305D02*
X042188Y020305D01*
X042080Y020060D02*
X041920Y020060D01*
X041773Y019999D01*
X041661Y019887D01*
X041600Y019740D01*
X041600Y019580D01*
X041661Y019433D01*
X041773Y019321D01*
X041920Y019260D01*
X042080Y019260D01*
X042227Y019321D01*
X042339Y019433D01*
X042400Y019580D01*
X042400Y019740D01*
X042339Y019887D01*
X042227Y019999D01*
X042080Y020060D01*
X042276Y019950D02*
X047724Y019950D01*
X047773Y019999D02*
X047661Y019887D01*
X047600Y019740D01*
X047600Y019580D01*
X047661Y019433D01*
X047773Y019321D01*
X047920Y019260D01*
X048080Y019260D01*
X048227Y019321D01*
X048339Y019433D01*
X048400Y019580D01*
X048400Y019740D01*
X048339Y019887D01*
X048227Y019999D01*
X048080Y020060D01*
X047920Y020060D01*
X047773Y019999D01*
X047638Y019831D02*
X042362Y019831D01*
X042400Y019713D02*
X047600Y019713D01*
X047600Y019594D02*
X042400Y019594D01*
X042357Y019476D02*
X047643Y019476D01*
X047737Y019357D02*
X042263Y019357D01*
X042080Y019060D02*
X041920Y019060D01*
X041773Y018999D01*
X041661Y018887D01*
X041600Y018740D01*
X041600Y018580D01*
X041661Y018433D01*
X041773Y018321D01*
X041920Y018260D01*
X042080Y018260D01*
X042227Y018321D01*
X042339Y018433D01*
X042400Y018580D01*
X042400Y018740D01*
X042339Y018887D01*
X042227Y018999D01*
X042080Y019060D01*
X042221Y019002D02*
X047779Y019002D01*
X047773Y018999D02*
X047661Y018887D01*
X047600Y018740D01*
X047600Y018580D01*
X047661Y018433D01*
X047773Y018321D01*
X047920Y018260D01*
X048080Y018260D01*
X048227Y018321D01*
X048339Y018433D01*
X048400Y018580D01*
X048400Y018740D01*
X048339Y018887D01*
X048227Y018999D01*
X048080Y019060D01*
X047920Y019060D01*
X047773Y018999D01*
X047659Y018883D02*
X042341Y018883D01*
X042390Y018765D02*
X047610Y018765D01*
X047600Y018646D02*
X042400Y018646D01*
X042378Y018528D02*
X047622Y018528D01*
X047685Y018409D02*
X042315Y018409D01*
X042153Y018291D02*
X047847Y018291D01*
X048153Y018291D02*
X050500Y018291D01*
X050500Y018409D02*
X048315Y018409D01*
X048378Y018528D02*
X050500Y018528D01*
X050500Y018646D02*
X048400Y018646D01*
X048390Y018765D02*
X050500Y018765D01*
X050500Y018883D02*
X048341Y018883D01*
X048221Y019002D02*
X050500Y019002D01*
X050500Y019120D02*
X006128Y019120D01*
X006128Y019239D02*
X050500Y019239D01*
X050500Y019357D02*
X048263Y019357D01*
X048357Y019476D02*
X050500Y019476D01*
X050500Y019594D02*
X048400Y019594D01*
X048400Y019713D02*
X050500Y019713D01*
X050500Y019831D02*
X048362Y019831D01*
X048276Y019950D02*
X050500Y019950D01*
X050500Y020068D02*
X008163Y020068D01*
X008180Y020424D02*
X014671Y020424D01*
X014661Y020433D02*
X014773Y020321D01*
X014920Y020260D01*
X015080Y020260D01*
X015227Y020321D01*
X015339Y020433D01*
X015400Y020580D01*
X015400Y020740D01*
X015339Y020887D01*
X015227Y020999D01*
X015080Y021060D01*
X014920Y021060D01*
X014773Y020999D01*
X014661Y020887D01*
X014600Y020740D01*
X014600Y020580D01*
X014661Y020433D01*
X014616Y020542D02*
X008180Y020542D01*
X008180Y020661D02*
X014600Y020661D01*
X014616Y020779D02*
X008180Y020779D01*
X008180Y020898D02*
X014672Y020898D01*
X014814Y021016D02*
X008180Y021016D01*
X008180Y021135D02*
X050500Y021135D01*
X050500Y021253D02*
X008180Y021253D01*
X008180Y021372D02*
X014723Y021372D01*
X014773Y021321D02*
X014920Y021260D01*
X015080Y021260D01*
X015227Y021321D01*
X015339Y021433D01*
X015400Y021580D01*
X015400Y021740D01*
X015339Y021887D01*
X015227Y021999D01*
X015080Y022060D01*
X014920Y022060D01*
X014773Y021999D01*
X014661Y021887D01*
X014600Y021740D01*
X014600Y021580D01*
X014661Y021433D01*
X014773Y021321D01*
X014637Y021490D02*
X008180Y021490D01*
X008180Y021609D02*
X014600Y021609D01*
X014600Y021727D02*
X008180Y021727D01*
X008180Y021846D02*
X014644Y021846D01*
X014738Y021964D02*
X008180Y021964D01*
X008180Y022083D02*
X050500Y022083D01*
X050500Y022201D02*
X008180Y022201D01*
X008180Y022320D02*
X014777Y022320D01*
X014773Y022321D02*
X014920Y022260D01*
X015080Y022260D01*
X015227Y022321D01*
X015339Y022433D01*
X015400Y022580D01*
X015400Y022740D01*
X015339Y022887D01*
X015227Y022999D01*
X015080Y023060D01*
X014920Y023060D01*
X014773Y022999D01*
X014661Y022887D01*
X014600Y022740D01*
X014600Y022580D01*
X014661Y022433D01*
X014773Y022321D01*
X014659Y022438D02*
X008180Y022438D01*
X008183Y022557D02*
X014610Y022557D01*
X014600Y022675D02*
X008274Y022675D01*
X008300Y022794D02*
X014622Y022794D01*
X014686Y022912D02*
X008277Y022912D01*
X008192Y023031D02*
X014849Y023031D01*
X015151Y023031D02*
X020849Y023031D01*
X020686Y022912D02*
X015314Y022912D01*
X015378Y022794D02*
X020622Y022794D01*
X020600Y022675D02*
X015400Y022675D01*
X015390Y022557D02*
X020610Y022557D01*
X020659Y022438D02*
X015341Y022438D01*
X015223Y022320D02*
X020777Y022320D01*
X020738Y021964D02*
X015262Y021964D01*
X015356Y021846D02*
X016886Y021846D01*
X016871Y021830D02*
X016825Y021720D01*
X016825Y021600D01*
X016871Y021490D01*
X015363Y021490D01*
X015400Y021609D02*
X016825Y021609D01*
X016828Y021727D02*
X015400Y021727D01*
X015277Y021372D02*
X017037Y021372D01*
X017065Y021360D02*
X017185Y021360D01*
X017295Y021406D01*
X017379Y021490D01*
X020637Y021490D01*
X020600Y021609D02*
X017425Y021609D01*
X017425Y021600D02*
X017379Y021490D01*
X017425Y021600D02*
X017425Y021720D01*
X017379Y021830D01*
X017295Y021914D01*
X017185Y021960D01*
X017065Y021960D01*
X016955Y021914D01*
X016871Y021830D01*
X016871Y021490D02*
X016955Y021406D01*
X017065Y021360D01*
X017213Y021372D02*
X020723Y021372D01*
X020814Y021016D02*
X015186Y021016D01*
X015328Y020898D02*
X020672Y020898D01*
X020616Y020779D02*
X015384Y020779D01*
X015400Y020661D02*
X020600Y020661D01*
X020616Y020542D02*
X015384Y020542D01*
X015329Y020424D02*
X020671Y020424D01*
X020812Y020305D02*
X015188Y020305D01*
X015276Y019950D02*
X020724Y019950D01*
X020638Y019831D02*
X015362Y019831D01*
X015400Y019713D02*
X020600Y019713D01*
X020600Y019594D02*
X015400Y019594D01*
X015357Y019476D02*
X020643Y019476D01*
X020737Y019357D02*
X015263Y019357D01*
X015221Y019002D02*
X020779Y019002D01*
X020659Y018883D02*
X015341Y018883D01*
X015390Y018765D02*
X020610Y018765D01*
X020600Y018646D02*
X015400Y018646D01*
X015378Y018528D02*
X020622Y018528D01*
X020685Y018409D02*
X015315Y018409D01*
X015153Y018291D02*
X020847Y018291D01*
X021291Y017935D02*
X023709Y017935D01*
X023632Y017817D02*
X021368Y017817D01*
X021400Y017698D02*
X023600Y017698D01*
X023600Y017580D02*
X021400Y017580D01*
X021351Y017461D02*
X023649Y017461D01*
X023752Y017343D02*
X021248Y017343D01*
X021239Y016987D02*
X023761Y016987D01*
X023653Y016869D02*
X021347Y016869D01*
X021396Y016750D02*
X023604Y016750D01*
X023600Y016632D02*
X021400Y016632D01*
X021372Y016513D02*
X023628Y016513D01*
X023700Y016395D02*
X021300Y016395D01*
X024239Y016987D02*
X029761Y016987D01*
X029653Y016869D02*
X024347Y016869D01*
X024396Y016750D02*
X029604Y016750D01*
X029600Y016632D02*
X024400Y016632D01*
X024372Y016513D02*
X029628Y016513D01*
X029700Y016395D02*
X024300Y016395D01*
X024248Y017343D02*
X029752Y017343D01*
X029649Y017461D02*
X024351Y017461D01*
X024400Y017580D02*
X029600Y017580D01*
X029600Y017698D02*
X024400Y017698D01*
X024368Y017817D02*
X029632Y017817D01*
X029709Y017935D02*
X024291Y017935D01*
X024153Y018291D02*
X029847Y018291D01*
X029773Y018321D02*
X029920Y018260D01*
X030080Y018260D01*
X030227Y018321D01*
X030339Y018433D01*
X030400Y018580D01*
X030400Y018740D01*
X030339Y018887D01*
X030227Y018999D01*
X030080Y019060D01*
X029920Y019060D01*
X029773Y018999D01*
X029661Y018887D01*
X029600Y018740D01*
X029600Y018580D01*
X029661Y018433D01*
X029773Y018321D01*
X029685Y018409D02*
X024315Y018409D01*
X024378Y018528D02*
X029622Y018528D01*
X029600Y018646D02*
X024400Y018646D01*
X024390Y018765D02*
X029610Y018765D01*
X029659Y018883D02*
X024341Y018883D01*
X024221Y019002D02*
X029779Y019002D01*
X029920Y019260D02*
X029773Y019321D01*
X029661Y019433D01*
X029600Y019580D01*
X029600Y019740D01*
X029661Y019887D01*
X029773Y019999D01*
X029920Y020060D01*
X030080Y020060D01*
X030227Y019999D01*
X030339Y019887D01*
X030400Y019740D01*
X030400Y019580D01*
X030339Y019433D01*
X030227Y019321D01*
X030080Y019260D01*
X029920Y019260D01*
X029737Y019357D02*
X024263Y019357D01*
X024357Y019476D02*
X029643Y019476D01*
X029600Y019594D02*
X024400Y019594D01*
X024400Y019713D02*
X029600Y019713D01*
X029638Y019831D02*
X024362Y019831D01*
X024276Y019950D02*
X029724Y019950D01*
X029812Y020305D02*
X024188Y020305D01*
X024329Y020424D02*
X029671Y020424D01*
X029661Y020433D02*
X029773Y020321D01*
X029920Y020260D01*
X030080Y020260D01*
X030227Y020321D01*
X030339Y020433D01*
X030400Y020580D01*
X030400Y020740D01*
X030339Y020887D01*
X030227Y020999D01*
X030080Y021060D01*
X029920Y021060D01*
X029773Y020999D01*
X029661Y020887D01*
X029600Y020740D01*
X029600Y020580D01*
X029661Y020433D01*
X029616Y020542D02*
X024384Y020542D01*
X024400Y020661D02*
X029600Y020661D01*
X029616Y020779D02*
X024384Y020779D01*
X024328Y020898D02*
X029672Y020898D01*
X029814Y021016D02*
X024186Y021016D01*
X024277Y021372D02*
X029723Y021372D01*
X029773Y021321D02*
X029920Y021260D01*
X030080Y021260D01*
X030227Y021321D01*
X030339Y021433D01*
X030400Y021580D01*
X030400Y021740D01*
X030339Y021887D01*
X030227Y021999D01*
X030080Y022060D01*
X029920Y022060D01*
X029773Y021999D01*
X029661Y021887D01*
X029600Y021740D01*
X029600Y021580D01*
X029661Y021433D01*
X029773Y021321D01*
X029637Y021490D02*
X024363Y021490D01*
X024400Y021609D02*
X029600Y021609D01*
X029600Y021727D02*
X024400Y021727D01*
X024356Y021846D02*
X029644Y021846D01*
X029738Y021964D02*
X024262Y021964D01*
X024223Y022320D02*
X029777Y022320D01*
X029659Y022438D02*
X024341Y022438D01*
X024390Y022557D02*
X029610Y022557D01*
X029600Y022675D02*
X024400Y022675D01*
X024378Y022794D02*
X029622Y022794D01*
X029686Y022912D02*
X024314Y022912D01*
X020708Y023386D02*
X017248Y023386D01*
X017295Y023406D02*
X017379Y023490D01*
X017425Y023600D01*
X017425Y023720D01*
X017379Y023830D01*
X017295Y023914D01*
X017185Y023960D01*
X017065Y023960D01*
X016955Y023914D01*
X016871Y023830D01*
X016825Y023720D01*
X016825Y023600D01*
X016871Y023490D01*
X016955Y023406D01*
X017065Y023360D01*
X017185Y023360D01*
X017295Y023406D01*
X017385Y023505D02*
X020631Y023505D01*
X020600Y023623D02*
X017425Y023623D01*
X017416Y023742D02*
X020601Y023742D01*
X020650Y023860D02*
X017349Y023860D01*
X016901Y023860D02*
X015350Y023860D01*
X015399Y023742D02*
X016834Y023742D01*
X016825Y023623D02*
X015400Y023623D01*
X015369Y023505D02*
X016865Y023505D01*
X017002Y023386D02*
X015292Y023386D01*
X015247Y023979D02*
X020753Y023979D01*
X020644Y021846D02*
X017364Y021846D01*
X017422Y021727D02*
X020600Y021727D01*
X024306Y025401D02*
X029694Y025401D01*
X029625Y025519D02*
X024375Y025519D01*
X024400Y025638D02*
X029600Y025638D01*
X029607Y025756D02*
X024393Y025756D01*
X024344Y025875D02*
X029656Y025875D01*
X029767Y025993D02*
X024233Y025993D01*
X024161Y026271D02*
X024220Y026301D01*
X024274Y026340D01*
X024320Y026386D01*
X024359Y026440D01*
X024389Y026499D01*
X024410Y026562D01*
X024420Y026627D01*
X024420Y026640D01*
X024020Y026640D01*
X024020Y026240D01*
X024033Y026240D01*
X024098Y026250D01*
X024161Y026271D01*
X024283Y026349D02*
X029746Y026349D01*
X029647Y026467D02*
X024373Y026467D01*
X024413Y026586D02*
X029600Y026586D01*
X029600Y026704D02*
X024418Y026704D01*
X024389Y026823D02*
X029634Y026823D01*
X029715Y026941D02*
X024313Y026941D01*
X024020Y026941D02*
X023980Y026941D01*
X023980Y026823D02*
X024020Y026823D01*
X024020Y026704D02*
X023980Y026704D01*
X023980Y026586D02*
X024020Y026586D01*
X024020Y026467D02*
X023980Y026467D01*
X023980Y026349D02*
X024020Y026349D01*
X023717Y026349D02*
X021254Y026349D01*
X021353Y026467D02*
X023627Y026467D01*
X023587Y026586D02*
X021400Y026586D01*
X021400Y026704D02*
X023582Y026704D01*
X023611Y026823D02*
X021366Y026823D01*
X021285Y026941D02*
X023687Y026941D01*
X030254Y026349D02*
X032746Y026349D01*
X032647Y026467D02*
X030353Y026467D01*
X030400Y026586D02*
X032600Y026586D01*
X032600Y026704D02*
X030400Y026704D01*
X030366Y026823D02*
X032634Y026823D01*
X032715Y026941D02*
X030285Y026941D01*
X030233Y025993D02*
X032767Y025993D01*
X032773Y025999D02*
X032661Y025887D01*
X032600Y025740D01*
X032600Y025580D01*
X032661Y025433D01*
X032773Y025321D01*
X032920Y025260D01*
X033080Y025260D01*
X033227Y025321D01*
X033339Y025433D01*
X033400Y025580D01*
X033400Y025740D01*
X033339Y025887D01*
X033227Y025999D01*
X033080Y026060D01*
X032920Y026060D01*
X032773Y025999D01*
X032656Y025875D02*
X030344Y025875D01*
X030393Y025756D02*
X032607Y025756D01*
X032600Y025638D02*
X030400Y025638D01*
X030375Y025519D02*
X032625Y025519D01*
X032694Y025401D02*
X030306Y025401D01*
X030133Y025282D02*
X032867Y025282D01*
X032920Y025060D02*
X032773Y024999D01*
X032661Y024887D01*
X032600Y024740D01*
X032600Y024580D01*
X032661Y024433D01*
X032773Y024321D01*
X032920Y024260D01*
X033080Y024260D01*
X033227Y024321D01*
X033339Y024433D01*
X033400Y024580D01*
X033400Y024740D01*
X033339Y024887D01*
X033227Y024999D01*
X033080Y025060D01*
X032920Y025060D01*
X032884Y025045D02*
X030116Y025045D01*
X030299Y024927D02*
X032701Y024927D01*
X032628Y024808D02*
X030372Y024808D01*
X030400Y024690D02*
X032600Y024690D01*
X032604Y024571D02*
X030396Y024571D01*
X030347Y024453D02*
X032653Y024453D01*
X032760Y024334D02*
X030240Y024334D01*
X030247Y023979D02*
X032753Y023979D01*
X032650Y023860D02*
X030350Y023860D01*
X030399Y023742D02*
X032601Y023742D01*
X032600Y023623D02*
X030400Y023623D01*
X030369Y023505D02*
X032631Y023505D01*
X032708Y023386D02*
X030292Y023386D01*
X030314Y022912D02*
X032686Y022912D01*
X032622Y022794D02*
X030378Y022794D01*
X030400Y022675D02*
X032600Y022675D01*
X032610Y022557D02*
X030390Y022557D01*
X030341Y022438D02*
X032659Y022438D01*
X032777Y022320D02*
X030223Y022320D01*
X030262Y021964D02*
X032738Y021964D01*
X032773Y021999D02*
X032661Y021887D01*
X032600Y021740D01*
X032600Y021580D01*
X032661Y021433D01*
X032773Y021321D01*
X032920Y021260D01*
X033080Y021260D01*
X033227Y021321D01*
X033339Y021433D01*
X033400Y021580D01*
X033400Y021740D01*
X033339Y021887D01*
X033227Y021999D01*
X033080Y022060D01*
X032920Y022060D01*
X032773Y021999D01*
X032644Y021846D02*
X030356Y021846D01*
X030400Y021727D02*
X032600Y021727D01*
X032600Y021609D02*
X030400Y021609D01*
X030363Y021490D02*
X032637Y021490D01*
X032723Y021372D02*
X030277Y021372D01*
X030186Y021016D02*
X032814Y021016D01*
X032773Y020999D02*
X032661Y020887D01*
X032600Y020740D01*
X032600Y020580D01*
X032661Y020433D01*
X032773Y020321D01*
X032920Y020260D01*
X033080Y020260D01*
X033227Y020321D01*
X033339Y020433D01*
X033400Y020580D01*
X033400Y020740D01*
X033339Y020887D01*
X033227Y020999D01*
X033080Y021060D01*
X032920Y021060D01*
X032773Y020999D01*
X032672Y020898D02*
X030328Y020898D01*
X030384Y020779D02*
X032616Y020779D01*
X032600Y020661D02*
X030400Y020661D01*
X030384Y020542D02*
X032616Y020542D01*
X032671Y020424D02*
X030329Y020424D01*
X030188Y020305D02*
X032812Y020305D01*
X032920Y020060D02*
X032773Y019999D01*
X032661Y019887D01*
X032600Y019740D01*
X032600Y019580D01*
X032661Y019433D01*
X032773Y019321D01*
X032920Y019260D01*
X033080Y019260D01*
X033227Y019321D01*
X033339Y019433D01*
X033400Y019580D01*
X033400Y019740D01*
X033339Y019887D01*
X033227Y019999D01*
X033080Y020060D01*
X032920Y020060D01*
X032724Y019950D02*
X030276Y019950D01*
X030362Y019831D02*
X032638Y019831D01*
X032600Y019713D02*
X030400Y019713D01*
X030400Y019594D02*
X032600Y019594D01*
X032643Y019476D02*
X030357Y019476D01*
X030263Y019357D02*
X032737Y019357D01*
X032920Y019060D02*
X032773Y018999D01*
X032661Y018887D01*
X032600Y018740D01*
X032600Y018580D01*
X032661Y018433D01*
X032773Y018321D01*
X032920Y018260D01*
X033080Y018260D01*
X033227Y018321D01*
X033339Y018433D01*
X033400Y018580D01*
X033400Y018740D01*
X033339Y018887D01*
X033227Y018999D01*
X033080Y019060D01*
X032920Y019060D01*
X032779Y019002D02*
X030221Y019002D01*
X030341Y018883D02*
X032659Y018883D01*
X032610Y018765D02*
X030390Y018765D01*
X030400Y018646D02*
X032600Y018646D01*
X032622Y018528D02*
X030378Y018528D01*
X030315Y018409D02*
X032685Y018409D01*
X032847Y018291D02*
X030153Y018291D01*
X030291Y017935D02*
X032709Y017935D01*
X032632Y017817D02*
X030368Y017817D01*
X030400Y017698D02*
X032600Y017698D01*
X032600Y017580D02*
X030400Y017580D01*
X030351Y017461D02*
X032649Y017461D01*
X032752Y017343D02*
X030248Y017343D01*
X030239Y016987D02*
X032761Y016987D01*
X032653Y016869D02*
X030347Y016869D01*
X030396Y016750D02*
X032604Y016750D01*
X032600Y016632D02*
X030400Y016632D01*
X030372Y016513D02*
X032628Y016513D01*
X032700Y016395D02*
X030300Y016395D01*
X030305Y015921D02*
X032695Y015921D01*
X032626Y015802D02*
X030374Y015802D01*
X030400Y015684D02*
X032600Y015684D01*
X032606Y015565D02*
X030394Y015565D01*
X030345Y015447D02*
X032655Y015447D01*
X032766Y015328D02*
X030234Y015328D01*
X030253Y014973D02*
X032747Y014973D01*
X032647Y014854D02*
X030353Y014854D01*
X030400Y014736D02*
X032600Y014736D01*
X032600Y014617D02*
X030400Y014617D01*
X030366Y014499D02*
X032634Y014499D01*
X032714Y014380D02*
X030286Y014380D01*
X030080Y013060D02*
X029920Y013060D01*
X029773Y012999D01*
X029661Y012887D01*
X029600Y012740D01*
X029600Y012580D01*
X029661Y012433D01*
X029773Y012321D01*
X029920Y012260D01*
X030080Y012260D01*
X030227Y012321D01*
X030339Y012433D01*
X030400Y012580D01*
X030400Y012740D01*
X030339Y012887D01*
X030227Y012999D01*
X030080Y013060D01*
X030268Y012958D02*
X050500Y012958D01*
X050500Y012840D02*
X030359Y012840D01*
X030400Y012721D02*
X050500Y012721D01*
X050500Y012603D02*
X030400Y012603D01*
X030360Y012484D02*
X050500Y012484D01*
X050500Y012366D02*
X030271Y012366D01*
X030080Y012060D02*
X029920Y012060D01*
X029773Y011999D01*
X029661Y011887D01*
X029600Y011740D01*
X029600Y011580D01*
X029661Y011433D01*
X029773Y011321D01*
X029920Y011260D01*
X030080Y011260D01*
X030227Y011321D01*
X030339Y011433D01*
X030400Y011580D01*
X030400Y011740D01*
X030339Y011887D01*
X030227Y011999D01*
X030080Y012060D01*
X030200Y012010D02*
X050500Y012010D01*
X050500Y011892D02*
X030334Y011892D01*
X030386Y011773D02*
X050500Y011773D01*
X050500Y011655D02*
X030400Y011655D01*
X030382Y011536D02*
X050500Y011536D01*
X050500Y011418D02*
X030323Y011418D01*
X030174Y011299D02*
X050500Y011299D01*
X050500Y012129D02*
X011076Y012129D01*
X011075Y012247D02*
X050500Y012247D01*
X050500Y013077D02*
X011069Y013077D01*
X011068Y013195D02*
X050500Y013195D01*
X047835Y014025D02*
X042210Y014025D01*
X042340Y013906D02*
X047680Y013906D01*
X047714Y014380D02*
X042286Y014380D01*
X042366Y014499D02*
X047634Y014499D01*
X047600Y014617D02*
X042400Y014617D01*
X042400Y014736D02*
X047600Y014736D01*
X047647Y014854D02*
X042353Y014854D01*
X042253Y014973D02*
X047747Y014973D01*
X047766Y015328D02*
X042234Y015328D01*
X042345Y015447D02*
X047655Y015447D01*
X047606Y015565D02*
X042394Y015565D01*
X042400Y015684D02*
X047600Y015684D01*
X047626Y015802D02*
X042374Y015802D01*
X042305Y015921D02*
X047695Y015921D01*
X047700Y016395D02*
X042300Y016395D01*
X042372Y016513D02*
X047628Y016513D01*
X047600Y016632D02*
X042400Y016632D01*
X042396Y016750D02*
X047604Y016750D01*
X047653Y016869D02*
X042347Y016869D01*
X042239Y016987D02*
X047761Y016987D01*
X048239Y016987D02*
X050500Y016987D01*
X050500Y016869D02*
X048347Y016869D01*
X048396Y016750D02*
X050500Y016750D01*
X050500Y016632D02*
X048400Y016632D01*
X048372Y016513D02*
X050500Y016513D01*
X050500Y016395D02*
X048300Y016395D01*
X048248Y017343D02*
X050500Y017343D01*
X050500Y017461D02*
X048351Y017461D01*
X048400Y017580D02*
X050500Y017580D01*
X050500Y017698D02*
X048400Y017698D01*
X048368Y017817D02*
X050500Y017817D01*
X050500Y017935D02*
X048291Y017935D01*
X047709Y017935D02*
X042291Y017935D01*
X042368Y017817D02*
X047632Y017817D01*
X047600Y017698D02*
X042400Y017698D01*
X042400Y017580D02*
X047600Y017580D01*
X047649Y017461D02*
X042351Y017461D01*
X042248Y017343D02*
X047752Y017343D01*
X041847Y018291D02*
X039153Y018291D01*
X039227Y018321D02*
X039339Y018433D01*
X039400Y018580D01*
X039400Y018740D01*
X039339Y018887D01*
X039227Y018999D01*
X039080Y019060D01*
X038920Y019060D01*
X038773Y018999D01*
X038661Y018887D01*
X038600Y018740D01*
X038600Y018580D01*
X038661Y018433D01*
X038773Y018321D01*
X038920Y018260D01*
X039080Y018260D01*
X039227Y018321D01*
X039315Y018409D02*
X041685Y018409D01*
X041622Y018528D02*
X039378Y018528D01*
X039400Y018646D02*
X041600Y018646D01*
X041610Y018765D02*
X039390Y018765D01*
X039341Y018883D02*
X041659Y018883D01*
X041779Y019002D02*
X039221Y019002D01*
X039080Y019260D02*
X038920Y019260D01*
X038773Y019321D01*
X038661Y019433D01*
X038600Y019580D01*
X038600Y019740D01*
X038661Y019887D01*
X038773Y019999D01*
X038920Y020060D01*
X039080Y020060D01*
X039227Y019999D01*
X039339Y019887D01*
X039400Y019740D01*
X039400Y019580D01*
X039339Y019433D01*
X039227Y019321D01*
X039080Y019260D01*
X039263Y019357D02*
X041737Y019357D01*
X041643Y019476D02*
X039357Y019476D01*
X039400Y019594D02*
X041600Y019594D01*
X041600Y019713D02*
X039400Y019713D01*
X039362Y019831D02*
X041638Y019831D01*
X041724Y019950D02*
X039276Y019950D01*
X039188Y020305D02*
X041812Y020305D01*
X041671Y020424D02*
X039329Y020424D01*
X039339Y020433D02*
X039400Y020580D01*
X039400Y020740D01*
X039339Y020887D01*
X039227Y020999D01*
X039080Y021060D01*
X038920Y021060D01*
X038773Y020999D01*
X038661Y020887D01*
X038600Y020740D01*
X038600Y020580D01*
X038661Y020433D01*
X038773Y020321D01*
X038920Y020260D01*
X039080Y020260D01*
X039227Y020321D01*
X039339Y020433D01*
X039384Y020542D02*
X041616Y020542D01*
X041600Y020661D02*
X039400Y020661D01*
X039384Y020779D02*
X041616Y020779D01*
X041672Y020898D02*
X039328Y020898D01*
X039186Y021016D02*
X041814Y021016D01*
X041723Y021372D02*
X039277Y021372D01*
X039227Y021321D02*
X039339Y021433D01*
X039400Y021580D01*
X039400Y021740D01*
X039339Y021887D01*
X039227Y021999D01*
X039080Y022060D01*
X038920Y022060D01*
X038773Y021999D01*
X038661Y021887D01*
X038600Y021740D01*
X038600Y021580D01*
X038661Y021433D01*
X038773Y021321D01*
X038920Y021260D01*
X039080Y021260D01*
X039227Y021321D01*
X039363Y021490D02*
X041637Y021490D01*
X041600Y021609D02*
X039400Y021609D01*
X039400Y021727D02*
X041600Y021727D01*
X041644Y021846D02*
X039356Y021846D01*
X039262Y021964D02*
X041738Y021964D01*
X041777Y022320D02*
X039223Y022320D01*
X039341Y022438D02*
X041659Y022438D01*
X041610Y022557D02*
X039390Y022557D01*
X039400Y022675D02*
X041600Y022675D01*
X041622Y022794D02*
X039378Y022794D01*
X039314Y022912D02*
X041686Y022912D01*
X041708Y023386D02*
X039292Y023386D01*
X039369Y023505D02*
X041631Y023505D01*
X041600Y023623D02*
X039400Y023623D01*
X039399Y023742D02*
X041601Y023742D01*
X041650Y023860D02*
X039350Y023860D01*
X039247Y023979D02*
X041753Y023979D01*
X041920Y024260D02*
X042080Y024260D01*
X042227Y024321D01*
X042339Y024433D01*
X042400Y024580D01*
X042400Y024740D01*
X042339Y024887D01*
X042227Y024999D01*
X042080Y025060D01*
X041920Y025060D01*
X041773Y024999D01*
X041661Y024887D01*
X041600Y024740D01*
X041600Y024580D01*
X041661Y024433D01*
X041773Y024321D01*
X041920Y024260D01*
X041760Y024334D02*
X039240Y024334D01*
X039227Y024321D02*
X039339Y024433D01*
X039400Y024580D01*
X039400Y024740D01*
X039339Y024887D01*
X039227Y024999D01*
X039080Y025060D01*
X038920Y025060D01*
X038773Y024999D01*
X038661Y024887D01*
X038600Y024740D01*
X038600Y024580D01*
X038661Y024433D01*
X038773Y024321D01*
X038920Y024260D01*
X039080Y024260D01*
X039227Y024321D01*
X039347Y024453D02*
X041653Y024453D01*
X041604Y024571D02*
X039396Y024571D01*
X039400Y024690D02*
X041600Y024690D01*
X041628Y024808D02*
X039372Y024808D01*
X039299Y024927D02*
X041701Y024927D01*
X041884Y025045D02*
X039116Y025045D01*
X039080Y025260D02*
X038920Y025260D01*
X038773Y025321D01*
X038661Y025433D01*
X038600Y025580D01*
X038600Y025740D01*
X038661Y025887D01*
X038773Y025999D01*
X038920Y026060D01*
X039080Y026060D01*
X039227Y025999D01*
X039339Y025887D01*
X039400Y025740D01*
X039400Y025580D01*
X039339Y025433D01*
X039227Y025321D01*
X039080Y025260D01*
X039133Y025282D02*
X041867Y025282D01*
X041920Y025260D02*
X042080Y025260D01*
X042227Y025321D01*
X042339Y025433D01*
X042400Y025580D01*
X042400Y025740D01*
X042339Y025887D01*
X042227Y025999D01*
X042080Y026060D01*
X041920Y026060D01*
X041773Y025999D01*
X041661Y025887D01*
X041600Y025740D01*
X041600Y025580D01*
X041661Y025433D01*
X041773Y025321D01*
X041920Y025260D01*
X042133Y025282D02*
X047867Y025282D01*
X047694Y025401D02*
X042306Y025401D01*
X042375Y025519D02*
X047625Y025519D01*
X047600Y025638D02*
X042400Y025638D01*
X042393Y025756D02*
X047607Y025756D01*
X047656Y025875D02*
X042344Y025875D01*
X042233Y025993D02*
X047767Y025993D01*
X047746Y026349D02*
X042254Y026349D01*
X042353Y026467D02*
X047647Y026467D01*
X047600Y026586D02*
X042400Y026586D01*
X042400Y026704D02*
X047600Y026704D01*
X047634Y026823D02*
X042366Y026823D01*
X042285Y026941D02*
X047715Y026941D01*
X048285Y026941D02*
X050500Y026941D01*
X050500Y026823D02*
X048366Y026823D01*
X048400Y026704D02*
X050500Y026704D01*
X050500Y026586D02*
X048400Y026586D01*
X048353Y026467D02*
X050500Y026467D01*
X050500Y026349D02*
X048254Y026349D01*
X048233Y025993D02*
X050500Y025993D01*
X050500Y025875D02*
X048344Y025875D01*
X048393Y025756D02*
X050500Y025756D01*
X050500Y025638D02*
X048400Y025638D01*
X048375Y025519D02*
X050500Y025519D01*
X050500Y025401D02*
X048306Y025401D01*
X047884Y025045D02*
X042116Y025045D01*
X042299Y024927D02*
X047701Y024927D01*
X047628Y024808D02*
X042372Y024808D01*
X042400Y024690D02*
X047600Y024690D01*
X047604Y024571D02*
X042396Y024571D01*
X042347Y024453D02*
X047653Y024453D01*
X047760Y024334D02*
X042240Y024334D01*
X042247Y023979D02*
X047753Y023979D01*
X047650Y023860D02*
X042350Y023860D01*
X042399Y023742D02*
X047601Y023742D01*
X047600Y023623D02*
X042400Y023623D01*
X042369Y023505D02*
X047631Y023505D01*
X047708Y023386D02*
X042292Y023386D01*
X042314Y022912D02*
X047686Y022912D01*
X047622Y022794D02*
X042378Y022794D01*
X042400Y022675D02*
X047600Y022675D01*
X047610Y022557D02*
X042390Y022557D01*
X042341Y022438D02*
X047659Y022438D01*
X047777Y022320D02*
X042223Y022320D01*
X038777Y022320D02*
X033223Y022320D01*
X033341Y022438D02*
X038659Y022438D01*
X038610Y022557D02*
X033390Y022557D01*
X033400Y022675D02*
X038600Y022675D01*
X038622Y022794D02*
X033378Y022794D01*
X033314Y022912D02*
X038686Y022912D01*
X038708Y023386D02*
X033292Y023386D01*
X033369Y023505D02*
X038631Y023505D01*
X038600Y023623D02*
X033400Y023623D01*
X033399Y023742D02*
X038601Y023742D01*
X038650Y023860D02*
X033350Y023860D01*
X033247Y023979D02*
X038753Y023979D01*
X038760Y024334D02*
X033240Y024334D01*
X033347Y024453D02*
X038653Y024453D01*
X038604Y024571D02*
X033396Y024571D01*
X033400Y024690D02*
X038600Y024690D01*
X038628Y024808D02*
X033372Y024808D01*
X033299Y024927D02*
X038701Y024927D01*
X038884Y025045D02*
X033116Y025045D01*
X033133Y025282D02*
X038867Y025282D01*
X038694Y025401D02*
X033306Y025401D01*
X033375Y025519D02*
X038625Y025519D01*
X038600Y025638D02*
X033400Y025638D01*
X033393Y025756D02*
X038607Y025756D01*
X038656Y025875D02*
X033344Y025875D01*
X033233Y025993D02*
X038767Y025993D01*
X038746Y026349D02*
X033254Y026349D01*
X033353Y026467D02*
X038647Y026467D01*
X038600Y026586D02*
X033400Y026586D01*
X033400Y026704D02*
X038600Y026704D01*
X038634Y026823D02*
X033366Y026823D01*
X033285Y026941D02*
X038715Y026941D01*
X039285Y026941D02*
X041715Y026941D01*
X041634Y026823D02*
X039366Y026823D01*
X039400Y026704D02*
X041600Y026704D01*
X041600Y026586D02*
X039400Y026586D01*
X039353Y026467D02*
X041647Y026467D01*
X041746Y026349D02*
X039254Y026349D01*
X039233Y025993D02*
X041767Y025993D01*
X041656Y025875D02*
X039344Y025875D01*
X039393Y025756D02*
X041607Y025756D01*
X041600Y025638D02*
X039400Y025638D01*
X039375Y025519D02*
X041625Y025519D01*
X041694Y025401D02*
X039306Y025401D01*
X038738Y021964D02*
X033262Y021964D01*
X033356Y021846D02*
X038644Y021846D01*
X038600Y021727D02*
X033400Y021727D01*
X033400Y021609D02*
X038600Y021609D01*
X038637Y021490D02*
X033363Y021490D01*
X033277Y021372D02*
X038723Y021372D01*
X038814Y021016D02*
X033186Y021016D01*
X033328Y020898D02*
X038672Y020898D01*
X038616Y020779D02*
X033384Y020779D01*
X033400Y020661D02*
X038600Y020661D01*
X038616Y020542D02*
X033384Y020542D01*
X033329Y020424D02*
X038671Y020424D01*
X038812Y020305D02*
X033188Y020305D01*
X033276Y019950D02*
X038724Y019950D01*
X038638Y019831D02*
X033362Y019831D01*
X033400Y019713D02*
X038600Y019713D01*
X038600Y019594D02*
X033400Y019594D01*
X033357Y019476D02*
X038643Y019476D01*
X038737Y019357D02*
X033263Y019357D01*
X033221Y019002D02*
X038779Y019002D01*
X038659Y018883D02*
X033341Y018883D01*
X033390Y018765D02*
X038610Y018765D01*
X038600Y018646D02*
X033400Y018646D01*
X033378Y018528D02*
X038622Y018528D01*
X038685Y018409D02*
X033315Y018409D01*
X033153Y018291D02*
X038847Y018291D01*
X038709Y017935D02*
X033291Y017935D01*
X033368Y017817D02*
X038632Y017817D01*
X038600Y017698D02*
X033400Y017698D01*
X033400Y017580D02*
X038600Y017580D01*
X038649Y017461D02*
X033351Y017461D01*
X033248Y017343D02*
X038752Y017343D01*
X039248Y017343D02*
X041752Y017343D01*
X041649Y017461D02*
X039351Y017461D01*
X039400Y017580D02*
X041600Y017580D01*
X041600Y017698D02*
X039400Y017698D01*
X039368Y017817D02*
X041632Y017817D01*
X041709Y017935D02*
X039291Y017935D01*
X039239Y016987D02*
X041761Y016987D01*
X041653Y016869D02*
X039347Y016869D01*
X039396Y016750D02*
X041604Y016750D01*
X041600Y016632D02*
X039400Y016632D01*
X039372Y016513D02*
X041628Y016513D01*
X041700Y016395D02*
X039300Y016395D01*
X039305Y015921D02*
X041695Y015921D01*
X041626Y015802D02*
X039374Y015802D01*
X039400Y015684D02*
X041600Y015684D01*
X041606Y015565D02*
X039394Y015565D01*
X039345Y015447D02*
X041655Y015447D01*
X041766Y015328D02*
X039234Y015328D01*
X039253Y014973D02*
X041747Y014973D01*
X041647Y014854D02*
X039353Y014854D01*
X039400Y014736D02*
X041600Y014736D01*
X041600Y014617D02*
X039400Y014617D01*
X039366Y014499D02*
X041634Y014499D01*
X041714Y014380D02*
X039286Y014380D01*
X038714Y014380D02*
X033286Y014380D01*
X033366Y014499D02*
X038634Y014499D01*
X038600Y014617D02*
X033400Y014617D01*
X033400Y014736D02*
X038600Y014736D01*
X038647Y014854D02*
X033353Y014854D01*
X033253Y014973D02*
X038747Y014973D01*
X038766Y015328D02*
X033234Y015328D01*
X033345Y015447D02*
X038655Y015447D01*
X038606Y015565D02*
X033394Y015565D01*
X033400Y015684D02*
X038600Y015684D01*
X038626Y015802D02*
X033374Y015802D01*
X033305Y015921D02*
X038695Y015921D01*
X038700Y016395D02*
X033300Y016395D01*
X033372Y016513D02*
X038628Y016513D01*
X038600Y016632D02*
X033400Y016632D01*
X033396Y016750D02*
X038604Y016750D01*
X038653Y016869D02*
X033347Y016869D01*
X033239Y016987D02*
X038761Y016987D01*
X038835Y014025D02*
X033210Y014025D01*
X033340Y013906D02*
X038680Y013906D01*
X029732Y012958D02*
X024268Y012958D01*
X024359Y012840D02*
X029641Y012840D01*
X029600Y012721D02*
X024400Y012721D01*
X024400Y012603D02*
X029600Y012603D01*
X029640Y012484D02*
X024360Y012484D01*
X024271Y012366D02*
X029729Y012366D01*
X029800Y012010D02*
X024200Y012010D01*
X024334Y011892D02*
X029666Y011892D01*
X029614Y011773D02*
X024386Y011773D01*
X024400Y011655D02*
X029600Y011655D01*
X029618Y011536D02*
X024382Y011536D01*
X024323Y011418D02*
X029677Y011418D01*
X029826Y011299D02*
X024174Y011299D01*
X024282Y010944D02*
X029718Y010944D01*
X029635Y010825D02*
X024365Y010825D01*
X024400Y010707D02*
X029600Y010707D01*
X029600Y010588D02*
X024400Y010588D01*
X024354Y010470D02*
X029646Y010470D01*
X029743Y010351D02*
X024257Y010351D01*
X024230Y009996D02*
X029770Y009996D01*
X029657Y009877D02*
X024343Y009877D01*
X024392Y009759D02*
X029608Y009759D01*
X029600Y009640D02*
X024400Y009640D01*
X024376Y009522D02*
X029624Y009522D01*
X029691Y009403D02*
X024309Y009403D01*
X023703Y008929D02*
X021297Y008929D01*
X021371Y008811D02*
X023629Y008811D01*
X023600Y008692D02*
X021400Y008692D01*
X021397Y008574D02*
X023603Y008574D01*
X023652Y008455D02*
X021348Y008455D01*
X021242Y008337D02*
X023758Y008337D01*
X023755Y007981D02*
X021273Y007981D01*
X021274Y007980D02*
X021220Y008019D01*
X021161Y008049D01*
X021098Y008070D01*
X021033Y008080D01*
X021020Y008080D01*
X021020Y007680D01*
X021420Y007680D01*
X021420Y007693D01*
X021410Y007758D01*
X021389Y007821D01*
X021359Y007880D01*
X021320Y007934D01*
X021274Y007980D01*
X021368Y007863D02*
X023651Y007863D01*
X023602Y007744D02*
X021412Y007744D01*
X021420Y007626D02*
X023600Y007626D01*
X023630Y007507D02*
X021392Y007507D01*
X021322Y007389D02*
X023706Y007389D01*
X021020Y007389D02*
X020980Y007389D01*
X020980Y007507D02*
X021020Y007507D01*
X021020Y007626D02*
X020980Y007626D01*
X020980Y007744D02*
X021020Y007744D01*
X021020Y007863D02*
X020980Y007863D01*
X020980Y007981D02*
X021020Y007981D01*
X020727Y007981D02*
X015245Y007981D01*
X015349Y007863D02*
X020632Y007863D01*
X020588Y007744D02*
X015398Y007744D01*
X015400Y007626D02*
X020580Y007626D01*
X020608Y007507D02*
X015370Y007507D01*
X015294Y007389D02*
X020678Y007389D01*
X020758Y008337D02*
X015242Y008337D01*
X015348Y008455D02*
X020652Y008455D01*
X020603Y008574D02*
X015397Y008574D01*
X015400Y008692D02*
X020600Y008692D01*
X020629Y008811D02*
X015371Y008811D01*
X015297Y008929D02*
X020703Y008929D01*
X021316Y004884D02*
X021123Y004804D01*
X020976Y004657D01*
X020896Y004464D01*
X020896Y004256D01*
X020976Y004063D01*
X021123Y003916D01*
X021316Y003836D01*
X021524Y003836D01*
X021717Y003916D01*
X021864Y004063D01*
X021944Y004256D01*
X021944Y004464D01*
X021864Y004657D01*
X021717Y004804D01*
X021524Y004884D01*
X021316Y004884D01*
X021101Y004782D02*
X020179Y004782D01*
X020157Y004804D02*
X019964Y004884D01*
X019756Y004884D01*
X019563Y004804D01*
X019416Y004657D01*
X019336Y004464D01*
X019336Y004256D01*
X019416Y004063D01*
X019563Y003916D01*
X019756Y003836D01*
X019964Y003836D01*
X020157Y003916D01*
X020304Y004063D01*
X020384Y004256D01*
X020384Y004464D01*
X020304Y004657D01*
X020157Y004804D01*
X020298Y004663D02*
X020982Y004663D01*
X020929Y004545D02*
X020351Y004545D01*
X020384Y004426D02*
X020896Y004426D01*
X020896Y004308D02*
X020384Y004308D01*
X020356Y004189D02*
X020924Y004189D01*
X020973Y004071D02*
X020307Y004071D01*
X020193Y003952D02*
X021087Y003952D01*
X021753Y003952D02*
X022647Y003952D01*
X022683Y003916D02*
X022876Y003836D01*
X023084Y003836D01*
X023277Y003916D01*
X023424Y004063D01*
X023504Y004256D01*
X023504Y004464D01*
X023424Y004657D01*
X023277Y004804D01*
X023084Y004884D01*
X022876Y004884D01*
X022683Y004804D01*
X022536Y004657D01*
X022456Y004464D01*
X022456Y004256D01*
X022536Y004063D01*
X022683Y003916D01*
X022533Y004071D02*
X021867Y004071D01*
X021916Y004189D02*
X022484Y004189D01*
X022456Y004308D02*
X021944Y004308D01*
X021944Y004426D02*
X022456Y004426D01*
X022489Y004545D02*
X021911Y004545D01*
X021858Y004663D02*
X022542Y004663D01*
X022661Y004782D02*
X021739Y004782D01*
X023299Y004782D02*
X024221Y004782D01*
X024243Y004804D02*
X024096Y004657D01*
X024016Y004464D01*
X024016Y004256D01*
X024096Y004063D01*
X024243Y003916D01*
X024436Y003836D01*
X024644Y003836D01*
X024837Y003916D01*
X024984Y004063D01*
X025064Y004256D01*
X025064Y004464D01*
X024984Y004657D01*
X024837Y004804D01*
X024644Y004884D01*
X024436Y004884D01*
X024243Y004804D01*
X024102Y004663D02*
X023418Y004663D01*
X023471Y004545D02*
X024049Y004545D01*
X024016Y004426D02*
X023504Y004426D01*
X023504Y004308D02*
X024016Y004308D01*
X024044Y004189D02*
X023476Y004189D01*
X023427Y004071D02*
X024093Y004071D01*
X024207Y003952D02*
X023313Y003952D01*
X023321Y003360D02*
X024199Y003360D01*
X024089Y003241D02*
X023431Y003241D01*
X023480Y003123D02*
X024040Y003123D01*
X024016Y003004D02*
X023504Y003004D01*
X023504Y002886D02*
X024016Y002886D01*
X024053Y002767D02*
X023467Y002767D01*
X023409Y002649D02*
X024111Y002649D01*
X024229Y002530D02*
X023291Y002530D01*
X022669Y002530D02*
X021731Y002530D01*
X021849Y002649D02*
X022551Y002649D01*
X022493Y002767D02*
X021907Y002767D01*
X021944Y002886D02*
X022456Y002886D01*
X022456Y003004D02*
X021944Y003004D01*
X021920Y003123D02*
X022480Y003123D01*
X022529Y003241D02*
X021871Y003241D01*
X021761Y003360D02*
X022639Y003360D01*
X021079Y003360D02*
X020201Y003360D01*
X020311Y003241D02*
X020969Y003241D01*
X020920Y003123D02*
X020360Y003123D01*
X020384Y003004D02*
X020896Y003004D01*
X020896Y002886D02*
X020384Y002886D01*
X020347Y002767D02*
X020933Y002767D01*
X020991Y002649D02*
X020289Y002649D01*
X020171Y002530D02*
X021109Y002530D01*
X019549Y002530D02*
X018611Y002530D01*
X018729Y002649D02*
X019431Y002649D01*
X019373Y002767D02*
X018787Y002767D01*
X018824Y002886D02*
X019336Y002886D01*
X019336Y003004D02*
X018824Y003004D01*
X018800Y003123D02*
X019360Y003123D01*
X019409Y003241D02*
X018751Y003241D01*
X018641Y003360D02*
X019519Y003360D01*
X019527Y003952D02*
X018633Y003952D01*
X018597Y003916D02*
X018744Y004063D01*
X018824Y004256D01*
X018824Y004464D01*
X018744Y004657D01*
X018597Y004804D01*
X018404Y004884D01*
X018196Y004884D01*
X018003Y004804D01*
X017856Y004657D01*
X017776Y004464D01*
X017776Y004256D01*
X017856Y004063D01*
X018003Y003916D01*
X018196Y003836D01*
X018404Y003836D01*
X018597Y003916D01*
X018747Y004071D02*
X019413Y004071D01*
X019364Y004189D02*
X018796Y004189D01*
X018824Y004308D02*
X019336Y004308D01*
X019336Y004426D02*
X018824Y004426D01*
X018791Y004545D02*
X019369Y004545D01*
X019422Y004663D02*
X018738Y004663D01*
X018619Y004782D02*
X019541Y004782D01*
X017981Y004782D02*
X017059Y004782D01*
X017037Y004804D02*
X016844Y004884D01*
X016636Y004884D01*
X016443Y004804D01*
X016296Y004657D01*
X016216Y004464D01*
X016216Y004256D01*
X016296Y004063D01*
X016443Y003916D01*
X016636Y003836D01*
X016844Y003836D01*
X017037Y003916D01*
X017184Y004063D01*
X017264Y004256D01*
X017264Y004464D01*
X017184Y004657D01*
X017037Y004804D01*
X017178Y004663D02*
X017862Y004663D01*
X017809Y004545D02*
X017231Y004545D01*
X017264Y004426D02*
X017776Y004426D01*
X017776Y004308D02*
X017264Y004308D01*
X017236Y004189D02*
X017804Y004189D01*
X017853Y004071D02*
X017187Y004071D01*
X017073Y003952D02*
X017967Y003952D01*
X017959Y003360D02*
X017081Y003360D01*
X017191Y003241D02*
X017849Y003241D01*
X017800Y003123D02*
X017240Y003123D01*
X017264Y003004D02*
X017776Y003004D01*
X017776Y002886D02*
X017264Y002886D01*
X017227Y002767D02*
X017813Y002767D01*
X017871Y002649D02*
X017169Y002649D01*
X017051Y002530D02*
X017989Y002530D01*
X016429Y002530D02*
X015491Y002530D01*
X015609Y002649D02*
X016311Y002649D01*
X016253Y002767D02*
X015667Y002767D01*
X015704Y002886D02*
X016216Y002886D01*
X016216Y003004D02*
X015704Y003004D01*
X015680Y003123D02*
X016240Y003123D01*
X016289Y003241D02*
X015631Y003241D01*
X015521Y003360D02*
X016399Y003360D01*
X016407Y003952D02*
X015513Y003952D01*
X015477Y003916D02*
X015624Y004063D01*
X015704Y004256D01*
X015704Y004464D01*
X015624Y004657D01*
X015477Y004804D01*
X015284Y004884D01*
X015076Y004884D01*
X014883Y004804D01*
X014736Y004657D01*
X014656Y004464D01*
X014656Y004256D01*
X014736Y004063D01*
X014883Y003916D01*
X015076Y003836D01*
X015284Y003836D01*
X015477Y003916D01*
X015627Y004071D02*
X016293Y004071D01*
X016244Y004189D02*
X015676Y004189D01*
X015704Y004308D02*
X016216Y004308D01*
X016216Y004426D02*
X015704Y004426D01*
X015671Y004545D02*
X016249Y004545D01*
X016302Y004663D02*
X015618Y004663D01*
X015499Y004782D02*
X016421Y004782D01*
X014861Y004782D02*
X013939Y004782D01*
X014058Y004663D02*
X014742Y004663D01*
X014689Y004545D02*
X014111Y004545D01*
X014144Y004426D02*
X014656Y004426D01*
X014656Y004308D02*
X014144Y004308D01*
X014116Y004189D02*
X014684Y004189D01*
X014733Y004071D02*
X014067Y004071D01*
X013953Y003952D02*
X014847Y003952D01*
X014839Y003360D02*
X013961Y003360D01*
X014071Y003241D02*
X014729Y003241D01*
X014680Y003123D02*
X014120Y003123D01*
X014144Y003004D02*
X014656Y003004D01*
X014656Y002886D02*
X014144Y002886D01*
X014107Y002767D02*
X014693Y002767D01*
X014751Y002649D02*
X014049Y002649D01*
X013931Y002530D02*
X014869Y002530D01*
X007814Y003360D02*
X004186Y003360D01*
X004222Y003374D02*
X004317Y003469D01*
X004368Y003593D01*
X004368Y003727D01*
X004317Y003851D01*
X004222Y003946D01*
X004098Y003997D01*
X003964Y003997D01*
X003841Y003946D01*
X003746Y003851D01*
X003722Y003793D01*
X003707Y003830D01*
X003623Y003914D01*
X003512Y003960D01*
X003393Y003960D01*
X003283Y003914D01*
X003198Y003830D01*
X003153Y003720D01*
X003153Y003600D01*
X003198Y003490D01*
X003283Y003406D01*
X003393Y003360D01*
X003512Y003360D01*
X003623Y003406D01*
X003707Y003490D01*
X003722Y003527D01*
X003746Y003469D01*
X003841Y003374D01*
X003964Y003323D01*
X004098Y003323D01*
X004222Y003374D01*
X004321Y003478D02*
X004785Y003478D01*
X004773Y003490D02*
X004858Y003406D01*
X004968Y003360D01*
X005087Y003360D01*
X005197Y003406D01*
X005282Y003490D01*
X005328Y003600D01*
X005328Y003720D01*
X005282Y003830D01*
X005197Y003914D01*
X005087Y003960D01*
X004968Y003960D01*
X004858Y003914D01*
X004773Y003830D01*
X004728Y003720D01*
X004728Y003600D01*
X004773Y003490D01*
X004729Y003597D02*
X004368Y003597D01*
X004368Y003715D02*
X004728Y003715D01*
X004777Y003834D02*
X004324Y003834D01*
X004207Y003952D02*
X004949Y003952D01*
X005107Y003952D02*
X006917Y003952D01*
X006936Y003960D02*
X006826Y003914D01*
X006742Y003830D01*
X006696Y003720D01*
X006696Y003600D01*
X006742Y003490D01*
X006826Y003406D01*
X006936Y003360D01*
X007056Y003360D01*
X007166Y003406D01*
X007250Y003490D01*
X007296Y003600D01*
X007296Y003720D01*
X007250Y003830D01*
X007166Y003914D01*
X007056Y003960D01*
X006936Y003960D01*
X007075Y003952D02*
X007793Y003952D01*
X007676Y003834D02*
X007247Y003834D01*
X007296Y003715D02*
X007632Y003715D01*
X007632Y003597D02*
X007294Y003597D01*
X007238Y003478D02*
X007679Y003478D01*
X006754Y003478D02*
X005270Y003478D01*
X005326Y003597D02*
X006698Y003597D01*
X006696Y003715D02*
X005328Y003715D01*
X005278Y003834D02*
X006745Y003834D01*
X006659Y005019D02*
X006524Y005019D01*
X006536Y005137D02*
X006408Y005137D01*
X006499Y005256D02*
X006312Y005256D01*
X006300Y005374D02*
X006511Y005374D01*
X006582Y005493D02*
X006229Y005493D01*
X005605Y005848D02*
X005429Y005848D01*
X005466Y005730D02*
X005281Y005730D01*
X005328Y005611D02*
X005133Y005611D01*
X005008Y005493D02*
X004985Y005493D01*
X004937Y005374D02*
X004836Y005374D01*
X004924Y005256D02*
X004737Y005256D01*
X004700Y005137D02*
X004961Y005137D01*
X005084Y005019D02*
X004578Y005019D01*
X004296Y005019D02*
X000500Y005019D01*
X000500Y005137D02*
X004174Y005137D01*
X004137Y005256D02*
X000500Y005256D01*
X000500Y005374D02*
X004149Y005374D01*
X004220Y005493D02*
X000500Y005493D01*
X000500Y005611D02*
X004556Y005611D01*
X004705Y005730D02*
X000500Y005730D01*
X000500Y005848D02*
X004853Y005848D01*
X005001Y005967D02*
X000500Y005967D01*
X000500Y006085D02*
X005149Y006085D01*
X005297Y006204D02*
X000500Y006204D01*
X000500Y006322D02*
X005445Y006322D01*
X005725Y006085D02*
X005881Y006085D01*
X005743Y005967D02*
X005577Y005967D01*
X003856Y003952D02*
X003532Y003952D01*
X003374Y003952D02*
X000500Y003952D01*
X000500Y003834D02*
X003202Y003834D01*
X003153Y003715D02*
X000500Y003715D01*
X000500Y003597D02*
X003154Y003597D01*
X003210Y003478D02*
X000500Y003478D01*
X000500Y003360D02*
X003877Y003360D01*
X003742Y003478D02*
X003695Y003478D01*
X003704Y003834D02*
X003739Y003834D01*
X000972Y002056D02*
X000500Y002056D01*
X000500Y001938D02*
X000807Y001938D01*
X000688Y001819D02*
X000500Y001819D01*
X000500Y001701D02*
X000611Y001701D01*
X000543Y001582D02*
X000500Y001582D01*
X000500Y001464D02*
X000505Y001464D01*
X024851Y002530D02*
X025789Y002530D01*
X025671Y002649D02*
X024969Y002649D01*
X025027Y002767D02*
X025613Y002767D01*
X025576Y002886D02*
X025064Y002886D01*
X025064Y003004D02*
X025576Y003004D01*
X025600Y003123D02*
X025040Y003123D01*
X024991Y003241D02*
X025649Y003241D01*
X025759Y003360D02*
X024881Y003360D01*
X024873Y003952D02*
X025767Y003952D01*
X025803Y003916D02*
X025996Y003836D01*
X026204Y003836D01*
X026397Y003916D01*
X026544Y004063D01*
X026624Y004256D01*
X026624Y004464D01*
X026544Y004657D01*
X026397Y004804D01*
X026204Y004884D01*
X025996Y004884D01*
X025803Y004804D01*
X025656Y004657D01*
X025576Y004464D01*
X025576Y004256D01*
X025656Y004063D01*
X025803Y003916D01*
X025653Y004071D02*
X024987Y004071D01*
X025036Y004189D02*
X025604Y004189D01*
X025576Y004308D02*
X025064Y004308D01*
X025064Y004426D02*
X025576Y004426D01*
X025609Y004545D02*
X025031Y004545D01*
X024978Y004663D02*
X025662Y004663D01*
X025781Y004782D02*
X024859Y004782D01*
X026419Y004782D02*
X027341Y004782D01*
X027363Y004804D02*
X027216Y004657D01*
X027136Y004464D01*
X027136Y004256D01*
X027216Y004063D01*
X027363Y003916D01*
X027556Y003836D01*
X027764Y003836D01*
X027957Y003916D01*
X028104Y004063D01*
X028184Y004256D01*
X028184Y004464D01*
X028104Y004657D01*
X027957Y004804D01*
X027764Y004884D01*
X027556Y004884D01*
X027363Y004804D01*
X027222Y004663D02*
X026538Y004663D01*
X026591Y004545D02*
X027169Y004545D01*
X027136Y004426D02*
X026624Y004426D01*
X026624Y004308D02*
X027136Y004308D01*
X027164Y004189D02*
X026596Y004189D01*
X026547Y004071D02*
X027213Y004071D01*
X027327Y003952D02*
X026433Y003952D01*
X026441Y003360D02*
X027319Y003360D01*
X027209Y003241D02*
X026551Y003241D01*
X026600Y003123D02*
X027160Y003123D01*
X027136Y003004D02*
X026624Y003004D01*
X026624Y002886D02*
X027136Y002886D01*
X027173Y002767D02*
X026587Y002767D01*
X026529Y002649D02*
X027231Y002649D01*
X027349Y002530D02*
X026411Y002530D01*
X027971Y002530D02*
X028909Y002530D01*
X028791Y002649D02*
X028089Y002649D01*
X028147Y002767D02*
X028733Y002767D01*
X028696Y002886D02*
X028184Y002886D01*
X028184Y003004D02*
X028696Y003004D01*
X028720Y003123D02*
X028160Y003123D01*
X028111Y003241D02*
X028769Y003241D01*
X028879Y003360D02*
X028001Y003360D01*
X027993Y003952D02*
X028887Y003952D01*
X028923Y003916D02*
X029116Y003836D01*
X029324Y003836D01*
X029517Y003916D01*
X029664Y004063D01*
X029744Y004256D01*
X029744Y004464D01*
X029664Y004657D01*
X029517Y004804D01*
X029324Y004884D01*
X029116Y004884D01*
X028923Y004804D01*
X028776Y004657D01*
X028696Y004464D01*
X028696Y004256D01*
X028776Y004063D01*
X028923Y003916D01*
X028773Y004071D02*
X028107Y004071D01*
X028156Y004189D02*
X028724Y004189D01*
X028696Y004308D02*
X028184Y004308D01*
X028184Y004426D02*
X028696Y004426D01*
X028729Y004545D02*
X028151Y004545D01*
X028098Y004663D02*
X028782Y004663D01*
X028901Y004782D02*
X027979Y004782D01*
X029539Y004782D02*
X030461Y004782D01*
X030483Y004804D02*
X030336Y004657D01*
X030256Y004464D01*
X030256Y004256D01*
X030336Y004063D01*
X030483Y003916D01*
X030676Y003836D01*
X030884Y003836D01*
X031077Y003916D01*
X031224Y004063D01*
X031304Y004256D01*
X031304Y004464D01*
X031224Y004657D01*
X031077Y004804D01*
X030884Y004884D01*
X030676Y004884D01*
X030483Y004804D01*
X030342Y004663D02*
X029658Y004663D01*
X029711Y004545D02*
X030289Y004545D01*
X030256Y004426D02*
X029744Y004426D01*
X029744Y004308D02*
X030256Y004308D01*
X030284Y004189D02*
X029716Y004189D01*
X029667Y004071D02*
X030333Y004071D01*
X030447Y003952D02*
X029553Y003952D01*
X029561Y003360D02*
X030439Y003360D01*
X030329Y003241D02*
X029671Y003241D01*
X029720Y003123D02*
X030280Y003123D01*
X030256Y003004D02*
X029744Y003004D01*
X029744Y002886D02*
X030256Y002886D01*
X030293Y002767D02*
X029707Y002767D01*
X029649Y002649D02*
X030351Y002649D01*
X030469Y002530D02*
X029531Y002530D01*
X031091Y002530D02*
X032029Y002530D01*
X031911Y002649D02*
X031209Y002649D01*
X031267Y002767D02*
X031853Y002767D01*
X031816Y002886D02*
X031304Y002886D01*
X031304Y003004D02*
X031816Y003004D01*
X031840Y003123D02*
X031280Y003123D01*
X031231Y003241D02*
X031889Y003241D01*
X031999Y003360D02*
X031121Y003360D01*
X031113Y003952D02*
X032007Y003952D01*
X032043Y003916D02*
X032236Y003836D01*
X032444Y003836D01*
X032637Y003916D01*
X032784Y004063D01*
X032864Y004256D01*
X032864Y004464D01*
X032784Y004657D01*
X032637Y004804D01*
X032444Y004884D01*
X032236Y004884D01*
X032043Y004804D01*
X031896Y004657D01*
X031816Y004464D01*
X031816Y004256D01*
X031896Y004063D01*
X032043Y003916D01*
X031893Y004071D02*
X031227Y004071D01*
X031276Y004189D02*
X031844Y004189D01*
X031816Y004308D02*
X031304Y004308D01*
X031304Y004426D02*
X031816Y004426D01*
X031849Y004545D02*
X031271Y004545D01*
X031218Y004663D02*
X031902Y004663D01*
X032021Y004782D02*
X031099Y004782D01*
X032659Y004782D02*
X033581Y004782D01*
X033603Y004804D02*
X033456Y004657D01*
X033376Y004464D01*
X033376Y004256D01*
X033456Y004063D01*
X033603Y003916D01*
X033796Y003836D01*
X034004Y003836D01*
X034197Y003916D01*
X034344Y004063D01*
X034424Y004256D01*
X034424Y004464D01*
X034344Y004657D01*
X034197Y004804D01*
X034004Y004884D01*
X033796Y004884D01*
X033603Y004804D01*
X033462Y004663D02*
X032778Y004663D01*
X032831Y004545D02*
X033409Y004545D01*
X033376Y004426D02*
X032864Y004426D01*
X032864Y004308D02*
X033376Y004308D01*
X033404Y004189D02*
X032836Y004189D01*
X032787Y004071D02*
X033453Y004071D01*
X033567Y003952D02*
X032673Y003952D01*
X032681Y003360D02*
X033559Y003360D01*
X033449Y003241D02*
X032791Y003241D01*
X032840Y003123D02*
X033400Y003123D01*
X033376Y003004D02*
X032864Y003004D01*
X032864Y002886D02*
X033376Y002886D01*
X033413Y002767D02*
X032827Y002767D01*
X032769Y002649D02*
X033471Y002649D01*
X033589Y002530D02*
X032651Y002530D01*
X034211Y002530D02*
X035149Y002530D01*
X035031Y002649D02*
X034329Y002649D01*
X034387Y002767D02*
X034973Y002767D01*
X034936Y002886D02*
X034424Y002886D01*
X034424Y003004D02*
X034936Y003004D01*
X034960Y003123D02*
X034400Y003123D01*
X034351Y003241D02*
X035009Y003241D01*
X035119Y003360D02*
X034241Y003360D01*
X034233Y003952D02*
X035127Y003952D01*
X035163Y003916D02*
X035356Y003836D01*
X035564Y003836D01*
X035757Y003916D01*
X035904Y004063D01*
X035984Y004256D01*
X035984Y004464D01*
X035904Y004657D01*
X035757Y004804D01*
X035564Y004884D01*
X035356Y004884D01*
X035163Y004804D01*
X035016Y004657D01*
X034936Y004464D01*
X034936Y004256D01*
X035016Y004063D01*
X035163Y003916D01*
X035013Y004071D02*
X034347Y004071D01*
X034396Y004189D02*
X034964Y004189D01*
X034936Y004308D02*
X034424Y004308D01*
X034424Y004426D02*
X034936Y004426D01*
X034969Y004545D02*
X034391Y004545D01*
X034338Y004663D02*
X035022Y004663D01*
X035141Y004782D02*
X034219Y004782D01*
X035779Y004782D02*
X036701Y004782D01*
X036723Y004804D02*
X036576Y004657D01*
X036496Y004464D01*
X036496Y004256D01*
X036576Y004063D01*
X036723Y003916D01*
X036916Y003836D01*
X037124Y003836D01*
X037317Y003916D01*
X037464Y004063D01*
X037544Y004256D01*
X037544Y004464D01*
X037464Y004657D01*
X037317Y004804D01*
X037124Y004884D01*
X036916Y004884D01*
X036723Y004804D01*
X036582Y004663D02*
X035898Y004663D01*
X035951Y004545D02*
X036529Y004545D01*
X036496Y004426D02*
X035984Y004426D01*
X035984Y004308D02*
X036496Y004308D01*
X036524Y004189D02*
X035956Y004189D01*
X035907Y004071D02*
X036573Y004071D01*
X036687Y003952D02*
X035793Y003952D01*
X035801Y003360D02*
X036679Y003360D01*
X036569Y003241D02*
X035911Y003241D01*
X035960Y003123D02*
X036520Y003123D01*
X036496Y003004D02*
X035984Y003004D01*
X035984Y002886D02*
X036496Y002886D01*
X036533Y002767D02*
X035947Y002767D01*
X035889Y002649D02*
X036591Y002649D01*
X036709Y002530D02*
X035771Y002530D01*
X037331Y002530D02*
X038269Y002530D01*
X038151Y002649D02*
X037449Y002649D01*
X037507Y002767D02*
X038093Y002767D01*
X038056Y002886D02*
X037544Y002886D01*
X037544Y003004D02*
X038056Y003004D01*
X038080Y003123D02*
X037520Y003123D01*
X037471Y003241D02*
X038129Y003241D01*
X038239Y003360D02*
X037361Y003360D01*
X037353Y003952D02*
X038247Y003952D01*
X038283Y003916D02*
X038476Y003836D01*
X038684Y003836D01*
X038877Y003916D01*
X039024Y004063D01*
X039104Y004256D01*
X039104Y004464D01*
X039024Y004657D01*
X038877Y004804D01*
X038684Y004884D01*
X038476Y004884D01*
X038283Y004804D01*
X038136Y004657D01*
X038056Y004464D01*
X038056Y004256D01*
X038136Y004063D01*
X038283Y003916D01*
X038133Y004071D02*
X037467Y004071D01*
X037516Y004189D02*
X038084Y004189D01*
X038056Y004308D02*
X037544Y004308D01*
X037544Y004426D02*
X038056Y004426D01*
X038089Y004545D02*
X037511Y004545D01*
X037458Y004663D02*
X038142Y004663D01*
X038261Y004782D02*
X037339Y004782D01*
X038899Y004782D02*
X039821Y004782D01*
X039843Y004804D02*
X039696Y004657D01*
X039616Y004464D01*
X039616Y004256D01*
X039696Y004063D01*
X039843Y003916D01*
X040036Y003836D01*
X040244Y003836D01*
X040437Y003916D01*
X040584Y004063D01*
X040664Y004256D01*
X040664Y004464D01*
X040584Y004657D01*
X040437Y004804D01*
X040244Y004884D01*
X040036Y004884D01*
X039843Y004804D01*
X039702Y004663D02*
X039018Y004663D01*
X039071Y004545D02*
X039649Y004545D01*
X039616Y004426D02*
X039104Y004426D01*
X039104Y004308D02*
X039616Y004308D01*
X039644Y004189D02*
X039076Y004189D01*
X039027Y004071D02*
X039693Y004071D01*
X039807Y003952D02*
X038913Y003952D01*
X038921Y003360D02*
X039799Y003360D01*
X039689Y003241D02*
X039031Y003241D01*
X039080Y003123D02*
X039640Y003123D01*
X039616Y003004D02*
X039104Y003004D01*
X039104Y002886D02*
X039616Y002886D01*
X039653Y002767D02*
X039067Y002767D01*
X039009Y002649D02*
X039711Y002649D01*
X039829Y002530D02*
X038891Y002530D01*
X040451Y002530D02*
X041389Y002530D01*
X041271Y002649D02*
X040569Y002649D01*
X040627Y002767D02*
X041213Y002767D01*
X041176Y002886D02*
X040664Y002886D01*
X040664Y003004D02*
X041176Y003004D01*
X041200Y003123D02*
X040640Y003123D01*
X040591Y003241D02*
X041249Y003241D01*
X041359Y003360D02*
X040481Y003360D01*
X040473Y003952D02*
X041367Y003952D01*
X041403Y003916D02*
X041596Y003836D01*
X041804Y003836D01*
X041997Y003916D01*
X042144Y004063D01*
X042224Y004256D01*
X042224Y004464D01*
X042144Y004657D01*
X041997Y004804D01*
X041804Y004884D01*
X041596Y004884D01*
X041403Y004804D01*
X041256Y004657D01*
X041176Y004464D01*
X041176Y004256D01*
X041256Y004063D01*
X041403Y003916D01*
X041253Y004071D02*
X040587Y004071D01*
X040636Y004189D02*
X041204Y004189D01*
X041176Y004308D02*
X040664Y004308D01*
X040664Y004426D02*
X041176Y004426D01*
X041209Y004545D02*
X040631Y004545D01*
X040578Y004663D02*
X041262Y004663D01*
X041381Y004782D02*
X040459Y004782D01*
X042019Y004782D02*
X042915Y004782D01*
X042808Y004663D02*
X042138Y004663D01*
X042191Y004545D02*
X042748Y004545D01*
X042720Y004426D02*
X042224Y004426D01*
X042224Y004308D02*
X043200Y004308D01*
X043200Y004426D02*
X043320Y004426D01*
X043320Y004308D02*
X044296Y004308D01*
X044296Y004256D02*
X044376Y004063D01*
X044523Y003916D01*
X044716Y003836D01*
X044924Y003836D01*
X045117Y003916D01*
X045264Y004063D01*
X045344Y004256D01*
X045344Y004464D01*
X045264Y004657D01*
X045117Y004804D01*
X044924Y004884D01*
X044716Y004884D01*
X044523Y004804D01*
X044376Y004657D01*
X044296Y004464D01*
X044296Y004256D01*
X044324Y004189D02*
X043776Y004189D01*
X043722Y004071D02*
X044373Y004071D01*
X044487Y003952D02*
X043621Y003952D01*
X043320Y003952D02*
X043200Y003952D01*
X043200Y004071D02*
X043320Y004071D01*
X043320Y004189D02*
X043200Y004189D01*
X043200Y004545D02*
X043320Y004545D01*
X043320Y004663D02*
X043200Y004663D01*
X043200Y004782D02*
X043320Y004782D01*
X043605Y004782D02*
X044501Y004782D01*
X044382Y004663D02*
X043712Y004663D01*
X043772Y004545D02*
X044329Y004545D01*
X044296Y004426D02*
X043800Y004426D01*
X042899Y003952D02*
X042033Y003952D01*
X042147Y004071D02*
X042798Y004071D01*
X042744Y004189D02*
X042196Y004189D01*
X042041Y003360D02*
X042890Y003360D01*
X042793Y003241D02*
X042151Y003241D01*
X042200Y003123D02*
X042741Y003123D01*
X042721Y002886D02*
X042224Y002886D01*
X042224Y003004D02*
X043200Y003004D01*
X043200Y002886D02*
X043320Y002886D01*
X043320Y002900D02*
X043320Y002419D01*
X043387Y002430D01*
X043469Y002456D01*
X043545Y002495D01*
X043614Y002545D01*
X043675Y002606D01*
X043725Y002675D01*
X043764Y002751D01*
X043790Y002833D01*
X043801Y002900D01*
X043320Y002900D01*
X043320Y003004D02*
X044296Y003004D01*
X044296Y002886D02*
X043799Y002886D01*
X043769Y002767D02*
X044333Y002767D01*
X044391Y002649D02*
X043706Y002649D01*
X043593Y002530D02*
X044509Y002530D01*
X044320Y003123D02*
X043779Y003123D01*
X043727Y003241D02*
X044369Y003241D01*
X044479Y003360D02*
X043630Y003360D01*
X043320Y003360D02*
X043200Y003360D01*
X043200Y003241D02*
X043320Y003241D01*
X043320Y003123D02*
X043200Y003123D01*
X043200Y002767D02*
X043320Y002767D01*
X043320Y002649D02*
X043200Y002649D01*
X043200Y002530D02*
X043320Y002530D01*
X042927Y002530D02*
X042011Y002530D01*
X042129Y002649D02*
X042814Y002649D01*
X042751Y002767D02*
X042187Y002767D01*
X045131Y002530D02*
X046069Y002530D01*
X045951Y002649D02*
X045249Y002649D01*
X045307Y002767D02*
X045893Y002767D01*
X045856Y002886D02*
X045344Y002886D01*
X045344Y003004D02*
X045856Y003004D01*
X045880Y003123D02*
X045320Y003123D01*
X045271Y003241D02*
X045929Y003241D01*
X046039Y003360D02*
X045161Y003360D01*
X045153Y003952D02*
X046047Y003952D01*
X045933Y004071D02*
X045267Y004071D01*
X045316Y004189D02*
X045884Y004189D01*
X045856Y004308D02*
X045344Y004308D01*
X045344Y004426D02*
X045856Y004426D01*
X045889Y004545D02*
X045311Y004545D01*
X045258Y004663D02*
X045942Y004663D01*
X046061Y004782D02*
X045139Y004782D01*
X048223Y022320D02*
X050500Y022320D01*
X050500Y022438D02*
X048341Y022438D01*
X048390Y022557D02*
X050500Y022557D01*
X050500Y022675D02*
X048400Y022675D01*
X048378Y022794D02*
X050500Y022794D01*
X050500Y022912D02*
X048314Y022912D01*
X050500Y026112D02*
X000500Y026112D01*
X000500Y026230D02*
X050500Y026230D01*
X007808Y023031D02*
X007192Y023031D01*
X007277Y022912D02*
X007315Y022912D01*
X007685Y022912D02*
X007723Y022912D01*
D16*
X007000Y008410D03*
M02*
