%
M48
M72
T01C0.0140
T02C0.0160
T03C0.0320
T04C0.0354
T05C0.0394
T06C0.0512
T07C0.1800
%
T01
X7000Y8410
T02
X3315Y23979
X11661Y23979
X8000Y22798
X7500Y22730
X7000Y22798
X7488Y24668
X17125Y25660
X17125Y23660
X17125Y21660
X17125Y19660
X26125Y7660
X45875Y26660
X36875Y26660
X4437Y5285
X3453Y3660
X5028Y3660
X5224Y5285
X6012Y5285
X6799Y5285
X6996Y3660
X6000Y2035
X8652Y7345
X7783Y7345
X7232Y7345
X7000Y8910
X8271Y10987
X7503Y10987
X7000Y9910
X8000Y9910
X9063Y9410
X8000Y8910
X7000Y9410
X6406Y7345
X6012Y7345
X4375Y9910
X4375Y9410
X2317Y12588
X3892Y14560
X3892Y15015
X1750Y15172
X1750Y14148
X5875Y16535
X6875Y15535
X7250Y14410
X8250Y15660
X7813Y15223
X9375Y16775
X9063Y16473
X10000Y15723
X10313Y16035
X8750Y16160
X9005Y17910
X9375Y17540
X7750Y19910
X7250Y19910
X5943Y19478
X6808Y18718
X6375Y18295
X5625Y17535
X2317Y11998
X8563Y18348
T03
X15000Y7660
X15000Y8660
X15000Y9660
X15000Y10660
X15000Y11660
X15000Y12660
X15000Y13660
X15000Y14660
X15000Y15660
X15000Y16660
X15000Y17660
X15000Y18660
X15000Y19660
X15000Y20660
X15000Y21660
X15000Y22660
X15000Y23660
X15000Y24660
X15000Y25660
X15000Y26660
X21000Y7660
X21000Y8660
X21000Y9660
X21000Y10660
X21000Y11660
X21000Y12660
X21000Y13660
X21000Y14660
X21000Y15660
X21000Y16660
X21000Y17660
X21000Y18660
X21000Y19660
X21000Y20660
X21000Y21660
X21000Y22660
X21000Y23660
X21000Y24660
X21000Y25660
X21000Y26660
X24000Y16660
X24000Y15660
X24000Y14660
X24000Y13660
X24000Y12660
X24000Y11660
X24000Y10660
X24000Y9660
X24000Y8660
X24000Y7660
X30000Y7660
X30000Y8660
X30000Y9660
X30000Y10660
X30000Y11660
X30000Y12660
X30000Y13660
X30000Y14660
X30000Y15660
X30000Y16660
X30000Y17660
X30000Y18660
X30000Y19660
X30000Y20660
X30000Y21660
X30000Y22660
X30000Y23660
X30000Y24660
X30000Y25660
X30000Y26660
X33000Y26660
X33000Y25660
X33000Y24660
X33000Y23660
X33000Y22660
X33000Y21660
X33000Y20660
X33000Y19660
X33000Y18660
X33000Y17660
X33000Y16660
X33000Y15660
X33000Y14660
X33000Y13660
X39000Y26660
X42000Y26660
X42000Y25660
X42000Y24660
X42000Y23660
X42000Y22660
X42000Y21660
X42000Y20660
X42000Y19660
X42000Y18660
X42000Y17660
X42000Y16660
X42000Y15660
X42000Y14660
X42000Y13660
X48000Y26660
X48000Y25660
X48000Y24660
X48000Y23660
X48000Y22660
X48000Y21660
X48000Y20660
X48000Y19660
X48000Y18660
X48000Y17660
X48000Y16660
X48000Y15660
X48000Y14660
X48000Y13660
X39000Y13660
X39000Y14660
X39000Y15660
X39000Y16660
X39000Y17660
X39000Y18660
X39000Y19660
X39000Y20660
X39000Y21660
X39000Y22660
X39000Y23660
X39000Y24660
X39000Y25660
X24000Y26660
X24000Y25660
X24000Y24660
X24000Y23660
X24000Y22660
X24000Y21660
X24000Y20660
X24000Y19660
X24000Y18660
X24000Y17660
T04
X1071Y13361
X1071Y15959
T05
X4031Y3660
X7969Y3660
T06
X46380Y4360
X44820Y4360
X43260Y4360
X41700Y4360
X40140Y4360
X38580Y4360
X37020Y4360
X35460Y4360
X33900Y4360
X32340Y4360
X30780Y4360
X30780Y2960
X29220Y2960
X27660Y2960
X26100Y2960
X24540Y2960
X22980Y2960
X21420Y2960
X19860Y2960
X18300Y2960
X16740Y2960
X15180Y2960
X13620Y2960
X13620Y4360
X15180Y4360
X16740Y4360
X18300Y4360
X19860Y4360
X21420Y4360
X22980Y4360
X24540Y4360
X26100Y4360
X27660Y4360
X29220Y4360
X32340Y2960
X33900Y2960
X35460Y2960
X37020Y2960
X38580Y2960
X40140Y2960
X41700Y2960
X43260Y2960
X44820Y2960
X46380Y2960
T07
X1500Y28160
X49500Y28160
X49500Y1160
X1500Y1160
M30
