G75*
%MOIN*%
%OFA0B0*%
%FSLAX24Y24*%
%IPPOS*%
%LPD*%
%AMOC8*
5,1,8,0,0,1.08239X$1,22.5*
%
%ADD10R,0.0433X0.0394*%
%ADD11C,0.0554*%
%ADD12C,0.0768*%
%ADD13R,0.0866X0.0236*%
%ADD14C,0.0520*%
%ADD15C,0.0320*%
%ADD16C,0.0120*%
%ADD17C,0.0240*%
%ADD18C,0.0300*%
%ADD19C,0.0080*%
%ADD20C,0.0160*%
D10*
X005665Y003660D03*
X006335Y003660D03*
X007165Y007810D03*
X007835Y007810D03*
X005585Y008910D03*
X005585Y009410D03*
X005585Y009910D03*
X004915Y009910D03*
X004915Y009410D03*
X004915Y008910D03*
X007165Y010535D03*
X007835Y010535D03*
G36*
X008571Y015310D02*
X008876Y015615D01*
X009155Y015336D01*
X008850Y015031D01*
X008571Y015310D01*
G37*
G36*
X009045Y015784D02*
X009350Y016089D01*
X009629Y015810D01*
X009324Y015505D01*
X009045Y015784D01*
G37*
G36*
X006150Y015031D02*
X005845Y015336D01*
X006124Y015615D01*
X006429Y015310D01*
X006150Y015031D01*
G37*
G36*
X005676Y015505D02*
X005371Y015810D01*
X005650Y016089D01*
X005955Y015784D01*
X005676Y015505D01*
G37*
G36*
X005955Y018536D02*
X005650Y018231D01*
X005371Y018510D01*
X005676Y018815D01*
X005955Y018536D01*
G37*
G36*
X006429Y019010D02*
X006124Y018705D01*
X005845Y018984D01*
X006150Y019289D01*
X006429Y019010D01*
G37*
G36*
X008850Y019289D02*
X009155Y018984D01*
X008876Y018705D01*
X008571Y019010D01*
X008850Y019289D01*
G37*
G36*
X009324Y018815D02*
X009629Y018510D01*
X009350Y018231D01*
X009045Y018536D01*
X009324Y018815D01*
G37*
X015790Y019660D03*
X016460Y019660D03*
X016460Y021660D03*
X015790Y021660D03*
X015790Y023660D03*
X016460Y023660D03*
X016460Y025660D03*
X015790Y025660D03*
X007835Y023684D03*
X007165Y023684D03*
X024790Y007660D03*
X025460Y007660D03*
X037540Y026660D03*
X038210Y026660D03*
X046540Y026660D03*
X047210Y026660D03*
D11*
X001071Y015959D03*
X001071Y013361D03*
D12*
X013620Y004360D03*
X015180Y004360D03*
X015180Y002960D03*
X013620Y002960D03*
X016740Y002960D03*
X018300Y002960D03*
X019860Y002960D03*
X021420Y002960D03*
X022980Y002960D03*
X024540Y002960D03*
X026100Y002960D03*
X027660Y002960D03*
X029220Y002960D03*
X030780Y002960D03*
X032340Y002960D03*
X033900Y002960D03*
X035460Y002960D03*
X035460Y004360D03*
X033900Y004360D03*
X032340Y004360D03*
X030780Y004360D03*
X029220Y004360D03*
X027660Y004360D03*
X026100Y004360D03*
X024540Y004360D03*
X022980Y004360D03*
X021420Y004360D03*
X019860Y004360D03*
X018300Y004360D03*
X016740Y004360D03*
X037020Y004360D03*
X038580Y004360D03*
X040140Y004360D03*
X041700Y004360D03*
X043260Y004360D03*
X044820Y004360D03*
X046380Y004360D03*
X046380Y002960D03*
X044820Y002960D03*
X043260Y002960D03*
X041700Y002960D03*
X040140Y002960D03*
X038580Y002960D03*
X037020Y002960D03*
D13*
X008524Y008410D03*
X008524Y008910D03*
X008524Y009410D03*
X008524Y009910D03*
X006476Y009910D03*
X006476Y009410D03*
X006476Y008910D03*
X006476Y008410D03*
D14*
X015000Y008660D03*
X015000Y007660D03*
X015000Y009660D03*
X015000Y010660D03*
X015000Y011660D03*
X015000Y012660D03*
X015000Y013660D03*
X015000Y014660D03*
X015000Y015660D03*
X015000Y016660D03*
X015000Y017660D03*
X015000Y018660D03*
X015000Y019660D03*
X015000Y020660D03*
X015000Y021660D03*
X015000Y022660D03*
X015000Y023660D03*
X015000Y024660D03*
X015000Y025660D03*
X015000Y026660D03*
X021000Y026660D03*
X021000Y025660D03*
X021000Y024660D03*
X021000Y023660D03*
X021000Y022660D03*
X021000Y021660D03*
X021000Y020660D03*
X021000Y019660D03*
X021000Y018660D03*
X021000Y017660D03*
X021000Y016660D03*
X021000Y015660D03*
X021000Y014660D03*
X021000Y013660D03*
X021000Y012660D03*
X021000Y011660D03*
X021000Y010660D03*
X021000Y009660D03*
X021000Y008660D03*
X021000Y007660D03*
X024000Y007660D03*
X024000Y008660D03*
X024000Y009660D03*
X024000Y010660D03*
X024000Y011660D03*
X024000Y012660D03*
X024000Y013660D03*
X024000Y014660D03*
X024000Y015660D03*
X024000Y016660D03*
X024000Y017660D03*
X024000Y018660D03*
X024000Y019660D03*
X024000Y020660D03*
X024000Y021660D03*
X024000Y022660D03*
X024000Y023660D03*
X024000Y024660D03*
X024000Y025660D03*
X024000Y026660D03*
X030000Y026660D03*
X030000Y025660D03*
X030000Y024660D03*
X030000Y023660D03*
X030000Y022660D03*
X030000Y021660D03*
X030000Y020660D03*
X030000Y019660D03*
X030000Y018660D03*
X030000Y017660D03*
X030000Y016660D03*
X030000Y015660D03*
X030000Y014660D03*
X030000Y013660D03*
X030000Y012660D03*
X030000Y011660D03*
X030000Y010660D03*
X030000Y009660D03*
X030000Y008660D03*
X030000Y007660D03*
X033000Y013660D03*
X033000Y014660D03*
X033000Y015660D03*
X033000Y016660D03*
X033000Y017660D03*
X033000Y018660D03*
X033000Y019660D03*
X033000Y020660D03*
X033000Y021660D03*
X033000Y022660D03*
X033000Y023660D03*
X033000Y024660D03*
X033000Y025660D03*
X033000Y026660D03*
X039000Y026660D03*
X039000Y025660D03*
X039000Y024660D03*
X039000Y023660D03*
X039000Y022660D03*
X039000Y021660D03*
X039000Y020660D03*
X039000Y019660D03*
X039000Y018660D03*
X039000Y017660D03*
X039000Y016660D03*
X039000Y015660D03*
X039000Y014660D03*
X039000Y013660D03*
X042000Y013660D03*
X042000Y014660D03*
X042000Y015660D03*
X042000Y016660D03*
X042000Y017660D03*
X042000Y018660D03*
X042000Y019660D03*
X042000Y020660D03*
X042000Y021660D03*
X042000Y022660D03*
X042000Y023660D03*
X042000Y024660D03*
X042000Y025660D03*
X042000Y026660D03*
X048000Y026660D03*
X048000Y025660D03*
X048000Y024660D03*
X048000Y023660D03*
X048000Y022660D03*
X048000Y021660D03*
X048000Y020660D03*
X048000Y019660D03*
X048000Y018660D03*
X048000Y017660D03*
X048000Y016660D03*
X048000Y015660D03*
X048000Y014660D03*
X048000Y013660D03*
D15*
X006000Y002035D03*
X005028Y003660D03*
X003453Y003660D03*
X004437Y005285D03*
X005224Y005285D03*
X006012Y005285D03*
X006799Y005285D03*
X006996Y003660D03*
X007232Y007345D03*
X007783Y007345D03*
X008652Y007345D03*
X008000Y008910D03*
X007000Y008910D03*
X007000Y009410D03*
X007000Y009910D03*
X008000Y009910D03*
X009063Y009410D03*
X008271Y010987D03*
X007503Y010987D03*
X004375Y009910D03*
X004375Y009410D03*
X006012Y007345D03*
X006406Y007345D03*
X002317Y011998D03*
X002317Y012588D03*
X001750Y014148D03*
X001750Y015172D03*
X003892Y015015D03*
X003892Y014560D03*
X006875Y015535D03*
X007813Y015223D03*
X008250Y015660D03*
X008750Y016160D03*
X009063Y016473D03*
X009375Y016775D03*
X009375Y017540D03*
X009005Y017910D03*
X008563Y018348D03*
X006808Y018718D03*
X006375Y018295D03*
X005625Y017535D03*
X005875Y016535D03*
X007250Y014410D03*
X010000Y015723D03*
X010313Y016035D03*
X005943Y019478D03*
X007250Y019910D03*
X007750Y019910D03*
X007500Y022673D03*
X007000Y022798D03*
X008000Y022798D03*
X007488Y024668D03*
X003315Y023979D03*
X011661Y023979D03*
X017125Y023660D03*
X017125Y021660D03*
X017125Y019660D03*
X017125Y025660D03*
X036875Y026660D03*
X045875Y026660D03*
X026125Y007660D03*
D16*
X025460Y007660D01*
X024790Y007660D02*
X024000Y007660D01*
X009337Y015797D02*
X008973Y016160D01*
X008750Y016160D01*
X008527Y015660D02*
X008250Y015660D01*
X008527Y015660D02*
X008863Y015323D01*
X006875Y015535D02*
X006750Y015660D01*
X006473Y015660D01*
X006137Y015323D01*
X006150Y015324D01*
X006162Y015328D01*
X006173Y015334D01*
X006183Y015342D01*
X005663Y015797D02*
X005664Y015810D01*
X005668Y015822D01*
X005674Y015833D01*
X005682Y015843D01*
X005663Y015797D02*
X006000Y016133D01*
X006000Y016410D01*
X005875Y016535D01*
X005902Y018285D02*
X006365Y018285D01*
X006375Y018295D01*
X006416Y018718D02*
X006808Y018718D01*
X006416Y018718D02*
X006137Y018997D01*
X005663Y018523D02*
X005902Y018285D01*
X005663Y018497D02*
X005663Y018523D01*
X008563Y018348D02*
X008563Y018696D01*
X008863Y018997D01*
X008850Y018996D01*
X008838Y018992D01*
X008827Y018986D01*
X008817Y018978D01*
X009337Y018523D02*
X009005Y018192D01*
X009005Y017910D01*
X015000Y019660D02*
X015790Y019660D01*
X016460Y019660D02*
X017125Y019660D01*
X017125Y021660D02*
X016460Y021660D01*
X016460Y023660D02*
X017125Y023660D01*
X017125Y025660D02*
X016460Y025660D01*
X007835Y023684D02*
X007488Y023337D01*
X007500Y022673D01*
X007165Y023684D02*
X007488Y024006D01*
X007488Y024668D01*
X007503Y010987D02*
X007291Y010987D01*
X007193Y010888D01*
X007193Y010563D01*
X007833Y010537D02*
X007833Y010790D01*
X008030Y010987D01*
X008271Y010987D01*
X007960Y010660D02*
X007882Y010582D01*
X007835Y010535D02*
X007835Y010245D01*
X007000Y009410D01*
X005585Y009410D01*
X006476Y009910D02*
X007000Y009910D01*
X007835Y010535D02*
X007960Y010410D01*
X008524Y009410D02*
X009063Y009410D01*
X008524Y008910D02*
X008000Y008910D01*
X007000Y008910D02*
X006476Y008910D01*
X005585Y008910D01*
X004915Y008910D02*
X004915Y009410D01*
X004375Y009410D01*
X004383Y009903D02*
X004375Y009910D01*
X004383Y009903D02*
X004915Y009910D01*
X006476Y008410D02*
X007000Y008410D01*
X006476Y008386D02*
X006476Y008410D01*
X007165Y007810D02*
X007165Y007373D01*
X007232Y007345D01*
X007783Y007345D02*
X007835Y007396D01*
X007835Y007810D01*
X006996Y003660D02*
X006335Y003660D01*
X036875Y026660D02*
X037540Y026660D01*
X038210Y026660D02*
X039000Y026660D01*
X045875Y026660D02*
X046540Y026660D01*
X047210Y026660D02*
X048000Y026660D01*
D17*
X007882Y010582D02*
X007835Y010535D01*
X007844Y010544D01*
X007193Y010563D02*
X007165Y010535D01*
X007094Y010606D01*
X007197Y007841D02*
X007165Y007810D01*
X007193Y007782D01*
X007165Y007810D02*
X007094Y007739D01*
X007835Y007810D02*
X007882Y007763D01*
D18*
X007000Y008410D03*
D19*
X006476Y009910D02*
X005585Y009910D01*
X008000Y009910D02*
X008524Y009910D01*
X005665Y003660D02*
X005028Y003660D01*
X015000Y021660D02*
X015790Y021660D01*
X015790Y023660D02*
X015000Y023660D01*
X015000Y025660D02*
X015790Y025660D01*
D20*
X007833Y010537D02*
X007835Y010535D01*
M02*
