G75*
%MOIN*%
%OFA0B0*%
%FSLAX24Y24*%
%IPPOS*%
%LPD*%
%AMOC8*
5,1,8,0,0,1.08239X$1,22.5*
%
%ADD10C,0.0030*%
%ADD11C,0.0250*%
%ADD12C,0.0040*%
D10*
X005738Y004237D02*
X005800Y004175D01*
X005923Y004175D01*
X005985Y004237D01*
X006106Y004175D02*
X006230Y004298D01*
X006168Y004298D02*
X006353Y004298D01*
X006353Y004175D02*
X006353Y004545D01*
X006168Y004545D01*
X006106Y004484D01*
X006106Y004360D01*
X006168Y004298D01*
X005985Y004484D02*
X005923Y004545D01*
X005800Y004545D01*
X005738Y004484D01*
X005738Y004422D01*
X005800Y004360D01*
X005738Y004298D01*
X005738Y004237D01*
X005800Y004360D02*
X005862Y004360D01*
X007238Y006950D02*
X007485Y006950D01*
X007362Y006950D02*
X007362Y007320D01*
X007485Y007197D01*
X007606Y007259D02*
X007668Y007320D01*
X007792Y007320D01*
X007853Y007259D01*
X007853Y007012D01*
X007792Y006950D01*
X007668Y006950D01*
X007606Y007012D01*
X004353Y008787D02*
X004353Y009034D01*
X004292Y009095D01*
X004168Y009095D01*
X004106Y009034D01*
X003985Y008910D02*
X003985Y008787D01*
X003923Y008725D01*
X003800Y008725D01*
X003738Y008787D01*
X003738Y008848D01*
X003800Y008910D01*
X003985Y008910D01*
X003862Y009034D01*
X003738Y009095D01*
X003985Y009225D02*
X003985Y009287D01*
X003738Y009534D01*
X003738Y009595D01*
X003985Y009595D01*
X004106Y009534D02*
X004168Y009595D01*
X004292Y009595D01*
X004353Y009534D01*
X004353Y009287D01*
X004292Y009225D01*
X004168Y009225D01*
X004106Y009287D01*
X004106Y009725D02*
X004230Y009848D01*
X004168Y009848D02*
X004353Y009848D01*
X004353Y009725D02*
X004353Y010095D01*
X004168Y010095D01*
X004106Y010034D01*
X004106Y009910D01*
X004168Y009848D01*
X003985Y009787D02*
X003923Y009725D01*
X003800Y009725D01*
X003738Y009787D01*
X003738Y010034D01*
X003800Y010095D01*
X003923Y010095D01*
X003985Y010034D01*
X003985Y009972D01*
X003923Y009910D01*
X003738Y009910D01*
X004106Y008787D02*
X004168Y008725D01*
X004292Y008725D01*
X004353Y008787D01*
X007238Y011112D02*
X007300Y011050D01*
X007423Y011050D01*
X007485Y011112D01*
X007606Y011112D02*
X007668Y011050D01*
X007792Y011050D01*
X007853Y011112D01*
X007853Y011359D01*
X007792Y011420D01*
X007668Y011420D01*
X007606Y011359D01*
X007485Y011359D02*
X007423Y011420D01*
X007300Y011420D01*
X007238Y011359D01*
X007238Y011297D01*
X007300Y011235D01*
X007238Y011173D01*
X007238Y011112D01*
X007300Y011235D02*
X007362Y011235D01*
X006376Y014400D02*
X006252Y014400D01*
X006191Y014462D01*
X006069Y014400D02*
X005822Y014400D01*
X005946Y014400D02*
X005946Y014770D01*
X006069Y014647D01*
X006191Y014709D02*
X006252Y014770D01*
X006376Y014770D01*
X006437Y014709D01*
X006437Y014462D01*
X006376Y014400D01*
X005701Y014585D02*
X005454Y014585D01*
X005516Y014400D02*
X005516Y014770D01*
X005701Y014585D01*
X008654Y014647D02*
X008654Y014709D01*
X008716Y014770D01*
X008839Y014770D01*
X008901Y014709D01*
X009146Y014770D02*
X009146Y014400D01*
X009269Y014400D02*
X009022Y014400D01*
X008901Y014400D02*
X008654Y014647D01*
X008654Y014400D02*
X008901Y014400D01*
X009269Y014647D02*
X009146Y014770D01*
X009391Y014709D02*
X009452Y014770D01*
X009576Y014770D01*
X009637Y014709D01*
X009637Y014462D01*
X009576Y014400D01*
X009452Y014400D01*
X009391Y014462D01*
X009452Y019550D02*
X009391Y019612D01*
X009452Y019550D02*
X009576Y019550D01*
X009637Y019612D01*
X009637Y019859D01*
X009576Y019920D01*
X009452Y019920D01*
X009391Y019859D01*
X009269Y019797D02*
X009146Y019920D01*
X009146Y019550D01*
X009269Y019550D02*
X009022Y019550D01*
X008901Y019612D02*
X008839Y019550D01*
X008716Y019550D01*
X008654Y019612D01*
X008654Y019735D01*
X008716Y019797D01*
X008777Y019797D01*
X008901Y019735D01*
X008901Y019920D01*
X008654Y019920D01*
X006437Y019859D02*
X006437Y019612D01*
X006376Y019550D01*
X006252Y019550D01*
X006191Y019612D01*
X006069Y019550D02*
X005822Y019550D01*
X005946Y019550D02*
X005946Y019920D01*
X006069Y019797D01*
X006191Y019859D02*
X006252Y019920D01*
X006376Y019920D01*
X006437Y019859D01*
X005701Y019859D02*
X005639Y019920D01*
X005516Y019920D01*
X005454Y019859D01*
X005454Y019797D01*
X005516Y019735D01*
X005454Y019673D01*
X005454Y019612D01*
X005516Y019550D01*
X005639Y019550D01*
X005701Y019612D01*
X005577Y019735D02*
X005516Y019735D01*
X007238Y024145D02*
X007485Y024145D01*
X007238Y024392D01*
X007238Y024454D01*
X007300Y024516D01*
X007423Y024516D01*
X007485Y024454D01*
X007606Y024454D02*
X007668Y024516D01*
X007792Y024516D01*
X007853Y024454D01*
X007853Y024207D01*
X007792Y024145D01*
X007668Y024145D01*
X007606Y024207D01*
X015679Y024144D02*
X015926Y024144D01*
X016047Y024144D02*
X016294Y024144D01*
X016416Y024144D02*
X016539Y024267D01*
X016477Y024267D02*
X016662Y024267D01*
X016662Y024144D02*
X016662Y024514D01*
X016477Y024514D01*
X016416Y024452D01*
X016416Y024329D01*
X016477Y024267D01*
X016294Y024390D02*
X016171Y024514D01*
X016171Y024144D01*
X015926Y024390D02*
X015802Y024514D01*
X015802Y024144D01*
X015741Y022492D02*
X015679Y022430D01*
X015679Y022369D01*
X015926Y022122D01*
X015679Y022122D01*
X016047Y022122D02*
X016294Y022122D01*
X016416Y022122D02*
X016539Y022245D01*
X016477Y022245D02*
X016662Y022245D01*
X016662Y022122D02*
X016662Y022492D01*
X016477Y022492D01*
X016416Y022430D01*
X016416Y022307D01*
X016477Y022245D01*
X016294Y022369D02*
X016171Y022492D01*
X016171Y022122D01*
X015926Y022430D02*
X015864Y022492D01*
X015741Y022492D01*
X015925Y020492D02*
X015863Y020430D01*
X015863Y020369D01*
X015925Y020307D01*
X016048Y020307D01*
X016110Y020369D01*
X016110Y020430D01*
X016048Y020492D01*
X015925Y020492D01*
X015925Y020307D02*
X015863Y020245D01*
X015863Y020184D01*
X015925Y020122D01*
X016048Y020122D01*
X016110Y020184D01*
X016110Y020245D01*
X016048Y020307D01*
X016231Y020184D02*
X016293Y020122D01*
X016417Y020122D01*
X016478Y020184D01*
X016478Y020430D01*
X016417Y020492D01*
X016293Y020492D01*
X016231Y020430D01*
X016171Y026144D02*
X016171Y026514D01*
X016294Y026390D01*
X016416Y026452D02*
X016416Y026329D01*
X016477Y026267D01*
X016662Y026267D01*
X016539Y026267D02*
X016416Y026144D01*
X016294Y026144D02*
X016047Y026144D01*
X015926Y026205D02*
X015679Y026452D01*
X015679Y026205D01*
X015741Y026144D01*
X015864Y026144D01*
X015926Y026205D01*
X015926Y026452D01*
X015864Y026514D01*
X015741Y026514D01*
X015679Y026452D01*
X016416Y026452D02*
X016477Y026514D01*
X016662Y026514D01*
X016662Y026144D01*
X037613Y027184D02*
X037613Y027430D01*
X037675Y027492D01*
X037798Y027492D01*
X037860Y027430D01*
X037860Y027369D01*
X037798Y027307D01*
X037613Y027307D01*
X037613Y027184D02*
X037675Y027122D01*
X037798Y027122D01*
X037860Y027184D01*
X037981Y027184D02*
X038043Y027122D01*
X038167Y027122D01*
X038228Y027184D01*
X038228Y027430D01*
X038167Y027492D01*
X038043Y027492D01*
X037981Y027430D01*
X046429Y027430D02*
X046429Y027184D01*
X046491Y027122D01*
X046614Y027122D01*
X046676Y027184D01*
X046429Y027430D01*
X046491Y027492D01*
X046614Y027492D01*
X046676Y027430D01*
X046676Y027184D01*
X046797Y027122D02*
X047044Y027122D01*
X046921Y027122D02*
X046921Y027492D01*
X047044Y027369D01*
X047166Y027430D02*
X047227Y027492D01*
X047351Y027492D01*
X047412Y027430D01*
X047412Y027184D01*
X047351Y027122D01*
X047227Y027122D01*
X047166Y027184D01*
X025662Y008430D02*
X025662Y008184D01*
X025601Y008122D01*
X025477Y008122D01*
X025416Y008184D01*
X025294Y008122D02*
X025047Y008122D01*
X024926Y008122D02*
X024679Y008122D01*
X024802Y008122D02*
X024802Y008492D01*
X024926Y008369D01*
X025171Y008492D02*
X025171Y008122D01*
X025294Y008369D02*
X025171Y008492D01*
X025416Y008430D02*
X025477Y008492D01*
X025601Y008492D01*
X025662Y008430D01*
D11*
X005793Y008160D03*
D12*
X009295Y008089D02*
X009295Y008013D01*
X009372Y007936D01*
X009525Y007936D01*
X009602Y008013D01*
X009755Y008013D02*
X009755Y008396D01*
X009602Y008320D02*
X009525Y008396D01*
X009372Y008396D01*
X009295Y008320D01*
X009295Y008243D01*
X009372Y008166D01*
X009295Y008089D01*
X009372Y008166D02*
X009448Y008166D01*
X009755Y008013D02*
X009832Y007936D01*
X009985Y007936D01*
X010062Y008013D01*
X010062Y008396D01*
M02*
