G75*
%MOIN*%
%OFA0B0*%
%FSLAX24Y24*%
%IPPOS*%
%LPD*%
%AMOC8*
5,1,8,0,0,1.08239X$1,22.5*
%
%ADD10C,0.0030*%
%ADD11C,0.0040*%
%ADD12C,0.0250*%
D10*
X002119Y002638D02*
X002366Y002638D01*
X002243Y002638D02*
X002243Y003009D01*
X002119Y002885D01*
X010817Y002775D02*
X011064Y002775D01*
X010940Y002775D02*
X010940Y003145D01*
X010817Y003022D01*
X010817Y004175D02*
X010817Y004422D01*
X010940Y004545D01*
X011064Y004422D01*
X011064Y004175D01*
X011064Y004360D02*
X010817Y004360D01*
X003012Y011813D02*
X002765Y011813D01*
X002888Y011813D02*
X002888Y012183D01*
X002765Y012059D01*
X002644Y012121D02*
X002582Y012183D01*
X002397Y012183D01*
X002397Y011813D01*
X002582Y011813D01*
X002644Y011874D01*
X002644Y012121D01*
X002644Y012403D02*
X002520Y012527D01*
X002582Y012527D02*
X002397Y012527D01*
X002397Y012403D02*
X002397Y012773D01*
X002582Y012773D01*
X002644Y012712D01*
X002644Y012588D01*
X002582Y012527D01*
X002765Y012527D02*
X002827Y012588D01*
X002950Y012588D01*
X003012Y012527D01*
X003012Y012465D01*
X002950Y012403D01*
X002827Y012403D01*
X002765Y012465D01*
X002765Y012527D01*
X002827Y012588D02*
X002765Y012650D01*
X002765Y012712D01*
X002827Y012773D01*
X002950Y012773D01*
X003012Y012712D01*
X003012Y012650D01*
X002950Y012588D01*
X002995Y013750D02*
X002995Y014120D01*
X003180Y014120D01*
X003242Y014059D01*
X003242Y013935D01*
X003180Y013873D01*
X002995Y013873D01*
X003119Y013873D02*
X003242Y013750D01*
X003363Y013750D02*
X003610Y013997D01*
X003610Y014059D01*
X003549Y014120D01*
X003425Y014120D01*
X003363Y014059D01*
X003363Y013750D02*
X003610Y013750D01*
X003610Y015455D02*
X003363Y015455D01*
X003242Y015455D02*
X003119Y015578D01*
X003180Y015578D02*
X002995Y015578D01*
X002995Y015455D02*
X002995Y015825D01*
X003180Y015825D01*
X003242Y015764D01*
X003242Y015640D01*
X003180Y015578D01*
X003363Y015702D02*
X003487Y015825D01*
X003487Y015455D01*
X003062Y023203D02*
X003062Y023574D01*
X002877Y023389D01*
X003124Y023389D01*
X002756Y023512D02*
X002694Y023574D01*
X002571Y023574D01*
X002509Y023512D01*
X002509Y023265D01*
X002571Y023203D01*
X002694Y023203D01*
X002756Y023265D01*
X002756Y023794D02*
X002632Y023917D01*
X002694Y023917D02*
X002509Y023917D01*
X002509Y023794D02*
X002509Y024164D01*
X002694Y024164D01*
X002756Y024102D01*
X002756Y023979D01*
X002694Y023917D01*
X002877Y023979D02*
X003124Y023979D01*
X003062Y023794D02*
X003062Y024164D01*
X002877Y023979D01*
X005658Y023869D02*
X005658Y023499D01*
X005658Y023622D02*
X005844Y023622D01*
X005905Y023684D01*
X005905Y023807D01*
X005844Y023869D01*
X005658Y023869D01*
X005782Y023622D02*
X005905Y023499D01*
X006027Y023560D02*
X006089Y023499D01*
X006212Y023499D01*
X006274Y023560D01*
X006274Y023622D01*
X006212Y023684D01*
X006027Y023684D01*
X006027Y023560D01*
X006027Y023684D02*
X006150Y023807D01*
X006274Y023869D01*
X007135Y024545D02*
X007197Y024483D01*
X007320Y024483D01*
X007382Y024545D01*
X007382Y024853D01*
X007503Y024791D02*
X007565Y024853D01*
X007688Y024853D01*
X007750Y024791D01*
X007750Y024730D01*
X007503Y024483D01*
X007750Y024483D01*
X007135Y024545D02*
X007135Y024853D01*
X008710Y023869D02*
X008895Y023869D01*
X008957Y023807D01*
X008957Y023684D01*
X008895Y023622D01*
X008710Y023622D01*
X008833Y023622D02*
X008957Y023499D01*
X009078Y023499D02*
X009078Y023560D01*
X009325Y023807D01*
X009325Y023869D01*
X009078Y023869D01*
X008710Y023869D02*
X008710Y023499D01*
X011859Y023512D02*
X011859Y023265D01*
X011921Y023203D01*
X012044Y023203D01*
X012106Y023265D01*
X012228Y023265D02*
X012289Y023203D01*
X012413Y023203D01*
X012474Y023265D01*
X012474Y023389D01*
X012413Y023450D01*
X012351Y023450D01*
X012228Y023389D01*
X012228Y023574D01*
X012474Y023574D01*
X012413Y023794D02*
X012289Y023794D01*
X012228Y023856D01*
X012228Y023979D02*
X012351Y024041D01*
X012413Y024041D01*
X012474Y023979D01*
X012474Y023856D01*
X012413Y023794D01*
X012228Y023979D02*
X012228Y024164D01*
X012474Y024164D01*
X012106Y024102D02*
X012106Y023979D01*
X012044Y023917D01*
X011859Y023917D01*
X011859Y023794D02*
X011859Y024164D01*
X012044Y024164D01*
X012106Y024102D01*
X011983Y023917D02*
X012106Y023794D01*
X012044Y023574D02*
X011921Y023574D01*
X011859Y023512D01*
X012044Y023574D02*
X012106Y023512D01*
X048845Y004545D02*
X049092Y004545D01*
X049092Y004484D01*
X048845Y004237D01*
X048845Y004175D01*
X049092Y004175D01*
X049030Y003145D02*
X048907Y003145D01*
X048845Y003084D01*
X049030Y003145D02*
X049092Y003084D01*
X049092Y003022D01*
X048845Y002775D01*
X049092Y002775D01*
X049213Y002775D02*
X049460Y003022D01*
X049460Y003084D01*
X049398Y003145D01*
X049275Y003145D01*
X049213Y003084D01*
X049213Y002775D02*
X049460Y002775D01*
D11*
X012207Y005632D02*
X012131Y005555D01*
X011977Y005555D01*
X011900Y005632D01*
X012054Y005785D02*
X012131Y005785D01*
X012207Y005708D01*
X012207Y005632D01*
X012131Y005785D02*
X012207Y005862D01*
X012207Y005939D01*
X012131Y006015D01*
X011977Y006015D01*
X011900Y005939D01*
X011747Y006015D02*
X011593Y006015D01*
X011670Y006015D02*
X011670Y005632D01*
X011593Y005555D01*
X011517Y005555D01*
X011440Y005632D01*
X003510Y005615D02*
X003203Y005308D01*
X003510Y005308D01*
X003510Y005615D02*
X003510Y005692D01*
X003433Y005768D01*
X003280Y005768D01*
X003203Y005692D01*
X003049Y005768D02*
X002896Y005768D01*
X002973Y005768D02*
X002973Y005385D01*
X002896Y005308D01*
X002819Y005308D01*
X002742Y005385D01*
X007136Y011005D02*
X007060Y011082D01*
X007060Y011465D01*
X007367Y011465D02*
X007367Y011082D01*
X007290Y011005D01*
X007136Y011005D01*
X007520Y011005D02*
X007827Y011005D01*
X007673Y011005D02*
X007673Y011465D01*
X007520Y011312D01*
X002077Y016680D02*
X001770Y016680D01*
X001923Y016680D02*
X001923Y017140D01*
X001770Y016987D01*
X001617Y017140D02*
X001463Y017140D01*
X001540Y017140D02*
X001540Y016757D01*
X001463Y016680D01*
X001386Y016680D01*
X001310Y016757D01*
X004645Y019632D02*
X004722Y019555D01*
X004875Y019555D01*
X004952Y019632D01*
X004952Y020015D01*
X005105Y019939D02*
X005105Y019862D01*
X005182Y019785D01*
X005336Y019785D01*
X005412Y019708D01*
X005412Y019632D01*
X005336Y019555D01*
X005182Y019555D01*
X005105Y019632D01*
X005105Y019708D01*
X005182Y019785D01*
X005336Y019785D02*
X005412Y019862D01*
X005412Y019939D01*
X005336Y020015D01*
X005182Y020015D01*
X005105Y019939D01*
X004645Y020015D02*
X004645Y019632D01*
X004687Y027202D02*
X004687Y027509D01*
X004841Y027662D01*
X004994Y027509D01*
X004994Y027202D01*
X005148Y027202D02*
X005148Y027662D01*
X005378Y027662D01*
X005455Y027585D01*
X005455Y027432D01*
X005378Y027355D01*
X005148Y027355D01*
X005301Y027355D02*
X005455Y027202D01*
X004994Y027432D02*
X004687Y027432D01*
X004534Y027662D02*
X004227Y027662D01*
X004227Y027202D01*
X004534Y027202D01*
X004380Y027432D02*
X004227Y027432D01*
X004073Y027202D02*
X003766Y027202D01*
X003766Y027662D01*
X003613Y027585D02*
X003536Y027662D01*
X003383Y027662D01*
X003306Y027585D01*
X003306Y027278D01*
X003383Y027202D01*
X003536Y027202D01*
X003613Y027278D01*
X009408Y027202D02*
X009408Y027662D01*
X009639Y027662D01*
X009715Y027585D01*
X009715Y027432D01*
X009639Y027355D01*
X009408Y027355D01*
X009562Y027355D02*
X009715Y027202D01*
X009869Y027202D02*
X010176Y027202D01*
X010329Y027278D02*
X010406Y027202D01*
X010559Y027202D01*
X010636Y027278D01*
X010636Y027355D01*
X010559Y027432D01*
X010406Y027432D01*
X010329Y027509D01*
X010329Y027585D01*
X010406Y027662D01*
X010559Y027662D01*
X010636Y027585D01*
X010790Y027662D02*
X010790Y027202D01*
X011096Y027202D01*
X010943Y027432D02*
X010790Y027432D01*
X010790Y027662D02*
X011096Y027662D01*
X011250Y027662D02*
X011557Y027662D01*
X011403Y027662D02*
X011403Y027202D01*
X010176Y027662D02*
X009869Y027662D01*
X009869Y027202D01*
X009869Y027432D02*
X010022Y027432D01*
X017560Y027507D02*
X017636Y027430D01*
X017790Y027430D01*
X017867Y027507D01*
X017867Y027890D01*
X018020Y027660D02*
X018327Y027660D01*
X018250Y027430D02*
X018250Y027890D01*
X018020Y027660D01*
X017560Y027507D02*
X017560Y027890D01*
X026560Y027890D02*
X026560Y027507D01*
X026636Y027430D01*
X026790Y027430D01*
X026867Y027507D01*
X026867Y027890D01*
X027020Y027890D02*
X027020Y027660D01*
X027173Y027737D01*
X027250Y027737D01*
X027327Y027660D01*
X027327Y027507D01*
X027250Y027430D01*
X027097Y027430D01*
X027020Y027507D01*
X027020Y027890D02*
X027327Y027890D01*
X035560Y027890D02*
X035560Y027507D01*
X035636Y027430D01*
X035790Y027430D01*
X035867Y027507D01*
X035867Y027890D01*
X036020Y027660D02*
X036250Y027660D01*
X036327Y027583D01*
X036327Y027507D01*
X036250Y027430D01*
X036097Y027430D01*
X036020Y027507D01*
X036020Y027660D01*
X036173Y027814D01*
X036327Y027890D01*
X044560Y027890D02*
X044560Y027507D01*
X044636Y027430D01*
X044790Y027430D01*
X044867Y027507D01*
X044867Y027890D01*
X045020Y027890D02*
X045327Y027890D01*
X045327Y027814D01*
X045020Y027507D01*
X045020Y027430D01*
D12*
X041250Y026910D03*
X032250Y026910D03*
X023250Y026910D03*
X014250Y026910D03*
X008124Y024564D03*
X004349Y016450D03*
X009157Y010993D03*
M02*
