G75*
%MOIN*%
%OFA0B0*%
%FSLAX24Y24*%
%IPPOS*%
%LPD*%
%AMOC8*
5,1,8,0,0,1.08239X$1,22.5*
%
%ADD10C,0.0000*%
D10*
X000500Y000160D02*
X000500Y029160D01*
X050492Y029160D01*
X050492Y000160D01*
X000500Y000160D01*
X000600Y001160D02*
X000602Y001219D01*
X000608Y001279D01*
X000618Y001337D01*
X000631Y001395D01*
X000649Y001452D01*
X000670Y001508D01*
X000695Y001562D01*
X000723Y001614D01*
X000755Y001665D01*
X000790Y001713D01*
X000828Y001759D01*
X000869Y001802D01*
X000913Y001842D01*
X000959Y001879D01*
X001008Y001913D01*
X001059Y001944D01*
X001111Y001972D01*
X001166Y001996D01*
X001222Y002016D01*
X001279Y002032D01*
X001337Y002045D01*
X001396Y002054D01*
X001455Y002059D01*
X001515Y002060D01*
X001574Y002057D01*
X001633Y002050D01*
X001692Y002039D01*
X001750Y002025D01*
X001806Y002006D01*
X001862Y001984D01*
X001915Y001959D01*
X001967Y001929D01*
X002017Y001897D01*
X002064Y001861D01*
X002110Y001822D01*
X002152Y001780D01*
X002192Y001736D01*
X002228Y001689D01*
X002261Y001640D01*
X002292Y001588D01*
X002318Y001535D01*
X002341Y001480D01*
X002360Y001424D01*
X002376Y001366D01*
X002388Y001308D01*
X002396Y001249D01*
X002400Y001190D01*
X002400Y001130D01*
X002396Y001071D01*
X002388Y001012D01*
X002376Y000954D01*
X002360Y000896D01*
X002341Y000840D01*
X002318Y000785D01*
X002292Y000732D01*
X002261Y000680D01*
X002228Y000631D01*
X002192Y000584D01*
X002152Y000540D01*
X002110Y000498D01*
X002064Y000459D01*
X002017Y000423D01*
X001967Y000391D01*
X001915Y000361D01*
X001862Y000336D01*
X001806Y000314D01*
X001750Y000295D01*
X001692Y000281D01*
X001633Y000270D01*
X001574Y000263D01*
X001515Y000260D01*
X001455Y000261D01*
X001396Y000266D01*
X001337Y000275D01*
X001279Y000288D01*
X001222Y000304D01*
X001166Y000324D01*
X001111Y000348D01*
X001059Y000376D01*
X001008Y000407D01*
X000959Y000441D01*
X000913Y000478D01*
X000869Y000518D01*
X000828Y000561D01*
X000790Y000607D01*
X000755Y000655D01*
X000723Y000706D01*
X000695Y000758D01*
X000670Y000812D01*
X000649Y000868D01*
X000631Y000925D01*
X000618Y000983D01*
X000608Y001041D01*
X000602Y001101D01*
X000600Y001160D01*
X003834Y003660D02*
X003836Y003687D01*
X003842Y003714D01*
X003851Y003740D01*
X003864Y003764D01*
X003880Y003787D01*
X003899Y003806D01*
X003921Y003823D01*
X003945Y003837D01*
X003970Y003847D01*
X003997Y003854D01*
X004024Y003857D01*
X004052Y003856D01*
X004079Y003851D01*
X004105Y003843D01*
X004129Y003831D01*
X004152Y003815D01*
X004173Y003797D01*
X004190Y003776D01*
X004205Y003752D01*
X004216Y003727D01*
X004224Y003701D01*
X004228Y003674D01*
X004228Y003646D01*
X004224Y003619D01*
X004216Y003593D01*
X004205Y003568D01*
X004190Y003544D01*
X004173Y003523D01*
X004152Y003505D01*
X004130Y003489D01*
X004105Y003477D01*
X004079Y003469D01*
X004052Y003464D01*
X004024Y003463D01*
X003997Y003466D01*
X003970Y003473D01*
X003945Y003483D01*
X003921Y003497D01*
X003899Y003514D01*
X003880Y003533D01*
X003864Y003556D01*
X003851Y003580D01*
X003842Y003606D01*
X003836Y003633D01*
X003834Y003660D01*
X007772Y003660D02*
X007774Y003687D01*
X007780Y003714D01*
X007789Y003740D01*
X007802Y003764D01*
X007818Y003787D01*
X007837Y003806D01*
X007859Y003823D01*
X007883Y003837D01*
X007908Y003847D01*
X007935Y003854D01*
X007962Y003857D01*
X007990Y003856D01*
X008017Y003851D01*
X008043Y003843D01*
X008067Y003831D01*
X008090Y003815D01*
X008111Y003797D01*
X008128Y003776D01*
X008143Y003752D01*
X008154Y003727D01*
X008162Y003701D01*
X008166Y003674D01*
X008166Y003646D01*
X008162Y003619D01*
X008154Y003593D01*
X008143Y003568D01*
X008128Y003544D01*
X008111Y003523D01*
X008090Y003505D01*
X008068Y003489D01*
X008043Y003477D01*
X008017Y003469D01*
X007990Y003464D01*
X007962Y003463D01*
X007935Y003466D01*
X007908Y003473D01*
X007883Y003483D01*
X007859Y003497D01*
X007837Y003514D01*
X007818Y003533D01*
X007802Y003556D01*
X007789Y003580D01*
X007780Y003606D01*
X007774Y003633D01*
X007772Y003660D01*
X048600Y001160D02*
X048602Y001219D01*
X048608Y001279D01*
X048618Y001337D01*
X048631Y001395D01*
X048649Y001452D01*
X048670Y001508D01*
X048695Y001562D01*
X048723Y001614D01*
X048755Y001665D01*
X048790Y001713D01*
X048828Y001759D01*
X048869Y001802D01*
X048913Y001842D01*
X048959Y001879D01*
X049008Y001913D01*
X049059Y001944D01*
X049111Y001972D01*
X049166Y001996D01*
X049222Y002016D01*
X049279Y002032D01*
X049337Y002045D01*
X049396Y002054D01*
X049455Y002059D01*
X049515Y002060D01*
X049574Y002057D01*
X049633Y002050D01*
X049692Y002039D01*
X049750Y002025D01*
X049806Y002006D01*
X049862Y001984D01*
X049915Y001959D01*
X049967Y001929D01*
X050017Y001897D01*
X050064Y001861D01*
X050110Y001822D01*
X050152Y001780D01*
X050192Y001736D01*
X050228Y001689D01*
X050261Y001640D01*
X050292Y001588D01*
X050318Y001535D01*
X050341Y001480D01*
X050360Y001424D01*
X050376Y001366D01*
X050388Y001308D01*
X050396Y001249D01*
X050400Y001190D01*
X050400Y001130D01*
X050396Y001071D01*
X050388Y001012D01*
X050376Y000954D01*
X050360Y000896D01*
X050341Y000840D01*
X050318Y000785D01*
X050292Y000732D01*
X050261Y000680D01*
X050228Y000631D01*
X050192Y000584D01*
X050152Y000540D01*
X050110Y000498D01*
X050064Y000459D01*
X050017Y000423D01*
X049967Y000391D01*
X049915Y000361D01*
X049862Y000336D01*
X049806Y000314D01*
X049750Y000295D01*
X049692Y000281D01*
X049633Y000270D01*
X049574Y000263D01*
X049515Y000260D01*
X049455Y000261D01*
X049396Y000266D01*
X049337Y000275D01*
X049279Y000288D01*
X049222Y000304D01*
X049166Y000324D01*
X049111Y000348D01*
X049059Y000376D01*
X049008Y000407D01*
X048959Y000441D01*
X048913Y000478D01*
X048869Y000518D01*
X048828Y000561D01*
X048790Y000607D01*
X048755Y000655D01*
X048723Y000706D01*
X048695Y000758D01*
X048670Y000812D01*
X048649Y000868D01*
X048631Y000925D01*
X048618Y000983D01*
X048608Y001041D01*
X048602Y001101D01*
X048600Y001160D01*
X048600Y028160D02*
X048602Y028219D01*
X048608Y028279D01*
X048618Y028337D01*
X048631Y028395D01*
X048649Y028452D01*
X048670Y028508D01*
X048695Y028562D01*
X048723Y028614D01*
X048755Y028665D01*
X048790Y028713D01*
X048828Y028759D01*
X048869Y028802D01*
X048913Y028842D01*
X048959Y028879D01*
X049008Y028913D01*
X049059Y028944D01*
X049111Y028972D01*
X049166Y028996D01*
X049222Y029016D01*
X049279Y029032D01*
X049337Y029045D01*
X049396Y029054D01*
X049455Y029059D01*
X049515Y029060D01*
X049574Y029057D01*
X049633Y029050D01*
X049692Y029039D01*
X049750Y029025D01*
X049806Y029006D01*
X049862Y028984D01*
X049915Y028959D01*
X049967Y028929D01*
X050017Y028897D01*
X050064Y028861D01*
X050110Y028822D01*
X050152Y028780D01*
X050192Y028736D01*
X050228Y028689D01*
X050261Y028640D01*
X050292Y028588D01*
X050318Y028535D01*
X050341Y028480D01*
X050360Y028424D01*
X050376Y028366D01*
X050388Y028308D01*
X050396Y028249D01*
X050400Y028190D01*
X050400Y028130D01*
X050396Y028071D01*
X050388Y028012D01*
X050376Y027954D01*
X050360Y027896D01*
X050341Y027840D01*
X050318Y027785D01*
X050292Y027732D01*
X050261Y027680D01*
X050228Y027631D01*
X050192Y027584D01*
X050152Y027540D01*
X050110Y027498D01*
X050064Y027459D01*
X050017Y027423D01*
X049967Y027391D01*
X049915Y027361D01*
X049862Y027336D01*
X049806Y027314D01*
X049750Y027295D01*
X049692Y027281D01*
X049633Y027270D01*
X049574Y027263D01*
X049515Y027260D01*
X049455Y027261D01*
X049396Y027266D01*
X049337Y027275D01*
X049279Y027288D01*
X049222Y027304D01*
X049166Y027324D01*
X049111Y027348D01*
X049059Y027376D01*
X049008Y027407D01*
X048959Y027441D01*
X048913Y027478D01*
X048869Y027518D01*
X048828Y027561D01*
X048790Y027607D01*
X048755Y027655D01*
X048723Y027706D01*
X048695Y027758D01*
X048670Y027812D01*
X048649Y027868D01*
X048631Y027925D01*
X048618Y027983D01*
X048608Y028041D01*
X048602Y028101D01*
X048600Y028160D01*
X000600Y028160D02*
X000602Y028219D01*
X000608Y028279D01*
X000618Y028337D01*
X000631Y028395D01*
X000649Y028452D01*
X000670Y028508D01*
X000695Y028562D01*
X000723Y028614D01*
X000755Y028665D01*
X000790Y028713D01*
X000828Y028759D01*
X000869Y028802D01*
X000913Y028842D01*
X000959Y028879D01*
X001008Y028913D01*
X001059Y028944D01*
X001111Y028972D01*
X001166Y028996D01*
X001222Y029016D01*
X001279Y029032D01*
X001337Y029045D01*
X001396Y029054D01*
X001455Y029059D01*
X001515Y029060D01*
X001574Y029057D01*
X001633Y029050D01*
X001692Y029039D01*
X001750Y029025D01*
X001806Y029006D01*
X001862Y028984D01*
X001915Y028959D01*
X001967Y028929D01*
X002017Y028897D01*
X002064Y028861D01*
X002110Y028822D01*
X002152Y028780D01*
X002192Y028736D01*
X002228Y028689D01*
X002261Y028640D01*
X002292Y028588D01*
X002318Y028535D01*
X002341Y028480D01*
X002360Y028424D01*
X002376Y028366D01*
X002388Y028308D01*
X002396Y028249D01*
X002400Y028190D01*
X002400Y028130D01*
X002396Y028071D01*
X002388Y028012D01*
X002376Y027954D01*
X002360Y027896D01*
X002341Y027840D01*
X002318Y027785D01*
X002292Y027732D01*
X002261Y027680D01*
X002228Y027631D01*
X002192Y027584D01*
X002152Y027540D01*
X002110Y027498D01*
X002064Y027459D01*
X002017Y027423D01*
X001967Y027391D01*
X001915Y027361D01*
X001862Y027336D01*
X001806Y027314D01*
X001750Y027295D01*
X001692Y027281D01*
X001633Y027270D01*
X001574Y027263D01*
X001515Y027260D01*
X001455Y027261D01*
X001396Y027266D01*
X001337Y027275D01*
X001279Y027288D01*
X001222Y027304D01*
X001166Y027324D01*
X001111Y027348D01*
X001059Y027376D01*
X001008Y027407D01*
X000959Y027441D01*
X000913Y027478D01*
X000869Y027518D01*
X000828Y027561D01*
X000790Y027607D01*
X000755Y027655D01*
X000723Y027706D01*
X000695Y027758D01*
X000670Y027812D01*
X000649Y027868D01*
X000631Y027925D01*
X000618Y027983D01*
X000608Y028041D01*
X000602Y028101D01*
X000600Y028160D01*
M02*
